BusraRef-Bold.ufo
<glyph name="numbersign" format="2">
  <advance width="2141"/>
  <unicode hex="0023"/>
  <outline>
    <contour>
      <point x="1941" y="1077" type="line"/>
      <point x="1941" y="1276" type="line"/>
      <point x="1516" y="1276" type="line"/>
      <point x="1648" y="1780" type="line"/>
      <point x="1398" y="1780" type="line"/>
      <point x="1269" y="1276" type="line"/>
      <point x="1066" y="1276" type="line"/>
      <point x="1217" y="1780" type="line"/>
      <point x="948" y="1780" type="line"/>
      <point x="818" y="1276" type="line"/>
      <point x="318" y="1276" type="line"/>
      <point x="318" y="1077" type="line"/>
      <point x="751" y="1077" type="line"/>
      <point x="690" y="836" type="line"/>
      <point x="200" y="836" type="line"/>
      <point x="200" y="639" type="line"/>
      <point x="623" y="639" type="line"/>
      <point x="494" y="172" type="line"/>
      <point x="744" y="172" type="line"/>
      <point x="873" y="639" type="line"/>
      <point x="1072" y="639" type="line"/>
      <point x="945" y="172" type="line"/>
      <point x="1193" y="172" type="line"/>
      <point x="1322" y="639" type="line"/>
      <point x="1812" y="639" type="line"/>
      <point x="1812" y="836" type="line"/>
      <point x="1388" y="836" type="line"/>
      <point x="1451" y="1077" type="line"/>
    </contour>
    <contour>
      <point x="999" y="1081" type="line"/>
      <point x="1206" y="1081" type="line"/>
      <point x="1142" y="834" type="line"/>
      <point x="934" y="834" type="line"/>
    </contour>
  </outline>
</glyph>
<glyph name="comma" format="2">
  <advance width="750"/>
  <unicode hex="002C"/>
  <outline>
    <contour>
      <point x="180" y="90" type="curve" smooth="yes"/>
      <point x="180" y="-14"/>
      <point x="246" y="-80"/>
      <point x="330" y="-80" type="curve" smooth="yes"/>
      <point x="370" y="-80"/>
      <point x="396" y="-50"/>
      <point x="424" y="-50" type="curve" smooth="yes"/>
      <point x="439" y="-50"/>
      <point x="447" y="-74"/>
      <point x="447" y="-99" type="curve" smooth="yes"/>
      <point x="447" y="-182"/>
      <point x="336" y="-266"/>
      <point x="210" y="-304" type="curve"/>
      <point x="210" y="-373" type="line"/>
      <point x="370" y="-332"/>
      <point x="570" y="-268"/>
      <point x="570" y="10" type="curve" smooth="yes"/>
      <point x="570" y="174"/>
      <point x="454" y="250"/>
      <point x="350" y="250" type="curve" smooth="yes"/>
      <point x="256" y="250"/>
      <point x="180" y="184"/>
    </contour>
  </outline>
</glyph>
<glyph name="question" format="2">
  <advance width="1837"/>
  <unicode hex="003F"/>
  <outline>
    <contour>
      <point x="375" y="1294" type="curve" smooth="yes"/>
      <point x="375" y="1181"/>
      <point x="416" y="1110"/>
      <point x="490" y="1038" type="curve" smooth="yes"/>
      <point x="532" y="997"/>
      <point x="622" y="960"/>
      <point x="716" y="960" type="curve" smooth="yes"/>
      <point x="817" y="960"/>
      <point x="960" y="1005"/>
      <point x="960" y="1129" type="curve" smooth="yes"/>
      <point x="960" y="1222"/>
      <point x="911" y="1297"/>
      <point x="814" y="1297" type="curve" smooth="yes"/>
      <point x="784" y="1297"/>
      <point x="739" y="1279"/>
      <point x="724" y="1264" type="curve"/>
      <point x="712" y="1279"/>
      <point x="712" y="1301"/>
      <point x="712" y="1320" type="curve" smooth="yes"/>
      <point x="712" y="1384"/>
      <point x="750" y="1462"/>
      <point x="896" y="1462" type="curve" smooth="yes"/>
      <point x="1061" y="1462"/>
      <point x="1125" y="1331"/>
      <point x="1125" y="1237" type="curve" smooth="yes"/>
      <point x="1125" y="1151"/>
      <point x="1054" y="1069"/>
      <point x="975" y="975" type="curve" smooth="yes"/>
      <point x="848" y="823"/>
      <point x="686" y="632"/>
      <point x="686" y="491" type="curve" smooth="yes"/>
      <point x="686" y="420"/>
      <point x="701" y="364"/>
      <point x="727" y="315" type="curve"/>
      <point x="1057" y="315" type="line"/>
      <point x="1039" y="356"/>
      <point x="1024" y="412"/>
      <point x="1024" y="491" type="curve" smooth="yes"/>
      <point x="1024" y="600"/>
      <point x="1114" y="697"/>
      <point x="1234" y="844" type="curve" smooth="yes"/>
      <point x="1346" y="982"/>
      <point x="1462" y="1121"/>
      <point x="1462" y="1256" type="curve" smooth="yes"/>
      <point x="1462" y="1414"/>
      <point x="1290" y="1650"/>
      <point x="896" y="1650" type="curve" smooth="yes"/>
      <point x="502" y="1650"/>
      <point x="375" y="1432"/>
    </contour>
    <contour>
      <point x="716" y="120" type="curve" smooth="yes"/>
      <point x="716" y="56"/>
      <point x="787" y="0"/>
      <point x="892" y="0" type="curve" smooth="yes"/>
      <point x="997" y="0"/>
      <point x="1069" y="56"/>
      <point x="1069" y="120" type="curve" smooth="yes"/>
      <point x="1069" y="184"/>
      <point x="997" y="240"/>
      <point x="892" y="240" type="curve" smooth="yes"/>
      <point x="787" y="240"/>
      <point x="716" y="184"/>
    </contour>
  </outline>
</glyph>
<glyph name="C" format="2">
  <advance width="1494"/>
  <unicode hex="0043"/>
  <outline>
    <contour>
      <point x="1351" y="1470" type="line"/>
      <point x="1238" y="1470" type="line"/>
      <point x="1232" y="1418"/>
      <point x="1213" y="1376"/>
      <point x="1200" y="1376" type="curve"/>
      <point x="1194" y="1376"/>
      <point x="1179" y="1384"/>
      <point x="1158" y="1396" type="curve"/>
      <point x="1105" y="1425"/>
      <point x="1024" y="1470"/>
      <point x="843" y="1470" type="curve"/>
      <point x="425" y="1470"/>
      <point x="67" y="1127"/>
      <point x="67" y="700" type="curve"/>
      <point x="67" y="296"/>
      <point x="390" y="-32"/>
      <point x="836" y="-32" type="curve"/>
      <point x="1101" y="-32"/>
      <point x="1312" y="149"/>
      <point x="1424" y="351" type="curve"/>
      <point x="1332" y="402" type="line"/>
      <point x="1221" y="233"/>
      <point x="1067" y="86"/>
      <point x="908" y="86" type="curve"/>
      <point x="625" y="86"/>
      <point x="399" y="313"/>
      <point x="399" y="693" type="curve"/>
      <point x="399" y="881"/>
      <point x="443" y="1057"/>
      <point x="529" y="1173" type="curve"/>
      <point x="620" y="1296"/>
      <point x="749" y="1362"/>
      <point x="876" y="1362" type="curve"/>
      <point x="1062" y="1362"/>
      <point x="1235" y="1179"/>
      <point x="1260" y="957" type="curve"/>
      <point x="1390" y="957" type="line"/>
    </contour>
  </outline>
</glyph>
<glyph name="backslash" format="2">
  <advance width="1220"/>
  <unicode hex="005C"/>
  <outline>
    <contour>
      <point x="400" y="1440" type="line"/>
      <point x="135" y="1440" type="line"/>
      <point x="820" y="0" type="line"/>
      <point x="1085" y="0" type="line"/>
    </contour>
  </outline>
</glyph>
<glyph name="u" format="2">
  <advance width="1181"/>
  <unicode hex="0075"/>
  <outline>
    <contour>
      <point x="40" y="982" type="line"/>
      <point x="40" y="907" type="line"/>
      <point x="157" y="907"/>
      <point x="185" y="871"/>
      <point x="185" y="762" type="curve"/>
      <point x="185" y="293" type="line"/>
      <point x="185" y="118"/>
      <point x="324" y="-22"/>
      <point x="499" y="-22" type="curve"/>
      <point x="579" y="-22"/>
      <point x="678" y="25"/>
      <point x="751" y="93" type="curve"/>
      <point x="751" y="-22" type="line"/>
      <point x="850" y="-22" type="line"/>
      <point x="1171" y="123" type="line"/>
      <point x="1132" y="201" type="line"/>
      <point x="1082" y="167"/>
      <point x="1058" y="159"/>
      <point x="1045" y="159" type="curve"/>
      <point x="1011" y="159"/>
      <point x="1002" y="191"/>
      <point x="1002" y="301" type="curve"/>
      <point x="1002" y="982" type="line"/>
      <point x="601" y="982" type="line"/>
      <point x="601" y="907" type="line"/>
      <point x="718" y="907"/>
      <point x="751" y="871"/>
      <point x="751" y="762" type="curve"/>
      <point x="751" y="274" type="line"/>
      <point x="708" y="200"/>
      <point x="637" y="140"/>
      <point x="586" y="140" type="curve"/>
      <point x="503" y="140"/>
      <point x="437" y="208"/>
      <point x="437" y="293" type="curve"/>
      <point x="437" y="982" type="line"/>
    </contour>
  </outline>
</glyph>
<glyph name="copyright" format="2">
  <advance width="1687"/>
  <unicode hex="00A9"/>
  <outline>
    <contour>
      <point x="1617" y="720" type="curve" smooth="yes"/>
      <point x="1617" y="1135"/>
      <point x="1272" y="1468"/>
      <point x="846" y="1468" type="curve"/>
      <point x="415" y="1468"/>
      <point x="70" y="1135"/>
      <point x="70" y="720" type="curve"/>
      <point x="70" y="302"/>
      <point x="415" y="-34"/>
      <point x="846" y="-34" type="curve"/>
      <point x="1272" y="-34"/>
      <point x="1617" y="302"/>
    </contour>
    <contour>
      <point x="1220" y="1192" type="line"/>
      <point x="1112" y="1192" type="line"/>
      <point x="1105" y="1173"/>
      <point x="1096" y="1150"/>
      <point x="1092" y="1144" type="curve"/>
      <point x="1011" y="1173"/>
      <point x="959" y="1192"/>
      <point x="867" y="1192" type="curve" smooth="yes"/>
      <point x="553" y="1192"/>
      <point x="328" y="991"/>
      <point x="328" y="687" type="curve"/>
      <point x="328" y="415"/>
      <point x="570" y="213"/>
      <point x="846" y="213" type="curve"/>
      <point x="1027" y="213"/>
      <point x="1184" y="293"/>
      <point x="1289" y="448" type="curve"/>
      <point x="1188" y="502" type="line"/>
      <point x="1113" y="381"/>
      <point x="993" y="320"/>
      <point x="886" y="320" type="curve"/>
      <point x="653" y="320"/>
      <point x="583" y="509"/>
      <point x="583" y="724" type="curve"/>
      <point x="583" y="925"/>
      <point x="647" y="1105"/>
      <point x="854" y="1105" type="curve"/>
      <point x="984" y="1105"/>
      <point x="1091" y="1010"/>
      <point x="1131" y="861" type="curve"/>
      <point x="1244" y="861" type="line"/>
    </contour>
    <contour>
      <point x="196" y="720" type="curve" smooth="yes"/>
      <point x="196" y="1079"/>
      <point x="487" y="1370"/>
      <point x="846" y="1370" type="curve" smooth="yes"/>
      <point x="1205" y="1370"/>
      <point x="1496" y="1079"/>
      <point x="1496" y="720" type="curve" smooth="yes"/>
      <point x="1496" y="361"/>
      <point x="1205" y="70"/>
      <point x="846" y="70" type="curve" smooth="yes"/>
      <point x="487" y="70"/>
      <point x="196" y="361"/>
    </contour>
  </outline>
</glyph>
<glyph name="onehalf" format="2">
  <advance width="1839"/>
  <unicode hex="00BD"/>
  <outline>
    <contour>
      <point x="1456" y="1470" type="line"/>
      <point x="1281" y="1470" type="line"/>
      <point x="253" y="-51" type="line"/>
      <point x="428" y="-51" type="line"/>
    </contour>
    <contour>
      <point x="1025" y="0" type="line"/>
      <point x="1621" y="0" type="line"/>
      <point x="1699" y="196" type="line"/>
      <point x="1568" y="196" type="line"/>
      <point x="1546" y="144"/>
      <point x="1507" y="137"/>
      <point x="1462" y="137" type="curve"/>
      <point x="1302" y="137" type="line"/>
      <point x="1441" y="246"/>
      <point x="1644" y="406"/>
      <point x="1644" y="555" type="curve"/>
      <point x="1644" y="695"/>
      <point x="1534" y="781"/>
      <point x="1349" y="781" type="curve"/>
      <point x="1209" y="781"/>
      <point x="1076" y="669"/>
      <point x="1055" y="528" type="curve"/>
      <point x="1182" y="528" type="line"/>
      <point x="1207" y="605"/>
      <point x="1252" y="648"/>
      <point x="1312" y="648" type="curve"/>
      <point x="1377" y="648"/>
      <point x="1430" y="594"/>
      <point x="1430" y="521" type="curve" smooth="yes"/>
      <point x="1430" y="378"/>
      <point x="1167" y="170"/>
      <point x="1025" y="59" type="curve"/>
    </contour>
    <contour>
      <point x="163" y="688" type="line"/>
      <point x="595" y="688" type="line"/>
      <point x="595" y="764" type="line"/>
      <point x="503" y="764"/>
      <point x="486" y="774"/>
      <point x="486" y="824" type="curve"/>
      <point x="486" y="1470" type="line"/>
      <point x="391" y="1470" type="line"/>
      <point x="140" y="1365" type="line"/>
      <point x="174" y="1287" type="line"/>
      <point x="272" y="1328" type="line"/>
      <point x="272" y="824" type="line"/>
      <point x="272" y="774"/>
      <point x="256" y="764"/>
      <point x="163" y="764" type="curve"/>
    </contour>
  </outline>
</glyph>
<glyph name="idieresis" format="2">
  <advance width="627"/>
  <unicode hex="00EF"/>
  <outline>
    <contour>
      <point x="186" y="238" type="line"/>
      <point x="186" y="121"/>
      <point x="165" y="75"/>
      <point x="40" y="75" type="curve"/>
      <point x="40" y="0" type="line"/>
      <point x="587" y="0" type="line"/>
      <point x="587" y="75" type="line"/>
      <point x="463" y="75"/>
      <point x="437" y="121"/>
      <point x="437" y="238" type="curve"/>
      <point x="437" y="1004" type="line"/>
      <point x="334" y="1004" type="line"/>
      <point x="24" y="863" type="line"/>
      <point x="52" y="790" type="line"/>
      <point x="108" y="807"/>
      <point x="153" y="819"/>
      <point x="165" y="819" type="curve"/>
      <point x="186" y="819"/>
      <point x="186" y="778"/>
      <point x="186" y="683" type="curve"/>
    </contour>
    <contour>
      <point x="-40" y="1340" type="curve" smooth="yes"/>
      <point x="-40" y="1263"/>
      <point x="23" y="1200"/>
      <point x="100" y="1200" type="curve" smooth="yes"/>
      <point x="177" y="1200"/>
      <point x="240" y="1263"/>
      <point x="240" y="1340" type="curve" smooth="yes"/>
      <point x="240" y="1417"/>
      <point x="177" y="1480"/>
      <point x="100" y="1480" type="curve" smooth="yes"/>
      <point x="23" y="1480"/>
      <point x="-40" y="1417"/>
    </contour>
    <contour>
      <point x="381" y="1340" type="curve" smooth="yes"/>
      <point x="381" y="1263"/>
      <point x="444" y="1200"/>
      <point x="521" y="1200" type="curve" smooth="yes"/>
      <point x="598" y="1200"/>
      <point x="661" y="1263"/>
      <point x="661" y="1340" type="curve" smooth="yes"/>
      <point x="661" y="1417"/>
      <point x="598" y="1480"/>
      <point x="521" y="1480" type="curve" smooth="yes"/>
      <point x="444" y="1480"/>
      <point x="381" y="1417"/>
    </contour>
  </outline>
</glyph>
<glyph name="uni0114" format="2">
  <advance width="1404"/>
  <unicode hex="0114"/>
  <outline>
    <contour>
      <point x="937" y="1783" type="line"/>
      <point x="916" y="1730"/>
      <point x="819" y="1648"/>
      <point x="683" y="1648" type="curve"/>
      <point x="547" y="1648"/>
      <point x="449" y="1730"/>
      <point x="428" y="1783" type="curve"/>
      <point x="354" y="1783" type="line"/>
      <point x="377" y="1673"/>
      <point x="474" y="1469"/>
      <point x="683" y="1469" type="curve"/>
      <point x="892" y="1469"/>
      <point x="985" y="1673"/>
      <point x="1007" y="1783" type="curve"/>
    </contour>
    <contour>
      <point x="40" y="1437" type="line"/>
      <point x="40" y="1362" type="line"/>
      <point x="186" y="1362"/>
      <point x="240" y="1329"/>
      <point x="240" y="1196" type="curve"/>
      <point x="240" y="242" type="line"/>
      <point x="240" y="108"/>
      <point x="186" y="75"/>
      <point x="40" y="75" type="curve"/>
      <point x="40" y="0" type="line"/>
      <point x="1194" y="0" type="line"/>
      <point x="1334" y="432" type="line"/>
      <point x="1203" y="432" type="line"/>
      <point x="1149" y="254"/>
      <point x="1039" y="108"/>
      <point x="867" y="108" type="curve"/>
      <point x="576" y="108" type="line"/>
      <point x="552" y="108"/>
      <point x="534" y="140"/>
      <point x="531" y="178" type="curve"/>
      <point x="531" y="729" type="line"/>
      <point x="737" y="729" type="line"/>
      <point x="828" y="729"/>
      <point x="905" y="673"/>
      <point x="905" y="506" type="curve"/>
      <point x="1021" y="506" type="line"/>
      <point x="1021" y="1019" type="line"/>
      <point x="905" y="1019" type="line"/>
      <point x="905" y="884"/>
      <point x="828" y="836"/>
      <point x="737" y="836" type="curve"/>
      <point x="531" y="836" type="line"/>
      <point x="531" y="1329" type="line"/>
      <point x="844" y="1329" type="line"/>
      <point x="1002" y="1329"/>
      <point x="1063" y="1235"/>
      <point x="1096" y="1066" type="curve"/>
      <point x="1213" y="1066" type="line"/>
      <point x="1193" y="1437" type="line"/>
    </contour>
  </outline>
</glyph>
<glyph name="hbar" format="2">
  <advance width="1148"/>
  <unicode hex="0127"/>
  <outline>
    <contour>
      <point x="11" y="984" type="line"/>
      <point x="171" y="984" type="line"/>
      <point x="171" y="238" type="line"/>
      <point x="171" y="121"/>
      <point x="150" y="75"/>
      <point x="26" y="75" type="curve"/>
      <point x="26" y="0" type="line"/>
      <point x="571" y="0" type="line"/>
      <point x="571" y="75" type="line"/>
      <point x="448" y="75"/>
      <point x="422" y="121"/>
      <point x="422" y="238" type="curve"/>
      <point x="422" y="719" type="line"/>
      <point x="492" y="790"/>
      <point x="570" y="838"/>
      <point x="623" y="838" type="curve"/>
      <point x="680" y="838"/>
      <point x="721" y="779"/>
      <point x="721" y="667" type="curve"/>
      <point x="721" y="238" type="line"/>
      <point x="721" y="121"/>
      <point x="699" y="75"/>
      <point x="575" y="75" type="curve"/>
      <point x="575" y="0" type="line"/>
      <point x="1122" y="0" type="line"/>
      <point x="1122" y="75" type="line"/>
      <point x="998" y="75"/>
      <point x="972" y="121"/>
      <point x="972" y="238" type="curve"/>
      <point x="972" y="697" type="line"/>
      <point x="972" y="868"/>
      <point x="859" y="1004"/>
      <point x="717" y="1004" type="curve"/>
      <point x="612" y="1004"/>
      <point x="513" y="962"/>
      <point x="422" y="879" type="curve"/>
      <point x="422" y="984" type="line"/>
      <point x="590" y="984" type="line"/>
      <point x="590" y="1157" type="line"/>
      <point x="422" y="1157" type="line"/>
      <point x="422" y="1470" type="line"/>
      <point x="324" y="1470" type="line"/>
      <point x="9" y="1332" type="line"/>
      <point x="38" y="1256" type="line"/>
      <point x="99" y="1274"/>
      <point x="138" y="1285"/>
      <point x="149" y="1285" type="curve"/>
      <point x="170" y="1285"/>
      <point x="171" y="1245"/>
      <point x="171" y="1157" type="curve"/>
      <point x="11" y="1157" type="line"/>
    </contour>
  </outline>
</glyph>
<glyph name="uni0250" format="2">
  <advance width="998"/>
  <unicode hex="0250"/>
  <outline>
    <contour>
      <point x="163" y="248" type="line"/>
      <point x="163" y="85"/>
      <point x="255" y="-22"/>
      <point x="506" y="-22" type="curve"/>
      <point x="717" y="-22"/>
      <point x="895" y="82"/>
      <point x="895" y="220" type="curve"/>
      <point x="895" y="293"/>
      <point x="843" y="348"/>
      <point x="765" y="348" type="curve"/>
      <point x="663" y="348"/>
      <point x="641" y="281"/>
      <point x="641" y="205" type="curve"/>
      <point x="641" y="142"/>
      <point x="623" y="79"/>
      <point x="539" y="79" type="curve"/>
      <point x="462" y="79"/>
      <point x="415" y="132"/>
      <point x="415" y="293" type="curve"/>
      <point x="415" y="342" type="line"/>
      <point x="425" y="346"/>
      <point x="436" y="349"/>
      <point x="448" y="353" type="curve"/>
      <point x="670" y="428"/>
      <point x="928" y="516"/>
      <point x="928" y="748" type="curve"/>
      <point x="928" y="890"/>
      <point x="829" y="1004"/>
      <point x="669" y="1004" type="curve"/>
      <point x="536" y="1004"/>
      <point x="466" y="953"/>
      <point x="404" y="897" type="curve"/>
      <point x="384" y="953"/>
      <point x="340" y="1004"/>
      <point x="272" y="1004" type="curve"/>
      <point x="146" y="1004"/>
      <point x="60" y="930"/>
      <point x="11" y="843" type="curve"/>
      <point x="11" y="656" type="line"/>
      <point x="73" y="748"/>
      <point x="134" y="838"/>
      <point x="157" y="838" type="curve"/>
      <point x="161" y="838"/>
      <point x="163" y="813"/>
      <point x="163" y="784" type="curve"/>
    </contour>
    <contour>
      <point x="579" y="848" type="curve" smooth="yes"/>
      <point x="627" y="848"/>
      <point x="677" y="781"/>
      <point x="677" y="697" type="curve"/>
      <point x="677" y="585"/>
      <point x="539" y="502"/>
      <point x="415" y="451" type="curve"/>
      <point x="415" y="763" type="line"/>
      <point x="470" y="809"/>
      <point x="525" y="848"/>
    </contour>
  </outline>
</glyph>
<glyph name="uni025D" format="2">
  <advance width="1097"/>
  <unicode hex="025D"/>
  <guideline x="0" y="985" angle="0"/>
  <guideline x="0" y="502" angle="0"/>
  <guideline x="0" y="-3" angle="0"/>
  <outline>
    <contour>
      <point x="58" y="242" type="line"/>
      <point x="113" y="113"/>
      <point x="249" y="-24"/>
      <point x="476" y="-24" type="curve"/>
      <point x="747" y="-24"/>
      <point x="865" y="100"/>
      <point x="865" y="242" type="curve"/>
      <point x="865" y="366"/>
      <point x="799" y="439"/>
      <point x="688" y="502" type="curve"/>
      <point x="793" y="547"/>
      <point x="842" y="630"/>
      <point x="842" y="732" type="curve"/>
      <point x="842" y="753"/>
      <point x="836" y="780"/>
      <point x="822" y="808" type="curve"/>
      <point x="852" y="827" type="line"/>
      <point x="852" y="744" type="line"/>
      <point x="852" y="660"/>
      <point x="912" y="587"/>
      <point x="1023" y="587" type="curve"/>
      <point x="1146" y="587"/>
      <point x="1205" y="693"/>
      <point x="1214" y="789" type="curve"/>
      <point x="1107" y="849" type="line"/>
      <point x="1084" y="747"/>
      <point x="1062" y="681"/>
      <point x="1024" y="681" type="curve"/>
      <point x="992" y="681"/>
      <point x="987" y="735"/>
      <point x="987" y="780" type="curve"/>
      <point x="987" y="938" type="line"/>
      <point x="908" y="982" type="line"/>
      <point x="764" y="890" type="line"/>
      <point x="701" y="953"/>
      <point x="596" y="1004"/>
      <point x="442" y="1004" type="curve"/>
      <point x="281" y="1004"/>
      <point x="73" y="914"/>
      <point x="73" y="801" type="curve"/>
      <point x="73" y="752"/>
      <point x="123" y="706"/>
      <point x="197" y="706" type="curve"/>
      <point x="283" y="706"/>
      <point x="305" y="751"/>
      <point x="329" y="801" type="curve"/>
      <point x="329" y="800" type="line"/>
      <point x="352" y="848"/>
      <point x="377" y="902"/>
      <point x="450" y="902" type="curve"/>
      <point x="535" y="902"/>
      <point x="587" y="824"/>
      <point x="587" y="732" type="curve"/>
      <point x="587" y="654"/>
      <point x="514" y="580"/>
      <point x="444" y="580" type="curve"/>
      <point x="421" y="580"/>
      <point x="402" y="586"/>
      <point x="383" y="591" type="curve"/>
      <point x="384" y="591" type="line"/>
      <point x="364" y="598"/>
      <point x="346" y="603"/>
      <point x="314" y="603" type="curve"/>
      <point x="271" y="603"/>
      <point x="202" y="581"/>
      <point x="202" y="529" type="curve"/>
      <point x="202" y="478"/>
      <point x="271" y="455"/>
      <point x="314" y="455" type="curve"/>
      <point x="354" y="455"/>
      <point x="375" y="461"/>
      <point x="396" y="468" type="curve"/>
      <point x="412" y="473"/>
      <point x="430" y="478"/>
      <point x="452" y="478" type="curve"/>
      <point x="520" y="478"/>
      <point x="597" y="400"/>
      <point x="597" y="295" type="curve"/>
      <point x="597" y="193"/>
      <point x="534" y="118"/>
      <point x="415" y="118" type="curve"/>
      <point x="332" y="118"/>
      <point x="205" y="201"/>
      <point x="160" y="270" type="curve"/>
    </contour>
  </outline>
</glyph>
<glyph name="uni025F" format="2">
  <advance width="629"/>
  <unicode hex="025F"/>
  <outline>
    <contour>
      <point x="47" y="401" type="line"/>
      <point x="211" y="401" type="line"/>
      <point x="211" y="-185" type="line"/>
      <point x="211" y="-294"/>
      <point x="193" y="-329"/>
      <point x="163" y="-329" type="curve"/>
      <point x="147" y="-329"/>
      <point x="128" y="-302"/>
      <point x="110" y="-273" type="curve"/>
      <point x="87" y="-238"/>
      <point x="64" y="-205"/>
      <point x="0" y="-205" type="curve"/>
      <point x="-80" y="-205"/>
      <point x="-131" y="-241"/>
      <point x="-131" y="-305" type="curve"/>
      <point x="-131" y="-377"/>
      <point x="-50" y="-437"/>
      <point x="80" y="-437" type="curve"/>
      <point x="324" y="-437"/>
      <point x="462" y="-391"/>
      <point x="462" y="19" type="curve"/>
      <point x="462" y="401" type="line"/>
      <point x="626" y="401" type="line"/>
      <point x="626" y="575" type="line"/>
      <point x="462" y="575" type="line"/>
      <point x="462" y="1004" type="line"/>
      <point x="359" y="1004" type="line"/>
      <point x="49" y="863" type="line"/>
      <point x="77" y="790" type="line"/>
      <point x="133" y="807"/>
      <point x="178" y="819"/>
      <point x="190" y="819" type="curve"/>
      <point x="211" y="819"/>
      <point x="211" y="778"/>
      <point x="211" y="683" type="curve"/>
      <point x="211" y="575" type="line"/>
      <point x="47" y="575" type="line"/>
    </contour>
  </outline>
</glyph>
<glyph name="uni0260" format="2">
  <advance width="1131"/>
  <unicode hex="0260"/>
  <outline>
    <contour>
      <point x="964" y="9" type="curve"/>
      <point x="964" y="1037" type="line"/>
      <point x="964" y="1125"/>
      <point x="1015" y="1196"/>
      <point x="1067" y="1196" type="curve"/>
      <point x="1107" y="1196"/>
      <point x="1128" y="1155"/>
      <point x="1149" y="1115" type="curve"/>
      <point x="1174" y="1065"/>
      <point x="1200" y="1018"/>
      <point x="1292" y="1018" type="curve"/>
      <point x="1364" y="1018"/>
      <point x="1416" y="1051"/>
      <point x="1416" y="1118" type="curve"/>
      <point x="1416" y="1247"/>
      <point x="1268" y="1304"/>
      <point x="1074" y="1304" type="curve"/>
      <point x="881" y="1304"/>
      <point x="727" y="1155"/>
      <point x="715" y="963" type="curve"/>
      <point x="672" y="987"/>
      <point x="621" y="1004"/>
      <point x="557" y="1004" type="curve"/>
      <point x="288" y="1004"/>
      <point x="65" y="747"/>
      <point x="65" y="479" type="curve"/>
      <point x="65" y="209"/>
      <point x="246" y="-22"/>
      <point x="469" y="-22" type="curve"/>
      <point x="555" y="-22"/>
      <point x="640" y="5"/>
      <point x="714" y="49" type="curve"/>
      <point x="714" y="-20" type="line"/>
      <point x="714" y="-192"/>
      <point x="670" y="-311"/>
      <point x="542" y="-311" type="curve"/>
      <point x="437" y="-311"/>
      <point x="400" y="-253"/>
      <point x="400" y="-173" type="curve"/>
      <point x="400" y="-113"/>
      <point x="345" y="-49"/>
      <point x="263" y="-49" type="curve"/>
      <point x="183" y="-49"/>
      <point x="105" y="-105"/>
      <point x="105" y="-173" type="curve"/>
      <point x="105" y="-310"/>
      <point x="261" y="-437"/>
      <point x="477" y="-437" type="curve"/>
      <point x="746" y="-437"/>
      <point x="964" y="-293"/>
    </contour>
    <contour>
      <point x="568" y="123" type="curve" smooth="yes"/>
      <point x="437" y="123"/>
      <point x="335" y="307"/>
      <point x="335" y="533" type="curve"/>
      <point x="335" y="746"/>
      <point x="426" y="896"/>
      <point x="539" y="896" type="curve"/>
      <point x="626" y="896"/>
      <point x="714" y="802"/>
      <point x="714" y="664" type="curve"/>
      <point x="714" y="199" type="line"/>
      <point x="672" y="158"/>
      <point x="617" y="123"/>
    </contour>
  </outline>
</glyph>
<glyph name="uni0268" format="2">
  <advance width="678"/>
  <unicode hex="0268"/>
  <outline>
    <contour>
      <point x="66" y="382" type="line"/>
      <point x="212" y="382" type="line"/>
      <point x="212" y="238" type="line"/>
      <point x="212" y="121"/>
      <point x="191" y="75"/>
      <point x="66" y="75" type="curve"/>
      <point x="66" y="0" type="line"/>
      <point x="613" y="0" type="line"/>
      <point x="613" y="75" type="line"/>
      <point x="489" y="75"/>
      <point x="463" y="121"/>
      <point x="463" y="238" type="curve"/>
      <point x="463" y="382" type="line"/>
      <point x="609" y="382" type="line"/>
      <point x="609" y="592" type="line"/>
      <point x="463" y="592" type="line"/>
      <point x="463" y="1004" type="line"/>
      <point x="360" y="1004" type="line"/>
      <point x="50" y="863" type="line"/>
      <point x="78" y="790" type="line"/>
      <point x="134" y="807"/>
      <point x="179" y="819"/>
      <point x="191" y="819" type="curve"/>
      <point x="212" y="819"/>
      <point x="212" y="778"/>
      <point x="212" y="683" type="curve"/>
      <point x="212" y="592" type="line"/>
      <point x="66" y="592" type="line"/>
    </contour>
    <contour>
      <point x="336" y="1470" type="curve" smooth="yes"/>
      <point x="265" y="1470"/>
      <point x="198" y="1417"/>
      <point x="198" y="1356" type="curve"/>
      <point x="198" y="1294"/>
      <point x="265" y="1241"/>
      <point x="336" y="1241" type="curve"/>
      <point x="413" y="1241"/>
      <point x="474" y="1294"/>
      <point x="474" y="1356" type="curve"/>
      <point x="474" y="1417"/>
      <point x="413" y="1470"/>
    </contour>
  </outline>
</glyph>
<glyph name="uni026D" format="2">
  <advance width="568"/>
  <unicode hex="026D"/>
  <outline>
    <contour>
      <point x="451" y="-170" type="curve"/>
      <point x="451" y="1470" type="line"/>
      <point x="353" y="1470" type="line"/>
      <point x="37" y="1332" type="line"/>
      <point x="65" y="1255" type="line"/>
      <point x="125" y="1274"/>
      <point x="165" y="1285"/>
      <point x="178" y="1285" type="curve"/>
      <point x="200" y="1285"/>
      <point x="200" y="1244"/>
      <point x="200" y="1152" type="curve"/>
      <point x="200" y="-72" type="line"/>
      <point x="200" y="-275"/>
      <point x="360" y="-437"/>
      <point x="560" y="-437" type="curve"/>
      <point x="754" y="-437"/>
      <point x="903" y="-380"/>
      <point x="903" y="-250" type="curve"/>
      <point x="903" y="-182"/>
      <point x="850" y="-151"/>
      <point x="778" y="-151" type="curve"/>
      <point x="686" y="-151"/>
      <point x="661" y="-198"/>
      <point x="635" y="-248" type="curve"/>
      <point x="615" y="-289"/>
      <point x="593" y="-329"/>
      <point x="554" y="-329" type="curve"/>
      <point x="501" y="-329"/>
      <point x="451" y="-257"/>
    </contour>
  </outline>
</glyph>
<glyph name="uni0271" format="2">
  <advance width="1669"/>
  <unicode hex="0271"/>
  <outline>
    <contour>
      <point x="1569" y="689" type="line"/>
      <point x="1569" y="860"/>
      <point x="1450" y="1004"/>
      <point x="1296" y="1004" type="curve"/>
      <point x="1177" y="1004"/>
      <point x="1049" y="945"/>
      <point x="971" y="861" type="curve"/>
      <point x="921" y="948"/>
      <point x="816" y="1004"/>
      <point x="721" y="1004" type="curve"/>
      <point x="629" y="1004"/>
      <point x="519" y="948"/>
      <point x="433" y="872" type="curve"/>
      <point x="433" y="1004" type="line"/>
      <point x="329" y="1004" type="line"/>
      <point x="20" y="863" type="line"/>
      <point x="49" y="788" type="line"/>
      <point x="125" y="814"/>
      <point x="147" y="819"/>
      <point x="160" y="819" type="curve"/>
      <point x="182" y="819"/>
      <point x="182" y="778"/>
      <point x="182" y="683" type="curve"/>
      <point x="182" y="238" type="line"/>
      <point x="182" y="121"/>
      <point x="157" y="75"/>
      <point x="32" y="75" type="curve"/>
      <point x="32" y="0" type="line"/>
      <point x="579" y="0" type="line"/>
      <point x="579" y="75" type="line"/>
      <point x="454" y="75"/>
      <point x="433" y="121"/>
      <point x="433" y="238" type="curve"/>
      <point x="433" y="720" type="line"/>
      <point x="483" y="785"/>
      <point x="568" y="838"/>
      <point x="637" y="838" type="curve"/>
      <point x="697" y="838"/>
      <point x="750" y="759"/>
      <point x="750" y="661" type="curve"/>
      <point x="750" y="238" type="line"/>
      <point x="750" y="121"/>
      <point x="729" y="75"/>
      <point x="601" y="75" type="curve"/>
      <point x="601" y="0" type="line"/>
      <point x="1150" y="0" type="line"/>
      <point x="1150" y="75" type="line"/>
      <point x="1026" y="75"/>
      <point x="1001" y="121"/>
      <point x="1001" y="238" type="curve"/>
      <point x="1001" y="721" type="line"/>
      <point x="1044" y="785"/>
      <point x="1132" y="838"/>
      <point x="1205" y="838" type="curve"/>
      <point x="1267" y="838"/>
      <point x="1321" y="759"/>
      <point x="1321" y="661" type="curve"/>
      <point x="1321" y="-17" type="line"/>
      <point x="1321" y="-141"/>
      <point x="1298" y="-247"/>
      <point x="1260" y="-247" type="curve"/>
      <point x="1242" y="-247"/>
      <point x="1224" y="-229"/>
      <point x="1193" y="-194" type="curve"/>
      <point x="1168" y="-165"/>
      <point x="1133" y="-135"/>
      <point x="1059" y="-135" type="curve"/>
      <point x="966" y="-135"/>
      <point x="918" y="-198"/>
      <point x="918" y="-262" type="curve"/>
      <point x="918" y="-321"/>
      <point x="972" y="-360"/>
      <point x="1023" y="-390" type="curve"/>
      <point x="1077" y="-418"/>
      <point x="1123" y="-437"/>
      <point x="1245" y="-437" type="curve"/>
      <point x="1262" y="-437" type="line"/>
      <point x="1435" y="-437"/>
      <point x="1569" y="-314"/>
      <point x="1569" y="-17" type="curve"/>
    </contour>
  </outline>
</glyph>
<glyph name="uni0273" format="2">
  <advance width="1080"/>
  <unicode hex="0273"/>
  <outline>
    <contour>
      <point x="980" y="697" type="line"/>
      <point x="980" y="868"/>
      <point x="867" y="1004"/>
      <point x="724" y="1004" type="curve"/>
      <point x="620" y="1004"/>
      <point x="520" y="962"/>
      <point x="433" y="881" type="curve"/>
      <point x="433" y="1004" type="line"/>
      <point x="329" y="1004" type="line"/>
      <point x="20" y="863" type="line"/>
      <point x="49" y="788" type="line"/>
      <point x="125" y="814"/>
      <point x="147" y="819"/>
      <point x="160" y="819" type="curve"/>
      <point x="182" y="819"/>
      <point x="182" y="778"/>
      <point x="182" y="683" type="curve"/>
      <point x="182" y="238" type="line"/>
      <point x="182" y="121"/>
      <point x="157" y="75"/>
      <point x="32" y="75" type="curve"/>
      <point x="32" y="0" type="line"/>
      <point x="579" y="0" type="line"/>
      <point x="579" y="75" type="line"/>
      <point x="454" y="75"/>
      <point x="433" y="121"/>
      <point x="433" y="238" type="curve"/>
      <point x="433" y="721" type="line"/>
      <point x="499" y="791"/>
      <point x="577" y="838"/>
      <point x="633" y="838" type="curve"/>
      <point x="690" y="838"/>
      <point x="729" y="779"/>
      <point x="729" y="667" type="curve"/>
      <point x="729" y="-72" type="line"/>
      <point x="729" y="-275"/>
      <point x="887" y="-437"/>
      <point x="1089" y="-437" type="curve"/>
      <point x="1282" y="-437"/>
      <point x="1431" y="-380"/>
      <point x="1431" y="-250" type="curve"/>
      <point x="1431" y="-182"/>
      <point x="1377" y="-151"/>
      <point x="1307" y="-151" type="curve"/>
      <point x="1214" y="-151"/>
      <point x="1189" y="-198"/>
      <point x="1164" y="-248" type="curve"/>
      <point x="1143" y="-289"/>
      <point x="1122" y="-329"/>
      <point x="1082" y="-329" type="curve"/>
      <point x="1029" y="-329"/>
      <point x="980" y="-257"/>
      <point x="980" y="-170" type="curve"/>
    </contour>
  </outline>
</glyph>
<glyph name="uni0276" format="2">
  <advance width="1358"/>
  <unicode hex="0276"/>
  <outline>
    <contour>
      <point x="579" y="-22" type="curve" smooth="yes"/>
      <point x="634" y="-22"/>
      <point x="686" y="-15"/>
      <point x="732" y="0" type="curve"/>
      <point x="1308" y="0" type="line"/>
      <point x="1407" y="310" type="line"/>
      <point x="1293" y="310" type="line"/>
      <point x="1254" y="187"/>
      <point x="1182" y="86"/>
      <point x="1070" y="86" type="curve"/>
      <point x="921" y="86" type="line"/>
      <point x="912" y="86"/>
      <point x="905" y="105"/>
      <point x="903" y="127" type="curve"/>
      <point x="903" y="502" type="line"/>
      <point x="1023" y="502" type="line"/>
      <point x="1080" y="502"/>
      <point x="1127" y="465"/>
      <point x="1127" y="350" type="curve"/>
      <point x="1233" y="350" type="line"/>
      <point x="1233" y="714" type="line"/>
      <point x="1127" y="714" type="line"/>
      <point x="1127" y="622"/>
      <point x="1079" y="589"/>
      <point x="1021" y="589" type="curve"/>
      <point x="903" y="589" type="line"/>
      <point x="903" y="918" type="line"/>
      <point x="1056" y="918" type="line"/>
      <point x="1155" y="918"/>
      <point x="1196" y="852"/>
      <point x="1218" y="735" type="curve"/>
      <point x="1322" y="735" type="line"/>
      <point x="1308" y="1004" type="line"/>
      <point x="734" y="1004" type="line"/>
      <point x="687" y="1019"/>
      <point x="634" y="1026"/>
      <point x="579" y="1026" type="curve"/>
      <point x="281" y="1026"/>
      <point x="54" y="795"/>
      <point x="54" y="507" type="curve"/>
      <point x="54" y="215"/>
      <point x="281" y="-22"/>
    </contour>
    <contour>
      <point x="579" y="65" type="curve" smooth="yes"/>
      <point x="400" y="65"/>
      <point x="307" y="252"/>
      <point x="307" y="507" type="curve"/>
      <point x="307" y="762"/>
      <point x="400" y="939"/>
      <point x="579" y="939" type="curve" smooth="yes"/>
      <point x="613" y="939"/>
      <point x="634" y="933"/>
      <point x="657" y="925" type="curve"/>
      <point x="669" y="916"/>
      <point x="677" y="886"/>
      <point x="677" y="831" type="curve"/>
      <point x="677" y="173" type="line"/>
      <point x="677" y="117"/>
      <point x="670" y="87"/>
      <point x="652" y="76" type="curve"/>
      <point x="634" y="70"/>
      <point x="606" y="65"/>
    </contour>
  </outline>
</glyph>
<glyph name="uni027D" format="2">
  <advance width="833"/>
  <unicode hex="027D"/>
  <outline>
    <contour>
      <point x="186" y="-72" type="line"/>
      <point x="186" y="-275"/>
      <point x="346" y="-437"/>
      <point x="547" y="-437" type="curve"/>
      <point x="740" y="-437"/>
      <point x="888" y="-380"/>
      <point x="888" y="-250" type="curve"/>
      <point x="888" y="-182"/>
      <point x="835" y="-151"/>
      <point x="766" y="-151" type="curve"/>
      <point x="674" y="-151"/>
      <point x="649" y="-198"/>
      <point x="623" y="-248" type="curve"/>
      <point x="601" y="-289"/>
      <point x="580" y="-329"/>
      <point x="539" y="-329" type="curve"/>
      <point x="487" y="-329"/>
      <point x="434" y="-257"/>
      <point x="434" y="-170" type="curve"/>
      <point x="434" y="692" type="line"/>
      <point x="476" y="765"/>
      <point x="512" y="819"/>
      <point x="531" y="819" type="curve"/>
      <point x="538" y="819"/>
      <point x="552" y="807"/>
      <point x="566" y="796" type="curve"/>
      <point x="565" y="796" type="line"/>
      <point x="588" y="777"/>
      <point x="614" y="757"/>
      <point x="674" y="757" type="curve"/>
      <point x="761" y="757"/>
      <point x="813" y="798"/>
      <point x="813" y="872" type="curve"/>
      <point x="813" y="945"/>
      <point x="737" y="1004"/>
      <point x="641" y="1004" type="curve"/>
      <point x="562" y="1004"/>
      <point x="492" y="958"/>
      <point x="434" y="894" type="curve"/>
      <point x="434" y="1004" type="line"/>
      <point x="334" y="1004" type="line"/>
      <point x="25" y="863" type="line"/>
      <point x="46" y="791" type="line"/>
      <point x="50" y="792"/>
      <point x="96" y="804"/>
      <point x="99" y="805" type="curve"/>
      <point x="131" y="812"/>
      <point x="153" y="819"/>
      <point x="165" y="819" type="curve"/>
      <point x="186" y="819"/>
      <point x="186" y="778"/>
      <point x="186" y="683" type="curve"/>
    </contour>
  </outline>
</glyph>
<glyph name="uni028D" format="2">
  <advance width="1648"/>
  <unicode hex="028D"/>
  <outline>
    <contour>
      <point x="1638" y="0" type="line"/>
      <point x="1638" y="75" type="line"/>
      <point x="1524" y="75"/>
      <point x="1511" y="93"/>
      <point x="1445" y="263" type="curve" smooth="yes"/>
      <point x="1156" y="1004" type="line"/>
      <point x="1041" y="1004" type="line"/>
      <point x="829" y="454" type="line"/>
      <point x="618" y="1004" type="line"/>
      <point x="500" y="1004" type="line"/>
      <point x="227" y="252" type="line"/>
      <point x="228" y="252" type="line"/>
      <point x="171" y="95"/>
      <point x="105" y="75"/>
      <point x="10" y="75" type="curve"/>
      <point x="10" y="0" type="line"/>
      <point x="440" y="0" type="line"/>
      <point x="440" y="75" type="line"/>
      <point x="371" y="75"/>
      <point x="349" y="90"/>
      <point x="349" y="118" type="curve"/>
      <point x="349" y="142"/>
      <point x="365" y="194"/>
      <point x="379" y="235" type="curve"/>
      <point x="382" y="244"/>
      <point x="383" y="252"/>
      <point x="386" y="260" type="curve"/>
      <point x="507" y="600" type="line"/>
      <point x="650" y="237" type="line"/>
      <point x="674" y="187"/>
      <point x="683" y="142"/>
      <point x="683" y="125" type="curve"/>
      <point x="683" y="91"/>
      <point x="625" y="75"/>
      <point x="552" y="75" type="curve"/>
      <point x="552" y="0" type="line"/>
      <point x="1109" y="0" type="line"/>
      <point x="1109" y="75" type="line"/>
      <point x="1001" y="75"/>
      <point x="941" y="165"/>
      <point x="924" y="208" type="curve"/>
      <point x="909" y="256" type="line"/>
      <point x="1044" y="606" type="line"/>
      <point x="1192" y="238" type="line"/>
      <point x="1209" y="195"/>
      <point x="1226" y="140"/>
      <point x="1226" y="107" type="curve"/>
      <point x="1226" y="84"/>
      <point x="1201" y="75"/>
      <point x="1146" y="75" type="curve"/>
      <point x="1146" y="0" type="line"/>
    </contour>
  </outline>
</glyph>
<glyph name="uni0293" format="2">
  <advance width="1124"/>
  <unicode hex="0293"/>
  <outline>
    <contour>
      <point x="962" y="924" type="line"/>
      <point x="962" y="982" type="line"/>
      <point x="101" y="982" type="line"/>
      <point x="101" y="608" type="line"/>
      <point x="216" y="608" type="line"/>
      <point x="216" y="700"/>
      <point x="234" y="750"/>
      <point x="253" y="770" type="curve"/>
      <point x="250" y="770" type="line"/>
      <point x="269" y="785"/>
      <point x="296" y="801"/>
      <point x="344" y="801" type="curve"/>
      <point x="678" y="801" type="line"/>
      <point x="345" y="398" type="line"/>
      <point x="389" y="348" type="line"/>
      <point x="459" y="391"/>
      <point x="508" y="405"/>
      <point x="544" y="405" type="curve"/>
      <point x="699" y="405"/>
      <point x="804" y="244"/>
      <point x="804" y="16" type="curve"/>
      <point x="804" y="-192"/>
      <point x="677" y="-299"/>
      <point x="540" y="-299" type="curve"/>
      <point x="397" y="-299"/>
      <point x="257" y="-224"/>
      <point x="257" y="-125" type="curve"/>
      <point x="257" y="-55"/>
      <point x="298" y="0"/>
      <point x="388" y="0" type="curve" smooth="yes"/>
      <point x="542" y="0"/>
      <point x="669" y="-311"/>
      <point x="720" y="-485" type="curve" smooth="yes"/>
      <point x="730" y="-518"/>
      <point x="758" y="-550"/>
      <point x="815" y="-550" type="curve" smooth="yes"/>
      <point x="863" y="-550"/>
      <point x="906" y="-506"/>
      <point x="906" y="-456" type="curve" smooth="yes"/>
      <point x="906" y="-446"/>
      <point x="904" y="-437"/>
      <point x="901" y="-427" type="curve" smooth="yes"/>
      <point x="792" y="-101"/>
      <point x="650" y="190"/>
      <point x="388" y="190" type="curve"/>
      <point x="210" y="190"/>
      <point x="67" y="68"/>
      <point x="67" y="-125" type="curve"/>
      <point x="67" y="-292"/>
      <point x="240" y="-437"/>
      <point x="512" y="-437" type="curve"/>
      <point x="857" y="-437"/>
      <point x="1054" y="-199"/>
      <point x="1054" y="100" type="curve"/>
      <point x="1054" y="341"/>
      <point x="891" y="545"/>
      <point x="678" y="583" type="curve"/>
    </contour>
  </outline>
</glyph>
<glyph name="uni0298" format="2">
  <advance width="1550"/>
  <unicode hex="0298"/>
  <outline>
    <contour>
      <point x="36" y="719" type="curve" smooth="yes"/>
      <point x="36" y="322"/>
      <point x="368" y="0"/>
      <point x="775" y="0" type="curve"/>
      <point x="1183" y="0"/>
      <point x="1514" y="322"/>
      <point x="1514" y="719" type="curve"/>
      <point x="1514" y="1115"/>
      <point x="1183" y="1437"/>
      <point x="775" y="1437" type="curve"/>
      <point x="368" y="1437"/>
      <point x="36" y="1115"/>
    </contour>
    <contour>
      <point x="262" y="719" type="curve" smooth="yes"/>
      <point x="262" y="1014"/>
      <point x="491" y="1252"/>
      <point x="775" y="1252" type="curve"/>
      <point x="1059" y="1252"/>
      <point x="1289" y="1014"/>
      <point x="1289" y="719" type="curve"/>
      <point x="1289" y="423"/>
      <point x="1059" y="185"/>
      <point x="775" y="185" type="curve"/>
      <point x="491" y="185"/>
      <point x="262" y="423"/>
    </contour>
    <contour>
      <point x="608" y="719" type="curve" smooth="yes"/>
      <point x="608" y="636"/>
      <point x="682" y="572"/>
      <point x="775" y="572" type="curve"/>
      <point x="869" y="572"/>
      <point x="943" y="636"/>
      <point x="943" y="719" type="curve"/>
      <point x="943" y="801"/>
      <point x="869" y="866"/>
      <point x="775" y="866" type="curve"/>
      <point x="682" y="866"/>
      <point x="608" y="801"/>
    </contour>
  </outline>
</glyph>
<glyph name="uni0299" format="2">
  <advance width="1248"/>
  <unicode hex="0299"/>
  <guideline x="0" y="985" angle="0"/>
  <outline>
    <contour>
      <point x="208" y="173" type="line"/>
      <point x="208" y="86"/>
      <point x="160" y="65"/>
      <point x="36" y="65" type="curve"/>
      <point x="36" y="0" type="line"/>
      <point x="758" y="0" type="line"/>
      <point x="1013" y="0"/>
      <point x="1178" y="125"/>
      <point x="1178" y="282" type="curve"/>
      <point x="1178" y="401"/>
      <point x="1085" y="489"/>
      <point x="948" y="524" type="curve"/>
      <point x="1076" y="588"/>
      <point x="1122" y="650"/>
      <point x="1122" y="750" type="curve"/>
      <point x="1122" y="901"/>
      <point x="945" y="1004"/>
      <point x="685" y="1004" type="curve"/>
      <point x="36" y="1004" type="line"/>
      <point x="36" y="941" type="line"/>
      <point x="160" y="941"/>
      <point x="208" y="920"/>
      <point x="208" y="831" type="curve"/>
    </contour>
    <contour>
      <point x="619" y="478" type="curve" smooth="yes"/>
      <point x="822" y="478"/>
      <point x="898" y="385"/>
      <point x="898" y="276" type="curve"/>
      <point x="898" y="176"/>
      <point x="811" y="93"/>
      <point x="630" y="93" type="curve"/>
      <point x="582" y="93"/>
      <point x="515" y="98"/>
      <point x="468" y="104" type="curve"/>
      <point x="468" y="471" type="line"/>
      <point x="530" y="476"/>
      <point x="593" y="478"/>
    </contour>
    <contour>
      <point x="577" y="918" type="curve" smooth="yes"/>
      <point x="770" y="918"/>
      <point x="854" y="836"/>
      <point x="854" y="734" type="curve"/>
      <point x="854" y="638"/>
      <point x="783" y="563"/>
      <point x="659" y="563" type="curve"/>
      <point x="626" y="563"/>
      <point x="527" y="563"/>
      <point x="468" y="568" type="curve"/>
      <point x="468" y="909" type="line"/>
      <point x="518" y="917"/>
      <point x="558" y="918"/>
    </contour>
  </outline>
</glyph>
<glyph name="uni029D" format="2">
  <advance width="572"/>
  <unicode hex="029D"/>
  <outline>
    <contour>
      <point x="462" y="1004" type="line"/>
      <point x="359" y="1004" type="line"/>
      <point x="49" y="863" type="line"/>
      <point x="77" y="790" type="line"/>
      <point x="133" y="808"/>
      <point x="178" y="819"/>
      <point x="190" y="819" type="curve"/>
      <point x="211" y="819"/>
      <point x="211" y="778"/>
      <point x="211" y="683" type="curve"/>
      <point x="211" y="-51" type="line"/>
      <point x="193" y="-49"/>
      <point x="175" y="-49"/>
      <point x="159" y="-49" type="curve"/>
      <point x="89" y="-49"/>
      <point x="31" y="-65"/>
      <point x="-7" y="-102" type="curve" smooth="yes"/>
      <point x="-48" y="-141"/>
      <point x="-69" y="-188"/>
      <point x="-69" y="-243" type="curve"/>
      <point x="-69" y="-363"/>
      <point x="42" y="-437"/>
      <point x="153" y="-437" type="curve"/>
      <point x="276" y="-437"/>
      <point x="371" y="-392"/>
      <point x="421" y="-277" type="curve"/>
      <point x="452" y="-307"/>
      <point x="481" y="-340"/>
      <point x="501" y="-367" type="curve"/>
      <point x="511" y="-381"/>
      <point x="529" y="-388"/>
      <point x="557" y="-388" type="curve"/>
      <point x="594" y="-388"/>
      <point x="629" y="-363"/>
      <point x="629" y="-332" type="curve"/>
      <point x="629" y="-324"/>
      <point x="623" y="-310"/>
      <point x="611" y="-290" type="curve"/>
      <point x="584" y="-251"/>
      <point x="522" y="-191"/>
      <point x="456" y="-143" type="curve"/>
      <point x="460" y="-110"/>
      <point x="462" y="-74"/>
      <point x="462" y="-35" type="curve"/>
    </contour>
    <contour>
      <point x="335" y="1470" type="curve" smooth="yes"/>
      <point x="264" y="1470"/>
      <point x="197" y="1417"/>
      <point x="197" y="1356" type="curve"/>
      <point x="197" y="1294"/>
      <point x="264" y="1241"/>
      <point x="335" y="1241" type="curve"/>
      <point x="412" y="1241"/>
      <point x="473" y="1294"/>
      <point x="473" y="1356" type="curve"/>
      <point x="473" y="1417"/>
      <point x="412" y="1470"/>
    </contour>
    <contour>
      <point x="163" y="-329" type="curve" smooth="yes"/>
      <point x="116" y="-329"/>
      <point x="80" y="-297"/>
      <point x="80" y="-243" type="curve" smooth="yes"/>
      <point x="80" y="-191"/>
      <point x="115" y="-161"/>
      <point x="159" y="-157" type="curve"/>
      <point x="172" y="-157"/>
      <point x="191" y="-157"/>
      <point x="211" y="-160" type="curve"/>
      <point x="211" y="-185" type="line"/>
      <point x="211" y="-294"/>
      <point x="193" y="-329"/>
    </contour>
  </outline>
</glyph>
<glyph name="uni029E" format="2">
  <advance width="1128"/>
  <unicode hex="029E"/>
  <outline>
    <contour>
      <point x="766" y="-500" type="line"/>
      <point x="819" y="-500" type="line"/>
      <point x="1108" y="-372" type="line"/>
      <point x="1093" y="-331" type="line"/>
      <point x="1055" y="-343"/>
      <point x="1029" y="-350"/>
      <point x="1006" y="-350" type="curve" smooth="yes"/>
      <point x="943" y="-350"/>
      <point x="943" y="-301"/>
      <point x="943" y="-192" type="curve" smooth="yes"/>
      <point x="943" y="749" type="line" smooth="yes"/>
      <point x="943" y="884"/>
      <point x="969" y="937"/>
      <point x="1096" y="937" type="curve"/>
      <point x="1096" y="974" type="line"/>
      <point x="616" y="974" type="line"/>
      <point x="616" y="937" type="line"/>
      <point x="744" y="937"/>
      <point x="766" y="884"/>
      <point x="766" y="749" type="curve" smooth="yes"/>
      <point x="766" y="442" type="line"/>
      <point x="515" y="757" type="line" smooth="yes"/>
      <point x="478" y="803"/>
      <point x="436" y="862"/>
      <point x="436" y="888" type="curve" smooth="yes"/>
      <point x="436" y="918"/>
      <point x="448" y="937"/>
      <point x="500" y="937" type="curve"/>
      <point x="500" y="974" type="line"/>
      <point x="20" y="974" type="line"/>
      <point x="20" y="937" type="line"/>
      <point x="118" y="937"/>
      <point x="180" y="896"/>
      <point x="320" y="719" type="curve" smooth="yes"/>
      <point x="609" y="355" type="line"/>
      <point x="429" y="198" type="line" smooth="yes"/>
      <point x="280" y="68"/>
      <point x="223" y="40"/>
      <point x="91" y="40" type="curve"/>
      <point x="91" y="3" type="line"/>
      <point x="496" y="3" type="line"/>
      <point x="496" y="40" type="line"/>
      <point x="433" y="40"/>
      <point x="418" y="48"/>
      <point x="418" y="74" type="curve" smooth="yes"/>
      <point x="418" y="108"/>
      <point x="479" y="158"/>
      <point x="534" y="209" type="curve" smooth="yes"/>
      <point x="766" y="423" type="line"/>
    </contour>
  </outline>
</glyph>
<glyph name="uni029F" format="2">
  <advance width="1126"/>
  <unicode hex="029F"/>
  <guideline x="0" y="985" angle="0"/>
  <outline>
    <contour>
      <point x="206" y="173" type="line"/>
      <point x="206" y="86"/>
      <point x="160" y="65"/>
      <point x="40" y="65" type="curve"/>
      <point x="40" y="0" type="line"/>
      <point x="1015" y="0" type="line"/>
      <point x="1126" y="294" type="line"/>
      <point x="1020" y="316" type="line"/>
      <point x="968" y="189"/>
      <point x="874" y="86"/>
      <point x="703" y="86" type="curve"/>
      <point x="486" y="86" type="line"/>
      <point x="471" y="86"/>
      <point x="458" y="111"/>
      <point x="458" y="139" type="curve"/>
      <point x="458" y="830" type="line"/>
      <point x="458" y="916"/>
      <point x="504" y="938"/>
      <point x="621" y="938" type="curve"/>
      <point x="621" y="1002" type="line"/>
      <point x="40" y="1002" type="line"/>
      <point x="40" y="938" type="line"/>
      <point x="160" y="938"/>
      <point x="206" y="916"/>
      <point x="206" y="830" type="curve"/>
    </contour>
  </outline>
</glyph>
<glyph name="uni0300" format="2">
  <unicode hex="0300"/>
  <outline>
    <contour>
      <point x="-914" y="1470" type="line"/>
      <point x="-572" y="1066" type="line"/>
      <point x="-443" y="1066" type="line"/>
      <point x="-564" y="1470" type="line"/>
    </contour>
  </outline>
</glyph>
<glyph name="uni030B" format="2">
  <unicode hex="030B"/>
  <outline>
    <contour>
      <point x="-349" y="1067" type="line"/>
      <point x="-225" y="1232"/>
      <point x="-146" y="1348"/>
      <point x="-122" y="1401" type="curve"/>
      <point x="-114" y="1419"/>
      <point x="-110" y="1437"/>
      <point x="-110" y="1454" type="curve" smooth="yes"/>
      <point x="-110" y="1488"/>
      <point x="-126" y="1517"/>
      <point x="-163" y="1534" type="curve" smooth="yes"/>
      <point x="-178" y="1541"/>
      <point x="-192" y="1545"/>
      <point x="-206" y="1545" type="curve" smooth="yes"/>
      <point x="-243" y="1545"/>
      <point x="-275" y="1520"/>
      <point x="-293" y="1480" type="curve" smooth="yes"/>
      <point x="-317" y="1426"/>
      <point x="-358" y="1294"/>
      <point x="-406" y="1093" type="curve"/>
    </contour>
    <contour>
      <point x="-666" y="1067" type="line"/>
      <point x="-541" y="1232"/>
      <point x="-464" y="1348"/>
      <point x="-440" y="1401" type="curve"/>
      <point x="-431" y="1420"/>
      <point x="-426" y="1438"/>
      <point x="-426" y="1455" type="curve" smooth="yes"/>
      <point x="-426" y="1488"/>
      <point x="-444" y="1518"/>
      <point x="-481" y="1534" type="curve"/>
      <point x="-496" y="1541"/>
      <point x="-510" y="1545"/>
      <point x="-524" y="1545" type="curve" smooth="yes"/>
      <point x="-561" y="1545"/>
      <point x="-592" y="1520"/>
      <point x="-610" y="1480" type="curve" smooth="yes"/>
      <point x="-635" y="1426"/>
      <point x="-675" y="1294"/>
      <point x="-723" y="1093" type="curve"/>
    </contour>
  </outline>
</glyph>
<glyph name="uni0318" format="2">
  <unicode hex="0318"/>
  <outline>
    <contour>
      <point x="-455" y="-491" type="line"/>
      <point x="-267" y="-491" type="line"/>
      <point x="-267" y="-89" type="line"/>
      <point x="-455" y="-89" type="line"/>
      <point x="-455" y="-216" type="line"/>
      <point x="-673" y="-216" type="line"/>
      <point x="-673" y="-364" type="line"/>
      <point x="-455" y="-364" type="line"/>
    </contour>
  </outline>
</glyph>
<glyph name="uni031D" format="2">
  <unicode hex="031D"/>
  <outline>
    <contour>
      <point x="-248" y="-474" type="line"/>
      <point x="-248" y="-325" type="line"/>
      <point x="-376" y="-325" type="line"/>
      <point x="-376" y="-107" type="line"/>
      <point x="-564" y="-107" type="line"/>
      <point x="-564" y="-325" type="line"/>
      <point x="-692" y="-325" type="line"/>
      <point x="-692" y="-474" type="line"/>
    </contour>
  </outline>
</glyph>
<glyph name="uni031E" format="2">
  <unicode hex="031E"/>
  <outline>
    <contour>
      <point x="-230" y="-255" type="line"/>
      <point x="-230" y="-107" type="line"/>
      <point x="-673" y="-107" type="line"/>
      <point x="-673" y="-255" type="line"/>
      <point x="-546" y="-255" type="line"/>
      <point x="-546" y="-474" type="line"/>
      <point x="-357" y="-474" type="line"/>
      <point x="-357" y="-255" type="line"/>
    </contour>
  </outline>
</glyph>
<glyph name="uni0324" format="2">
  <advance width="2"/>
  <unicode hex="0324"/>
  <outline>
    <contour>
      <point x="-858" y="-235" type="curve" smooth="yes"/>
      <point x="-858" y="-300"/>
      <point x="-782" y="-364"/>
      <point x="-708" y="-364" type="curve"/>
      <point x="-634" y="-364"/>
      <point x="-559" y="-300"/>
      <point x="-559" y="-235" type="curve"/>
      <point x="-559" y="-171"/>
      <point x="-634" y="-107"/>
      <point x="-708" y="-107" type="curve"/>
      <point x="-782" y="-107"/>
      <point x="-858" y="-171"/>
    </contour>
    <contour>
      <point x="-366" y="-235" type="curve" smooth="yes"/>
      <point x="-366" y="-300"/>
      <point x="-292" y="-364"/>
      <point x="-217" y="-364" type="curve"/>
      <point x="-143" y="-364"/>
      <point x="-68" y="-300"/>
      <point x="-68" y="-235" type="curve"/>
      <point x="-68" y="-171"/>
      <point x="-143" y="-107"/>
      <point x="-217" y="-107" type="curve"/>
      <point x="-292" y="-107"/>
      <point x="-366" y="-171"/>
    </contour>
  </outline>
</glyph>
<glyph name="uni032A" format="2">
  <unicode hex="032A"/>
  <outline>
    <contour>
      <point x="-328" y="-510" type="line"/>
      <point x="-139" y="-510" type="line"/>
      <point x="-139" y="-107" type="line"/>
      <point x="-765" y="-107" type="line"/>
      <point x="-765" y="-510" type="line"/>
      <point x="-576" y="-510" type="line"/>
      <point x="-576" y="-255" type="line"/>
      <point x="-328" y="-255" type="line"/>
    </contour>
  </outline>
</glyph>
<glyph name="uni032D" format="2">
  <unicode hex="032D"/>
  <outline>
    <contour>
      <point x="-624" y="-98" type="line"/>
      <point x="-838" y="-449" type="line"/>
      <point x="-801" y="-449" type="line"/>
      <point x="-523" y="-225" type="line"/>
      <point x="-246" y="-449" type="line"/>
      <point x="-213" y="-449" type="line"/>
      <point x="-422" y="-98" type="line"/>
    </contour>
  </outline>
</glyph>
<glyph name="uni0330" format="2">
  <unicode hex="0330"/>
  <outline>
    <contour>
      <point x="-780" y="-437" type="line"/>
      <point x="-770" y="-378"/>
      <point x="-750" y="-291"/>
      <point x="-710" y="-291" type="curve"/>
      <point x="-688" y="-291"/>
      <point x="-641" y="-320"/>
      <point x="-592" y="-350" type="curve"/>
      <point x="-593" y="-350" type="line"/>
      <point x="-588" y="-354"/>
      <point x="-582" y="-357"/>
      <point x="-576" y="-361" type="curve"/>
      <point x="-517" y="-400"/>
      <point x="-449" y="-437"/>
      <point x="-365" y="-437" type="curve"/>
      <point x="-181" y="-437"/>
      <point x="-121" y="-270"/>
      <point x="-121" y="-125" type="curve"/>
      <point x="-225" y="-125" type="line"/>
      <point x="-236" y="-184"/>
      <point x="-256" y="-267"/>
      <point x="-296" y="-267" type="curve"/>
      <point x="-323" y="-267"/>
      <point x="-375" y="-235"/>
      <point x="-430" y="-200" type="curve"/>
      <point x="-490" y="-163"/>
      <point x="-554" y="-125"/>
      <point x="-641" y="-125" type="curve"/>
      <point x="-823" y="-125"/>
      <point x="-888" y="-287"/>
      <point x="-888" y="-437" type="curve"/>
    </contour>
  </outline>
</glyph>
<glyph name="uni033C" format="2">
  <unicode hex="033C"/>
  <outline>
    <contour>
      <point x="-711" y="-346" type="line"/>
      <point x="-689" y="-291"/>
      <point x="-661" y="-236"/>
      <point x="-616" y="-236" type="curve"/>
      <point x="-586" y="-236"/>
      <point x="-551" y="-297"/>
      <point x="-528" y="-346" type="curve"/>
      <point x="-412" y="-346" type="line"/>
      <point x="-391" y="-297"/>
      <point x="-364" y="-236"/>
      <point x="-324" y="-236" type="curve"/>
      <point x="-291" y="-236"/>
      <point x="-251" y="-291"/>
      <point x="-229" y="-346" type="curve"/>
      <point x="-117" y="-346" type="line"/>
      <point x="-139" y="-237"/>
      <point x="-207" y="-107"/>
      <point x="-324" y="-107" type="curve"/>
      <point x="-396" y="-107"/>
      <point x="-443" y="-140"/>
      <point x="-474" y="-188" type="curve"/>
      <point x="-509" y="-140"/>
      <point x="-555" y="-107"/>
      <point x="-616" y="-107" type="curve"/>
      <point x="-757" y="-107"/>
      <point x="-801" y="-237"/>
      <point x="-823" y="-346" type="curve"/>
    </contour>
  </outline>
</glyph>
<glyph name="beta" format="2">
  <advance width="1213"/>
  <unicode hex="03B2"/>
  <outline>
    <contour>
      <point x="575" y="-437" type="line"/>
      <point x="575" y="-362" type="line"/>
      <point x="447" y="-362"/>
      <point x="426" y="-317"/>
      <point x="426" y="-199" type="curve"/>
      <point x="426" y="1202" type="line"/>
      <point x="426" y="1291"/>
      <point x="475" y="1362"/>
      <point x="528" y="1362" type="curve"/>
      <point x="533" y="1362" type="line"/>
      <point x="690" y="1362"/>
      <point x="725" y="1147"/>
      <point x="725" y="1086" type="curve"/>
      <point x="725" y="1074" type="line"/>
      <point x="725" y="1003"/>
      <point x="721" y="833"/>
      <point x="593" y="812" type="curve"/>
      <point x="593" y="733" type="line"/>
      <point x="685" y="722"/>
      <point x="884" y="588"/>
      <point x="884" y="333" type="curve"/>
      <point x="884" y="151"/>
      <point x="842" y="93"/>
      <point x="779" y="93" type="curve"/>
      <point x="704" y="93"/>
      <point x="620" y="210"/>
      <point x="598" y="367" type="curve"/>
      <point x="480" y="367" type="line"/>
      <point x="480" y="0" type="line"/>
      <point x="595" y="0" type="line"/>
      <point x="599" y="15"/>
      <point x="603" y="26"/>
      <point x="604" y="26" type="curve"/>
      <point x="616" y="26"/>
      <point x="635" y="18"/>
      <point x="656" y="9" type="curve"/>
      <point x="688" y="-5"/>
      <point x="724" y="-18"/>
      <point x="775" y="-18" type="curve"/>
      <point x="1015" y="-18"/>
      <point x="1143" y="155"/>
      <point x="1143" y="383" type="curve"/>
      <point x="1143" y="677"/>
      <point x="983" y="757"/>
      <point x="812" y="799" type="curve"/>
      <point x="946" y="884"/>
      <point x="986" y="1009"/>
      <point x="986" y="1133" type="curve"/>
      <point x="986" y="1373"/>
      <point x="782" y="1470"/>
      <point x="535" y="1470" type="curve"/>
      <point x="333" y="1470"/>
      <point x="175" y="1308"/>
      <point x="175" y="1104" type="curve"/>
      <point x="175" y="-199" type="line"/>
      <point x="175" y="-317"/>
      <point x="153" y="-362"/>
      <point x="25" y="-362" type="curve"/>
      <point x="25" y="-437" type="line"/>
    </contour>
  </outline>
</glyph>
<glyph name="uni1789" format="2">
  <advance width="2138"/>
  <unicode hex="1789"/>
  <anchor x="1950" y="-598" name="L"/>
  <anchor x="1950" y="1440" name="U"/>
  <anchor x="1481" y="1440" name="um"/>
  <outline>
    <contour>
      <point x="262" y="1170" type="curve" smooth="yes"/>
      <point x="262" y="106" type="line"/>
      <point x="292" y="19"/>
      <point x="416" y="-3"/>
      <point x="502" y="-3" type="curve"/>
      <point x="701" y="34"/>
      <point x="787" y="199"/>
      <point x="787" y="289" type="curve" smooth="yes"/>
      <point x="787" y="399"/>
      <point x="671" y="452"/>
      <point x="562" y="467" type="curve"/>
      <point x="562" y="1125" type="line" smooth="yes"/>
      <point x="562" y="1159"/>
      <point x="570" y="1221"/>
      <point x="589" y="1221" type="curve" smooth="yes"/>
      <point x="622" y="1221"/>
      <point x="765" y="1092"/>
      <point x="787" y="1066" type="curve"/>
      <point x="809" y="1092"/>
      <point x="951" y="1221"/>
      <point x="985" y="1221" type="curve" smooth="yes"/>
      <point x="1004" y="1221"/>
      <point x="1012" y="1159"/>
      <point x="1012" y="1125" type="curve" smooth="yes"/>
      <point x="1012" y="0" type="line"/>
      <point x="1312" y="0" type="line"/>
      <point x="1312" y="1215" type="line"/>
      <point x="1339" y="1264"/>
      <point x="1395" y="1305"/>
      <point x="1481" y="1305" type="curve" smooth="yes"/>
      <point x="1567" y="1305"/>
      <point x="1650" y="1241"/>
      <point x="1650" y="1159" type="curve" smooth="yes"/>
      <point x="1650" y="0" type="line"/>
      <point x="1950" y="0" type="line"/>
      <point x="1950" y="1185" type="line" smooth="yes"/>
      <point x="1950" y="1327"/>
      <point x="1702" y="1440"/>
      <point x="1481" y="1440" type="curve" smooth="yes"/>
      <point x="1378" y="1440"/>
      <point x="1287" y="1398"/>
      <point x="1218" y="1350" type="curve"/>
      <point x="1163" y="1402"/>
      <point x="1093" y="1440"/>
      <point x="1031" y="1440" type="curve" smooth="yes"/>
      <point x="954" y="1440"/>
      <point x="842" y="1341"/>
      <point x="787" y="1286" type="curve"/>
      <point x="735" y="1340"/>
      <point x="617" y="1440"/>
      <point x="544" y="1440" type="curve" smooth="yes"/>
      <point x="420" y="1440"/>
      <point x="262" y="1290"/>
    </contour>
    <contour>
      <point x="1541" y="-244" type="curve" smooth="yes"/>
      <point x="1541" y="-311"/>
      <point x="1594" y="-345"/>
      <point x="1669" y="-356" type="curve"/>
      <point x="1669" y="-394"/>
      <point x="1631" y="-413"/>
      <point x="1590" y="-413" type="curve" smooth="yes"/>
      <point x="1470" y="-413"/>
      <point x="1354" y="-383"/>
      <point x="1219" y="-300" type="curve" smooth="yes"/>
      <point x="1102" y="-229"/>
      <point x="960" y="-150"/>
      <point x="795" y="-150" type="curve" smooth="yes"/>
      <point x="547" y="-150"/>
      <point x="435" y="-338"/>
      <point x="409" y="-469" type="curve"/>
      <point x="540" y="-356"/>
      <point x="652" y="-319"/>
      <point x="754" y="-319" type="curve" smooth="yes"/>
      <point x="836" y="-319"/>
      <point x="1016" y="-416"/>
      <point x="1122" y="-479" type="curve" smooth="yes"/>
      <point x="1230" y="-544"/>
      <point x="1391" y="-600"/>
      <point x="1575" y="-600" type="curve" smooth="yes"/>
      <point x="1830" y="-600"/>
      <point x="1950" y="-506"/>
      <point x="1950" y="-326" type="curve" smooth="yes"/>
      <point x="1950" y="-203"/>
      <point x="1860" y="-131"/>
      <point x="1714" y="-131" type="curve" smooth="yes"/>
      <point x="1616" y="-131"/>
      <point x="1541" y="-169"/>
    </contour>
    <contour>
      <point x="682" y="289" type="curve" smooth="yes"/>
      <point x="682" y="238"/>
      <point x="615" y="162"/>
      <point x="562" y="147" type="curve"/>
      <point x="562" y="381" type="line"/>
      <point x="610" y="379"/>
      <point x="682" y="344"/>
    </contour>
  </outline>
</glyph>
<glyph name="uni178E" format="2">
  <advance width="2550"/>
  <unicode hex="178E"/>
  <anchor x="2362" y="0" name="L"/>
  <anchor x="2362" y="1440" name="U"/>
  <anchor x="1309" y="0" name="lm"/>
  <anchor x="1912" y="1440" name="um"/>
  <outline>
    <contour>
      <point x="262" y="1252" type="curve" smooth="yes"/>
      <point x="262" y="106" type="line"/>
      <point x="292" y="19"/>
      <point x="416" y="-3"/>
      <point x="502" y="-3" type="curve"/>
      <point x="701" y="34"/>
      <point x="787" y="199"/>
      <point x="787" y="289" type="curve" smooth="yes"/>
      <point x="787" y="399"/>
      <point x="671" y="452"/>
      <point x="562" y="467" type="curve"/>
      <point x="562" y="1234" type="line" smooth="yes"/>
      <point x="562" y="1279"/>
      <point x="652" y="1309"/>
      <point x="712" y="1309" type="curve" smooth="yes"/>
      <point x="772" y="1309"/>
      <point x="862" y="1279"/>
      <point x="862" y="1234" type="curve" smooth="yes"/>
      <point x="862" y="79" type="line" smooth="yes"/>
      <point x="862" y="37"/>
      <point x="934" y="0"/>
      <point x="1005" y="0" type="curve" smooth="yes"/>
      <point x="1087" y="0" type="line" smooth="yes"/>
      <point x="1200" y="0"/>
      <point x="1252" y="52"/>
      <point x="1309" y="150" type="curve"/>
      <point x="1365" y="52"/>
      <point x="1425" y="0"/>
      <point x="1537" y="0" type="curve" smooth="yes"/>
      <point x="1620" y="0" type="line" smooth="yes"/>
      <point x="1691" y="0"/>
      <point x="1762" y="37"/>
      <point x="1762" y="79" type="curve" smooth="yes"/>
      <point x="1762" y="1234" type="line" smooth="yes"/>
      <point x="1762" y="1279"/>
      <point x="1852" y="1305"/>
      <point x="1912" y="1305" type="curve" smooth="yes"/>
      <point x="1972" y="1305"/>
      <point x="2062" y="1279"/>
      <point x="2062" y="1234" type="curve" smooth="yes"/>
      <point x="2062" y="0" type="line"/>
      <point x="2362" y="0" type="line"/>
      <point x="2362" y="1252" type="line" smooth="yes"/>
      <point x="2362" y="1346"/>
      <point x="2119" y="1440"/>
      <point x="1912" y="1440" type="curve" smooth="yes"/>
      <point x="1706" y="1440"/>
      <point x="1462" y="1346"/>
      <point x="1462" y="1252" type="curve" smooth="yes"/>
      <point x="1462" y="277" type="line" smooth="yes"/>
      <point x="1462" y="262"/>
      <point x="1462" y="251"/>
      <point x="1451" y="251" type="curve" smooth="yes"/>
      <point x="1406" y="251"/>
      <point x="1339" y="375"/>
      <point x="1312" y="375" type="curve" smooth="yes"/>
      <point x="1286" y="375"/>
      <point x="1215" y="251"/>
      <point x="1170" y="251" type="curve" smooth="yes"/>
      <point x="1162" y="251"/>
      <point x="1162" y="262"/>
      <point x="1162" y="277" type="curve" smooth="yes"/>
      <point x="1162" y="1252" type="line" smooth="yes"/>
      <point x="1162" y="1346"/>
      <point x="919" y="1440"/>
      <point x="712" y="1440" type="curve" smooth="yes"/>
      <point x="506" y="1440"/>
      <point x="262" y="1346"/>
    </contour>
    <contour>
      <point x="682" y="289" type="curve" smooth="yes"/>
      <point x="682" y="238"/>
      <point x="615" y="162"/>
      <point x="562" y="147" type="curve"/>
      <point x="562" y="381" type="line"/>
      <point x="610" y="379"/>
      <point x="682" y="344"/>
    </contour>
  </outline>
</glyph>
<glyph name="uni179E" format="2">
  <advance width="1500"/>
  <unicode hex="179E"/>
  <anchor x="1312" y="0" name="L"/>
  <anchor x="1312" y="1440" name="U"/>
  <anchor x="787" y="0" name="lm"/>
  <anchor x="787" y="1440" name="um"/>
  <outline>
    <contour>
      <point x="1011" y="682" type="curve"/>
      <point x="993" y="694"/>
      <point x="964" y="701"/>
      <point x="926" y="701" type="curve" smooth="yes"/>
      <point x="851" y="701"/>
      <point x="776" y="649"/>
      <point x="776" y="577" type="curve" smooth="yes"/>
      <point x="776" y="472"/>
      <point x="859" y="401"/>
      <point x="1012" y="401" type="curve"/>
      <point x="1012" y="225" type="line" smooth="yes"/>
      <point x="1012" y="169"/>
      <point x="881" y="131"/>
      <point x="787" y="131" type="curve" smooth="yes"/>
      <point x="694" y="131"/>
      <point x="562" y="169"/>
      <point x="562" y="225" type="curve" smooth="yes"/>
      <point x="562" y="870" type="line" smooth="yes"/>
      <point x="562" y="937"/>
      <point x="491" y="997"/>
      <point x="375" y="1057" type="curve" smooth="yes"/>
      <point x="322" y="1084"/>
      <point x="221" y="1144"/>
      <point x="221" y="1174" type="curve" smooth="yes"/>
      <point x="221" y="1207"/>
      <point x="244" y="1215"/>
      <point x="289" y="1215" type="curve" smooth="yes"/>
      <point x="379" y="1215"/>
      <point x="461" y="1125"/>
      <point x="540" y="1125" type="curve" smooth="yes"/>
      <point x="656" y="1125"/>
      <point x="720" y="1192"/>
      <point x="731" y="1399" type="curve"/>
      <point x="705" y="1365"/>
      <point x="634" y="1350"/>
      <point x="589" y="1350" type="curve" smooth="yes"/>
      <point x="502" y="1350"/>
      <point x="442" y="1440"/>
      <point x="311" y="1440" type="curve" smooth="yes"/>
      <point x="187" y="1440"/>
      <point x="94" y="1301"/>
      <point x="94" y="1181" type="curve" smooth="yes"/>
      <point x="94" y="1121"/>
      <point x="120" y="1072"/>
      <point x="214" y="1009" type="curve" smooth="yes"/>
      <point x="236" y="994"/>
      <point x="262" y="964"/>
      <point x="262" y="907" type="curve" smooth="yes"/>
      <point x="262" y="206" type="line" smooth="yes"/>
      <point x="262" y="94"/>
      <point x="562" y="0"/>
      <point x="787" y="0" type="curve" smooth="yes"/>
      <point x="1012" y="0"/>
      <point x="1312" y="94"/>
      <point x="1312" y="206" type="curve" smooth="yes"/>
      <point x="1312" y="477" type="line"/>
      <point x="1419" y="527"/>
      <point x="1500" y="678"/>
      <point x="1500" y="709" type="curve" smooth="yes"/>
      <point x="1500" y="712"/>
      <point x="1496" y="716"/>
      <point x="1492" y="716" type="curve" smooth="yes"/>
      <point x="1475" y="716"/>
      <point x="1373" y="667"/>
      <point x="1312" y="639" type="curve"/>
      <point x="1312" y="870" type="line" smooth="yes"/>
      <point x="1312" y="937"/>
      <point x="1241" y="997"/>
      <point x="1125" y="1057" type="curve" smooth="yes"/>
      <point x="1072" y="1084"/>
      <point x="971" y="1144"/>
      <point x="971" y="1174" type="curve" smooth="yes"/>
      <point x="971" y="1207"/>
      <point x="994" y="1215"/>
      <point x="1039" y="1215" type="curve" smooth="yes"/>
      <point x="1129" y="1215"/>
      <point x="1211" y="1125"/>
      <point x="1290" y="1125" type="curve" smooth="yes"/>
      <point x="1406" y="1125"/>
      <point x="1470" y="1192"/>
      <point x="1481" y="1399" type="curve"/>
      <point x="1455" y="1365"/>
      <point x="1384" y="1350"/>
      <point x="1339" y="1350" type="curve" smooth="yes"/>
      <point x="1252" y="1350"/>
      <point x="1192" y="1440"/>
      <point x="1061" y="1440" type="curve" smooth="yes"/>
      <point x="937" y="1440"/>
      <point x="844" y="1301"/>
      <point x="844" y="1181" type="curve" smooth="yes"/>
      <point x="844" y="1121"/>
      <point x="870" y="1072"/>
      <point x="964" y="1009" type="curve" smooth="yes"/>
      <point x="986" y="994"/>
      <point x="1012" y="964"/>
      <point x="1012" y="907" type="curve" smooth="yes"/>
      <point x="1012" y="586" type="line"/>
      <point x="983" y="590"/>
      <point x="967" y="604"/>
      <point x="967" y="626" type="curve" smooth="yes"/>
      <point x="967" y="645"/>
      <point x="993" y="671"/>
    </contour>
  </outline>
</glyph>
<glyph name="uni17A1" format="2">
  <advance width="1950"/>
  <unicode hex="17A1"/>
  <anchor x="1762" y="-713" name="L"/>
  <anchor x="1762" y="1440" name="U"/>
  <anchor x="1263" y="1440" name="um"/>
  <outline>
    <contour>
      <point x="1012" y="-255" type="line"/>
      <point x="982" y="-173"/>
      <point x="892" y="-150"/>
      <point x="772" y="-150" type="curve"/>
      <point x="660" y="-173"/>
      <point x="600" y="-225"/>
      <point x="600" y="-281" type="curve" smooth="yes"/>
      <point x="600" y="-334"/>
      <point x="656" y="-379"/>
      <point x="712" y="-390" type="curve"/>
      <point x="712" y="-630" type="line" smooth="yes"/>
      <point x="712" y="-668"/>
      <point x="783" y="-713"/>
      <point x="855" y="-713" type="curve" smooth="yes"/>
      <point x="937" y="-713" type="line" smooth="yes"/>
      <point x="1016" y="-713"/>
      <point x="1097" y="-666"/>
      <point x="1140" y="-626" type="curve" smooth="yes"/>
      <point x="1180" y="-589"/>
      <point x="1222" y="-555"/>
      <point x="1237" y="-555" type="curve" smooth="yes"/>
      <point x="1252" y="-555"/>
      <point x="1295" y="-589"/>
      <point x="1335" y="-626" type="curve" smooth="yes"/>
      <point x="1377" y="-664"/>
      <point x="1458" y="-713"/>
      <point x="1537" y="-713" type="curve" smooth="yes"/>
      <point x="1620" y="-713" type="line" smooth="yes"/>
      <point x="1691" y="-713"/>
      <point x="1762" y="-668"/>
      <point x="1762" y="-630" type="curve" smooth="yes"/>
      <point x="1762" y="870" type="line" smooth="yes"/>
      <point x="1762" y="937"/>
      <point x="1691" y="997"/>
      <point x="1575" y="1057" type="curve" smooth="yes"/>
      <point x="1522" y="1084"/>
      <point x="1421" y="1144"/>
      <point x="1421" y="1174" type="curve" smooth="yes"/>
      <point x="1421" y="1207"/>
      <point x="1443" y="1215"/>
      <point x="1488" y="1215" type="curve" smooth="yes"/>
      <point x="1578" y="1215"/>
      <point x="1661" y="1125"/>
      <point x="1740" y="1125" type="curve" smooth="yes"/>
      <point x="1856" y="1125"/>
      <point x="1920" y="1192"/>
      <point x="1931" y="1399" type="curve"/>
      <point x="1905" y="1365"/>
      <point x="1833" y="1350"/>
      <point x="1788" y="1350" type="curve" smooth="yes"/>
      <point x="1702" y="1350"/>
      <point x="1642" y="1440"/>
      <point x="1511" y="1440" type="curve" smooth="yes"/>
      <point x="1387" y="1440"/>
      <point x="1293" y="1301"/>
      <point x="1293" y="1181" type="curve" smooth="yes"/>
      <point x="1293" y="1121"/>
      <point x="1320" y="1072"/>
      <point x="1413" y="1009" type="curve" smooth="yes"/>
      <point x="1436" y="994"/>
      <point x="1462" y="964"/>
      <point x="1462" y="907" type="curve" smooth="yes"/>
      <point x="1462" y="-510" type="line"/>
      <point x="1451" y="-510"/>
      <point x="1399" y="-464"/>
      <point x="1357" y="-424" type="curve" smooth="yes"/>
      <point x="1309" y="-379"/>
      <point x="1267" y="-349"/>
      <point x="1237" y="-349" type="curve" smooth="yes"/>
      <point x="1207" y="-349"/>
      <point x="1165" y="-379"/>
      <point x="1117" y="-424" type="curve" smooth="yes"/>
      <point x="1075" y="-464"/>
      <point x="1023" y="-510"/>
      <point x="1012" y="-510" type="curve"/>
    </contour>
    <contour>
      <point x="727" y="213" type="line" smooth="yes"/>
      <point x="727" y="157"/>
      <point x="694" y="131"/>
      <point x="650" y="131" type="curve" smooth="yes"/>
      <point x="607" y="131"/>
      <point x="573" y="157"/>
      <point x="573" y="213" type="curve" smooth="yes"/>
      <point x="573" y="439" type="line"/>
      <point x="291" y="439" type="line"/>
      <point x="291" y="199" type="line" smooth="yes"/>
      <point x="291" y="95"/>
      <point x="422" y="0"/>
      <point x="650" y="0" type="curve" smooth="yes"/>
      <point x="882" y="0"/>
      <point x="1009" y="95"/>
      <point x="1009" y="199" type="curve" smooth="yes"/>
      <point x="1009" y="457" type="line"/>
      <point x="1158" y="468"/>
      <point x="1252" y="560"/>
      <point x="1252" y="671" type="curve" smooth="yes"/>
      <point x="1252" y="784"/>
      <point x="1139" y="870"/>
      <point x="990" y="870" type="curve" smooth="yes"/>
      <point x="799" y="870"/>
      <point x="730" y="746"/>
      <point x="727" y="634" type="curve"/>
      <point x="591" y="666"/>
      <point x="444" y="810"/>
      <point x="444" y="956" type="curve" smooth="yes"/>
      <point x="444" y="1129"/>
      <point x="541" y="1271"/>
      <point x="755" y="1271" type="curve" smooth="yes"/>
      <point x="875" y="1271"/>
      <point x="930" y="1233"/>
      <point x="930" y="1204" type="curve"/>
      <point x="911" y="1207"/>
      <point x="891" y="1211"/>
      <point x="864" y="1211" type="curve" smooth="yes"/>
      <point x="763" y="1211"/>
      <point x="687" y="1170"/>
      <point x="687" y="1095" type="curve" smooth="yes"/>
      <point x="687" y="1009"/>
      <point x="801" y="956"/>
      <point x="909" y="956" type="curve" smooth="yes"/>
      <point x="1052" y="956"/>
      <point x="1212" y="1032"/>
      <point x="1212" y="1196" type="curve" smooth="yes"/>
      <point x="1212" y="1312"/>
      <point x="1085" y="1440"/>
      <point x="755" y="1440" type="curve" smooth="yes"/>
      <point x="376" y="1440"/>
      <point x="162" y="1260"/>
      <point x="162" y="956" type="curve" smooth="yes"/>
      <point x="162" y="664"/>
      <point x="475" y="477"/>
      <point x="727" y="457" type="curve"/>
    </contour>
    <contour>
      <point x="1009" y="606" type="line"/>
      <point x="1009" y="656" type="line" smooth="yes"/>
      <point x="1009" y="685"/>
      <point x="1024" y="720"/>
      <point x="1054" y="720" type="curve" smooth="yes"/>
      <point x="1082" y="720"/>
      <point x="1102" y="699"/>
      <point x="1102" y="671" type="curve" smooth="yes"/>
      <point x="1102" y="633"/>
      <point x="1066" y="606"/>
      <point x="1026" y="606" type="curve" smooth="yes"/>
    </contour>
  </outline>
</glyph>
<glyph name="uni17AE" format="2">
  <advance width="1500"/>
  <unicode hex="17AE"/>
  <anchor x="1312" y="-630" name="L"/>
  <anchor x="1312" y="1440" name="U"/>
  <anchor x="787" y="-630" name="lm"/>
  <anchor x="787" y="1440" name="um"/>
  <outline>
    <contour>
      <point x="262" y="1170" type="curve"/>
      <point x="262" y="106" type="line"/>
      <point x="292" y="19"/>
      <point x="416" y="-3"/>
      <point x="502" y="-3" type="curve"/>
      <point x="701" y="34"/>
      <point x="787" y="199"/>
      <point x="787" y="289" type="curve" smooth="yes"/>
      <point x="787" y="399"/>
      <point x="671" y="452"/>
      <point x="562" y="467" type="curve"/>
      <point x="562" y="1125" type="line" smooth="yes"/>
      <point x="562" y="1159"/>
      <point x="570" y="1221"/>
      <point x="589" y="1221" type="curve" smooth="yes"/>
      <point x="622" y="1221"/>
      <point x="765" y="1092"/>
      <point x="787" y="1066" type="curve"/>
      <point x="809" y="1092"/>
      <point x="951" y="1221"/>
      <point x="985" y="1221" type="curve" smooth="yes"/>
      <point x="1004" y="1221"/>
      <point x="1012" y="1159"/>
      <point x="1012" y="1125" type="curve" smooth="yes"/>
      <point x="1012" y="0" type="line"/>
      <point x="1312" y="0" type="line"/>
      <point x="1312" y="1170" type="line" smooth="yes"/>
      <point x="1312" y="1290"/>
      <point x="1155" y="1440"/>
      <point x="1031" y="1440" type="curve" smooth="yes"/>
      <point x="979" y="1440"/>
      <point x="930" y="1406"/>
      <point x="877" y="1365" type="curve" smooth="yes"/>
      <point x="844" y="1339"/>
      <point x="810" y="1309"/>
      <point x="787" y="1286" type="curve"/>
      <point x="765" y="1309"/>
      <point x="731" y="1339"/>
      <point x="697" y="1365" type="curve" smooth="yes"/>
      <point x="645" y="1406"/>
      <point x="592" y="1440"/>
      <point x="544" y="1440" type="curve" smooth="yes"/>
      <point x="420" y="1440"/>
      <point x="262" y="1290"/>
    </contour>
    <contour>
      <point x="911" y="-248" type="curve" smooth="yes"/>
      <point x="911" y="-319"/>
      <point x="979" y="-364"/>
      <point x="1035" y="-371" type="curve"/>
      <point x="1035" y="-424"/>
      <point x="1012" y="-450"/>
      <point x="975" y="-450" type="curve" smooth="yes"/>
      <point x="922" y="-450"/>
      <point x="859" y="-386"/>
      <point x="795" y="-311" type="curve" smooth="yes"/>
      <point x="716" y="-218"/>
      <point x="619" y="-150"/>
      <point x="476" y="-150" type="curve" smooth="yes"/>
      <point x="289" y="-150"/>
      <point x="169" y="-304"/>
      <point x="157" y="-461" type="curve"/>
      <point x="247" y="-341"/>
      <point x="345" y="-300"/>
      <point x="435" y="-300" type="curve" smooth="yes"/>
      <point x="510" y="-300"/>
      <point x="600" y="-379"/>
      <point x="659" y="-451" type="curve" smooth="yes"/>
      <point x="746" y="-555"/>
      <point x="855" y="-600"/>
      <point x="979" y="-600" type="curve" smooth="yes"/>
      <point x="1042" y="-600"/>
      <point x="1087" y="-593"/>
      <point x="1121" y="-578" type="curve"/>
      <point x="1147" y="-600"/>
      <point x="1207" y="-630"/>
      <point x="1294" y="-630" type="curve" smooth="yes"/>
      <point x="1429" y="-630"/>
      <point x="1470" y="-555"/>
      <point x="1500" y="-450" type="curve"/>
      <point x="1462" y="-495"/>
      <point x="1402" y="-499"/>
      <point x="1365" y="-499" type="curve" smooth="yes"/>
      <point x="1339" y="-499"/>
      <point x="1297" y="-480"/>
      <point x="1286" y="-465" type="curve"/>
      <point x="1320" y="-416"/>
      <point x="1339" y="-364"/>
      <point x="1339" y="-289" type="curve" smooth="yes"/>
      <point x="1339" y="-184"/>
      <point x="1245" y="-131"/>
      <point x="1117" y="-131" type="curve" smooth="yes"/>
      <point x="1009" y="-131"/>
      <point x="911" y="-169"/>
    </contour>
    <contour>
      <point x="682" y="289" type="curve" smooth="yes"/>
      <point x="682" y="238"/>
      <point x="615" y="162"/>
      <point x="562" y="147" type="curve"/>
      <point x="562" y="381" type="line"/>
      <point x="610" y="379"/>
      <point x="682" y="344"/>
    </contour>
  </outline>
</glyph>
<glyph name="uni17AF" format="2">
  <advance width="1538"/>
  <unicode hex="17AF"/>
  <anchor x="1350" y="0" name="L"/>
  <anchor x="1350" y="1740" name="U"/>
  <anchor x="825" y="0" name="lm"/>
  <anchor x="825" y="1740" name="um"/>
  <outline>
    <contour>
      <point x="300" y="82" type="line"/>
      <point x="300" y="41"/>
      <point x="360" y="0"/>
      <point x="420" y="0" type="curve" smooth="yes"/>
      <point x="544" y="0" type="line" smooth="yes"/>
      <point x="592" y="0"/>
      <point x="667" y="46"/>
      <point x="709" y="82" type="curve" smooth="yes"/>
      <point x="748" y="116"/>
      <point x="805" y="159"/>
      <point x="825" y="159" type="curve" smooth="yes"/>
      <point x="845" y="159"/>
      <point x="902" y="116"/>
      <point x="941" y="82" type="curve" smooth="yes"/>
      <point x="983" y="46"/>
      <point x="1057" y="0"/>
      <point x="1106" y="0" type="curve" smooth="yes"/>
      <point x="1230" y="0" type="line" smooth="yes"/>
      <point x="1290" y="0"/>
      <point x="1350" y="41"/>
      <point x="1350" y="82" type="curve" smooth="yes"/>
      <point x="1350" y="1196" type="line" smooth="yes"/>
      <point x="1350" y="1384"/>
      <point x="1031" y="1440"/>
      <point x="885" y="1440" type="curve" smooth="yes"/>
      <point x="750" y="1440"/>
      <point x="664" y="1410"/>
      <point x="581" y="1361" type="curve"/>
      <point x="581" y="1447"/>
      <point x="697" y="1526"/>
      <point x="697" y="1597" type="curve" smooth="yes"/>
      <point x="697" y="1672"/>
      <point x="592" y="1740"/>
      <point x="487" y="1740" type="curve" smooth="yes"/>
      <point x="416" y="1740"/>
      <point x="356" y="1721"/>
      <point x="334" y="1702" type="curve"/>
      <point x="394" y="1702"/>
      <point x="416" y="1627"/>
      <point x="416" y="1601" type="curve" smooth="yes"/>
      <point x="416" y="1549"/>
      <point x="300" y="1455"/>
      <point x="300" y="1361" type="curve" smooth="yes"/>
      <point x="300" y="1226"/>
      <point x="386" y="1170"/>
      <point x="484" y="1170" type="curve" smooth="yes"/>
      <point x="619" y="1170"/>
      <point x="652" y="1309"/>
      <point x="877" y="1309" type="curve" smooth="yes"/>
      <point x="952" y="1309"/>
      <point x="1050" y="1260"/>
      <point x="1050" y="1170" type="curve" smooth="yes"/>
      <point x="1050" y="274" type="line"/>
      <point x="1050" y="232"/>
      <point x="1045" y="199"/>
      <point x="1035" y="199" type="curve" smooth="yes"/>
      <point x="1028" y="199"/>
      <point x="997" y="221"/>
      <point x="952" y="259" type="curve" smooth="yes"/>
      <point x="909" y="295"/>
      <point x="863" y="319"/>
      <point x="825" y="319" type="curve" smooth="yes"/>
      <point x="787" y="319"/>
      <point x="738" y="294"/>
      <point x="697" y="259" type="curve" smooth="yes"/>
      <point x="652" y="221"/>
      <point x="622" y="199"/>
      <point x="615" y="199" type="curve" smooth="yes"/>
      <point x="605" y="199"/>
      <point x="600" y="232"/>
      <point x="600" y="274" type="curve" smooth="yes"/>
      <point x="600" y="806" type="line"/>
      <point x="570" y="892"/>
      <point x="446" y="915"/>
      <point x="360" y="915" type="curve"/>
      <point x="154" y="870"/>
      <point x="75" y="735"/>
      <point x="75" y="652" type="curve" smooth="yes"/>
      <point x="75" y="536"/>
      <point x="150" y="487"/>
      <point x="187" y="487" type="curve" smooth="yes"/>
      <point x="221" y="487"/>
      <point x="244" y="514"/>
      <point x="244" y="532" type="curve" smooth="yes"/>
      <point x="244" y="577"/>
      <point x="206" y="589"/>
      <point x="206" y="626" type="curve" smooth="yes"/>
      <point x="206" y="667"/>
      <point x="262" y="716"/>
      <point x="300" y="727" type="curve"/>
    </contour>
  </outline>
</glyph>
<glyph name="uni17C3" format="2">
  <advance width="750"/>
  <unicode hex="17C3"/>
  <outline>
    <contour>
      <point x="446" y="1590" type="curve" smooth="yes"/>
      <point x="630" y="1590"/>
      <point x="750" y="1691"/>
      <point x="750" y="1822" type="curve" smooth="yes"/>
      <point x="750" y="1912"/>
      <point x="682" y="2089"/>
      <point x="435" y="2107" type="curve" smooth="yes"/>
      <point x="386" y="2111"/>
      <point x="319" y="2160"/>
      <point x="319" y="2231" type="curve" smooth="yes"/>
      <point x="319" y="2310"/>
      <point x="244" y="2404"/>
      <point x="0" y="2415" type="curve"/>
      <point x="49" y="2377"/>
      <point x="75" y="2325"/>
      <point x="75" y="2261" type="curve" smooth="yes"/>
      <point x="75" y="2085"/>
      <point x="191" y="1969"/>
      <point x="390" y="1941" type="curve" smooth="yes"/>
      <point x="461" y="1931"/>
      <point x="506" y="1871"/>
      <point x="506" y="1822" type="curve" smooth="yes"/>
      <point x="506" y="1777"/>
      <point x="476" y="1752"/>
      <point x="446" y="1752" type="curve" smooth="yes"/>
      <point x="416" y="1752"/>
      <point x="394" y="1770"/>
      <point x="382" y="1789" type="curve"/>
      <point x="364" y="1830"/>
      <point x="326" y="1849"/>
      <point x="274" y="1849" type="curve" smooth="yes"/>
      <point x="214" y="1849"/>
      <point x="150" y="1807"/>
      <point x="150" y="1762" type="curve" smooth="yes"/>
      <point x="150" y="1684"/>
      <point x="244" y="1590"/>
    </contour>
    <contour>
      <point x="562" y="490" type="line"/>
      <point x="562" y="870" type="line" smooth="yes"/>
      <point x="562" y="937"/>
      <point x="491" y="997"/>
      <point x="375" y="1057" type="curve" smooth="yes"/>
      <point x="322" y="1084"/>
      <point x="221" y="1144"/>
      <point x="221" y="1174" type="curve" smooth="yes"/>
      <point x="221" y="1207"/>
      <point x="244" y="1215"/>
      <point x="289" y="1215" type="curve" smooth="yes"/>
      <point x="379" y="1215"/>
      <point x="461" y="1125"/>
      <point x="540" y="1125" type="curve" smooth="yes"/>
      <point x="656" y="1125"/>
      <point x="720" y="1192"/>
      <point x="731" y="1399" type="curve"/>
      <point x="705" y="1365"/>
      <point x="634" y="1350"/>
      <point x="589" y="1350" type="curve" smooth="yes"/>
      <point x="502" y="1350"/>
      <point x="442" y="1440"/>
      <point x="311" y="1440" type="curve" smooth="yes"/>
      <point x="187" y="1440"/>
      <point x="94" y="1301"/>
      <point x="94" y="1181" type="curve" smooth="yes"/>
      <point x="94" y="1121"/>
      <point x="120" y="1072"/>
      <point x="214" y="1009" type="curve" smooth="yes"/>
      <point x="236" y="994"/>
      <point x="262" y="964"/>
      <point x="262" y="907" type="curve" smooth="yes"/>
      <point x="262" y="415" type="line"/>
    </contour>
    <contour>
      <point x="262" y="581" type="line"/>
      <point x="262" y="106" type="line"/>
      <point x="292" y="19"/>
      <point x="416" y="-3"/>
      <point x="502" y="-3" type="curve"/>
      <point x="701" y="34"/>
      <point x="787" y="199"/>
      <point x="787" y="289" type="curve" smooth="yes"/>
      <point x="787" y="399"/>
      <point x="671" y="452"/>
      <point x="562" y="467" type="curve"/>
      <point x="562" y="610" type="line"/>
    </contour>
    <contour>
      <point x="682" y="289" type="curve" smooth="yes"/>
      <point x="682" y="238"/>
      <point x="615" y="162"/>
      <point x="562" y="147" type="curve"/>
      <point x="562" y="381" type="line"/>
      <point x="610" y="379"/>
      <point x="682" y="344"/>
    </contour>
  </outline>
</glyph>
<glyph name="uni17C6" format="2">
  <unicode hex="17C6"/>
  <guideline x="-1013" y="0" angle="90"/>
  <guideline x="-413" y="0" angle="90"/>
  <guideline x="-713" y="0" angle="90"/>
  <anchor x="-188" y="2020" name="U"/>
  <anchor x="-713" y="1440" name="_um"/>
  <anchor x="-713" y="2020" name="um"/>
  <outline>
    <contour>
      <point x="-1013" y="1815" type="curve" smooth="yes"/>
      <point x="-1013" y="1684"/>
      <point x="-896" y="1590"/>
      <point x="-713" y="1590" type="curve" smooth="yes"/>
      <point x="-529" y="1590"/>
      <point x="-413" y="1684"/>
      <point x="-413" y="1815" type="curve" smooth="yes"/>
      <point x="-413" y="1946"/>
      <point x="-529" y="2040"/>
      <point x="-713" y="2040" type="curve" smooth="yes"/>
      <point x="-896" y="2040"/>
      <point x="-1013" y="1946"/>
    </contour>
    <contour>
      <point x="-779" y="1815" type="curve" smooth="yes"/>
      <point x="-779" y="1857"/>
      <point x="-748" y="1890"/>
      <point x="-713" y="1890" type="curve" smooth="yes"/>
      <point x="-678" y="1890"/>
      <point x="-647" y="1857"/>
      <point x="-647" y="1815" type="curve" smooth="yes"/>
      <point x="-647" y="1774"/>
      <point x="-678" y="1740"/>
      <point x="-713" y="1740" type="curve" smooth="yes"/>
      <point x="-748" y="1740"/>
      <point x="-779" y="1774"/>
    </contour>
  </outline>
</glyph>
<glyph name="uni17D8" format="2">
  <advance width="5850"/>
  <unicode hex="17D8"/>
  <outline>
    <contour>
      <point x="2756" y="1234" type="line" smooth="yes"/>
      <point x="2756" y="1279"/>
      <point x="2846" y="1309"/>
      <point x="2906" y="1309" type="curve" smooth="yes"/>
      <point x="2966" y="1309"/>
      <point x="3056" y="1279"/>
      <point x="3056" y="1234" type="curve" smooth="yes"/>
      <point x="3056" y="187" type="line" smooth="yes"/>
      <point x="3056" y="94"/>
      <point x="3300" y="0"/>
      <point x="3506" y="0" type="curve" smooth="yes"/>
      <point x="3712" y="0"/>
      <point x="3956" y="94"/>
      <point x="3956" y="187" type="curve" smooth="yes"/>
      <point x="3956" y="870" type="line" smooth="yes"/>
      <point x="3956" y="937"/>
      <point x="3885" y="997"/>
      <point x="3769" y="1057" type="curve" smooth="yes"/>
      <point x="3716" y="1084"/>
      <point x="3615" y="1144"/>
      <point x="3615" y="1174" type="curve" smooth="yes"/>
      <point x="3615" y="1207"/>
      <point x="3637" y="1215"/>
      <point x="3682" y="1215" type="curve" smooth="yes"/>
      <point x="3772" y="1215"/>
      <point x="3855" y="1125"/>
      <point x="3934" y="1125" type="curve" smooth="yes"/>
      <point x="4050" y="1125"/>
      <point x="4114" y="1192"/>
      <point x="4125" y="1399" type="curve"/>
      <point x="4099" y="1365"/>
      <point x="4027" y="1350"/>
      <point x="3982" y="1350" type="curve" smooth="yes"/>
      <point x="3896" y="1350"/>
      <point x="3836" y="1440"/>
      <point x="3705" y="1440" type="curve" smooth="yes"/>
      <point x="3581" y="1440"/>
      <point x="3487" y="1301"/>
      <point x="3487" y="1181" type="curve" smooth="yes"/>
      <point x="3487" y="1121"/>
      <point x="3514" y="1072"/>
      <point x="3607" y="1009" type="curve" smooth="yes"/>
      <point x="3630" y="994"/>
      <point x="3656" y="964"/>
      <point x="3656" y="907" type="curve" smooth="yes"/>
      <point x="3656" y="206" type="line" smooth="yes"/>
      <point x="3656" y="161"/>
      <point x="3566" y="131"/>
      <point x="3506" y="131" type="curve" smooth="yes"/>
      <point x="3446" y="131"/>
      <point x="3356" y="161"/>
      <point x="3356" y="206" type="curve" smooth="yes"/>
      <point x="3356" y="1252" type="line" smooth="yes"/>
      <point x="3356" y="1346"/>
      <point x="3112" y="1440"/>
      <point x="2906" y="1440" type="curve" smooth="yes"/>
      <point x="2700" y="1440"/>
      <point x="2456" y="1346"/>
      <point x="2456" y="1252" type="curve" smooth="yes"/>
      <point x="2456" y="106" type="line"/>
      <point x="2486" y="19"/>
      <point x="2610" y="-3"/>
      <point x="2696" y="-3" type="curve"/>
      <point x="2895" y="34"/>
      <point x="2981" y="199"/>
      <point x="2981" y="289" type="curve" smooth="yes"/>
      <point x="2981" y="399"/>
      <point x="2865" y="452"/>
      <point x="2756" y="467" type="curve"/>
    </contour>
    <contour>
      <point x="5175" y="0" type="line"/>
      <point x="5550" y="0" type="line"/>
      <point x="5550" y="1440" type="line"/>
      <point x="5175" y="1440" type="line"/>
      <point x="5175" y="1354"/>
      <point x="5089" y="1129"/>
      <point x="4987" y="1129" type="curve" smooth="yes"/>
      <point x="4935" y="1129"/>
      <point x="4916" y="1174"/>
      <point x="4916" y="1200" type="curve"/>
      <point x="4991" y="1222"/>
      <point x="5059" y="1271"/>
      <point x="5059" y="1350" type="curve" smooth="yes"/>
      <point x="5059" y="1425"/>
      <point x="4991" y="1496"/>
      <point x="4856" y="1496" type="curve" smooth="yes"/>
      <point x="4725" y="1496"/>
      <point x="4594" y="1414"/>
      <point x="4594" y="1237" type="curve" smooth="yes"/>
      <point x="4594" y="1106"/>
      <point x="4729" y="971"/>
      <point x="4927" y="971" type="curve" smooth="yes"/>
      <point x="5014" y="971"/>
      <point x="5107" y="1009"/>
      <point x="5175" y="1069" type="curve"/>
    </contour>
    <contour>
      <point x="1406" y="0" type="line"/>
      <point x="1781" y="0" type="line"/>
      <point x="1781" y="1440" type="line"/>
      <point x="1406" y="1440" type="line"/>
      <point x="1406" y="1354"/>
      <point x="1320" y="1129"/>
      <point x="1219" y="1129" type="curve" smooth="yes"/>
      <point x="1166" y="1129"/>
      <point x="1147" y="1174"/>
      <point x="1147" y="1200" type="curve"/>
      <point x="1222" y="1222"/>
      <point x="1290" y="1271"/>
      <point x="1290" y="1350" type="curve" smooth="yes"/>
      <point x="1290" y="1425"/>
      <point x="1222" y="1496"/>
      <point x="1087" y="1496" type="curve" smooth="yes"/>
      <point x="956" y="1496"/>
      <point x="825" y="1414"/>
      <point x="825" y="1237" type="curve" smooth="yes"/>
      <point x="825" y="1106"/>
      <point x="960" y="971"/>
      <point x="1159" y="971" type="curve" smooth="yes"/>
      <point x="1245" y="971"/>
      <point x="1339" y="1009"/>
      <point x="1406" y="1069" type="curve"/>
    </contour>
    <contour>
      <point x="2876" y="289" type="curve" smooth="yes"/>
      <point x="2876" y="238"/>
      <point x="2809" y="162"/>
      <point x="2756" y="147" type="curve"/>
      <point x="2756" y="381" type="line"/>
      <point x="2804" y="379"/>
      <point x="2876" y="344"/>
    </contour>
  </outline>
</glyph>
<glyph name="uni17E2" format="2">
  <advance width="1837"/>
  <unicode hex="17E2"/>
  <outline>
    <contour>
      <point x="637" y="1170" type="curve" smooth="yes"/>
      <point x="637" y="576" type="line"/>
      <point x="667" y="489"/>
      <point x="791" y="467"/>
      <point x="877" y="467" type="curve"/>
      <point x="1076" y="504"/>
      <point x="1162" y="669"/>
      <point x="1162" y="759" type="curve" smooth="yes"/>
      <point x="1162" y="869"/>
      <point x="1046" y="922"/>
      <point x="937" y="937" type="curve"/>
      <point x="937" y="1125" type="line" smooth="yes"/>
      <point x="937" y="1159"/>
      <point x="945" y="1230"/>
      <point x="964" y="1230" type="curve" smooth="yes"/>
      <point x="997" y="1230"/>
      <point x="1151" y="1072"/>
      <point x="1162" y="1072" type="curve" smooth="yes"/>
      <point x="1174" y="1072"/>
      <point x="1327" y="1234"/>
      <point x="1361" y="1234" type="curve" smooth="yes"/>
      <point x="1380" y="1234"/>
      <point x="1387" y="1159"/>
      <point x="1387" y="1125" type="curve" smooth="yes"/>
      <point x="1387" y="214" type="line" smooth="yes"/>
      <point x="1387" y="165"/>
      <point x="1065" y="131"/>
      <point x="956" y="131" type="curve" smooth="yes"/>
      <point x="844" y="131"/>
      <point x="525" y="165"/>
      <point x="525" y="214" type="curve" smooth="yes"/>
      <point x="525" y="1406" type="line" smooth="yes"/>
      <point x="525" y="1654"/>
      <point x="386" y="1770"/>
      <point x="165" y="1770" type="curve" smooth="yes"/>
      <point x="56" y="1770"/>
      <point x="-23" y="1684"/>
      <point x="-38" y="1620" type="curve"/>
      <point x="0" y="1642"/>
      <point x="41" y="1665"/>
      <point x="94" y="1665" type="curve" smooth="yes"/>
      <point x="184" y="1665"/>
      <point x="225" y="1549"/>
      <point x="225" y="1387" type="curve" smooth="yes"/>
      <point x="225" y="176" type="line" smooth="yes"/>
      <point x="225" y="71"/>
      <point x="690" y="0"/>
      <point x="956" y="0" type="curve" smooth="yes"/>
      <point x="1226" y="0"/>
      <point x="1687" y="71"/>
      <point x="1687" y="176" type="curve" smooth="yes"/>
      <point x="1687" y="1170" type="line" smooth="yes"/>
      <point x="1687" y="1267"/>
      <point x="1530" y="1440"/>
      <point x="1406" y="1440" type="curve" smooth="yes"/>
      <point x="1329" y="1440"/>
      <point x="1217" y="1341"/>
      <point x="1162" y="1286" type="curve"/>
      <point x="1110" y="1340"/>
      <point x="992" y="1440"/>
      <point x="919" y="1440" type="curve" smooth="yes"/>
      <point x="795" y="1440"/>
      <point x="637" y="1267"/>
    </contour>
    <contour>
      <point x="1057" y="759" type="curve" smooth="yes"/>
      <point x="1057" y="708"/>
      <point x="990" y="632"/>
      <point x="937" y="617" type="curve"/>
      <point x="937" y="851" type="line"/>
      <point x="985" y="849"/>
      <point x="1057" y="814"/>
    </contour>
  </outline>
</glyph>
<glyph name="uni17E3" format="2">
  <advance width="1800"/>
  <unicode hex="17E3"/>
  <outline>
    <contour>
      <point x="150" y="1252" type="curve"/>
      <point x="150" y="106" type="line"/>
      <point x="180" y="19"/>
      <point x="304" y="-3"/>
      <point x="390" y="-3" type="curve"/>
      <point x="589" y="34"/>
      <point x="675" y="199"/>
      <point x="675" y="289" type="curve" smooth="yes"/>
      <point x="675" y="399"/>
      <point x="559" y="452"/>
      <point x="450" y="467" type="curve"/>
      <point x="450" y="1234" type="line" smooth="yes"/>
      <point x="450" y="1279"/>
      <point x="540" y="1309"/>
      <point x="600" y="1309" type="curve" smooth="yes"/>
      <point x="660" y="1309"/>
      <point x="750" y="1279"/>
      <point x="750" y="1234" type="curve" smooth="yes"/>
      <point x="750" y="0" type="line"/>
      <point x="1050" y="0" type="line"/>
      <point x="1050" y="1234" type="line" smooth="yes"/>
      <point x="1050" y="1279"/>
      <point x="1140" y="1309"/>
      <point x="1200" y="1309" type="curve" smooth="yes"/>
      <point x="1260" y="1309"/>
      <point x="1350" y="1279"/>
      <point x="1350" y="1234" type="curve" smooth="yes"/>
      <point x="1350" y="0" type="line"/>
      <point x="1650" y="0" type="line"/>
      <point x="1650" y="1252" type="line" smooth="yes"/>
      <point x="1650" y="1346"/>
      <point x="1406" y="1440"/>
      <point x="1200" y="1440" type="curve" smooth="yes"/>
      <point x="1087" y="1440"/>
      <point x="979" y="1421"/>
      <point x="900" y="1387" type="curve"/>
      <point x="821" y="1421"/>
      <point x="712" y="1440"/>
      <point x="600" y="1440" type="curve" smooth="yes"/>
      <point x="394" y="1440"/>
      <point x="150" y="1346"/>
    </contour>
    <contour>
      <point x="570" y="289" type="curve" smooth="yes"/>
      <point x="570" y="238"/>
      <point x="503" y="162"/>
      <point x="450" y="147" type="curve"/>
      <point x="450" y="381" type="line"/>
      <point x="498" y="379"/>
      <point x="570" y="344"/>
    </contour>
  </outline>
</glyph>
<glyph name="uni17E7" format="2">
  <advance width="1762"/>
  <unicode hex="17E7"/>
  <outline>
    <contour>
      <point x="450" y="1147" type="line" smooth="yes"/>
      <point x="450" y="1185"/>
      <point x="450" y="1249"/>
      <point x="469" y="1249" type="curve" smooth="yes"/>
      <point x="491" y="1249"/>
      <point x="637" y="1091"/>
      <point x="675" y="1091" type="curve" smooth="yes"/>
      <point x="712" y="1091"/>
      <point x="859" y="1249"/>
      <point x="881" y="1249" type="curve" smooth="yes"/>
      <point x="900" y="1249"/>
      <point x="900" y="1181"/>
      <point x="900" y="1147" type="curve" smooth="yes"/>
      <point x="900" y="199" type="line" smooth="yes"/>
      <point x="900" y="94"/>
      <point x="1065" y="0"/>
      <point x="1256" y="0" type="curve" smooth="yes"/>
      <point x="1447" y="0"/>
      <point x="1612" y="94"/>
      <point x="1612" y="199" type="curve" smooth="yes"/>
      <point x="1612" y="1406" type="line" smooth="yes"/>
      <point x="1612" y="1654"/>
      <point x="1474" y="1770"/>
      <point x="1252" y="1770" type="curve" smooth="yes"/>
      <point x="1144" y="1770"/>
      <point x="1065" y="1684"/>
      <point x="1050" y="1620" type="curve"/>
      <point x="1087" y="1642"/>
      <point x="1129" y="1665"/>
      <point x="1181" y="1665" type="curve" smooth="yes"/>
      <point x="1271" y="1665"/>
      <point x="1312" y="1549"/>
      <point x="1312" y="1387" type="curve" smooth="yes"/>
      <point x="1312" y="217" type="line" smooth="yes"/>
      <point x="1312" y="169"/>
      <point x="1267" y="135"/>
      <point x="1256" y="135" type="curve" smooth="yes"/>
      <point x="1241" y="135"/>
      <point x="1200" y="169"/>
      <point x="1200" y="217" type="curve" smooth="yes"/>
      <point x="1200" y="1185" type="line" smooth="yes"/>
      <point x="1200" y="1245"/>
      <point x="1072" y="1440"/>
      <point x="904" y="1440" type="curve" smooth="yes"/>
      <point x="829" y="1440"/>
      <point x="705" y="1290"/>
      <point x="675" y="1290" type="curve" smooth="yes"/>
      <point x="645" y="1290"/>
      <point x="521" y="1440"/>
      <point x="446" y="1440" type="curve" smooth="yes"/>
      <point x="277" y="1440"/>
      <point x="150" y="1245"/>
      <point x="150" y="1185" type="curve" smooth="yes"/>
      <point x="150" y="106" type="line"/>
      <point x="180" y="19"/>
      <point x="304" y="-3"/>
      <point x="390" y="-3" type="curve"/>
      <point x="589" y="34"/>
      <point x="675" y="199"/>
      <point x="675" y="289" type="curve" smooth="yes"/>
      <point x="675" y="399"/>
      <point x="559" y="452"/>
      <point x="450" y="467" type="curve"/>
    </contour>
    <contour>
      <point x="570" y="289" type="curve" smooth="yes"/>
      <point x="570" y="238"/>
      <point x="503" y="162"/>
      <point x="450" y="147" type="curve"/>
      <point x="450" y="381" type="line"/>
      <point x="498" y="379"/>
      <point x="570" y="344"/>
    </contour>
  </outline>
</glyph>
<glyph name="uni17F3" format="2">
  <advance width="2369"/>
  <unicode hex="17F3"/>
  <outline>
    <contour>
      <point x="2182" y="300" type="line"/>
      <point x="1807" y="1215" type="line"/>
      <point x="1399" y="1215" type="line"/>
      <point x="1185" y="693" type="line"/>
      <point x="971" y="1215" type="line"/>
      <point x="562" y="1215" type="line"/>
      <point x="187" y="300" type="line"/>
      <point x="510" y="300" type="line"/>
      <point x="765" y="922" type="line"/>
      <point x="1024" y="300" type="line"/>
      <point x="1346" y="300" type="line"/>
      <point x="1601" y="922" type="line"/>
      <point x="1860" y="300" type="line"/>
    </contour>
  </outline>
</glyph>
<glyph name="uni1ECB" format="2">
  <advance width="627"/>
  <unicode hex="1ECB"/>
  <outline>
    <contour>
      <point x="186" y="238" type="line"/>
      <point x="186" y="121"/>
      <point x="165" y="75"/>
      <point x="40" y="75" type="curve"/>
      <point x="40" y="0" type="line"/>
      <point x="587" y="0" type="line"/>
      <point x="587" y="75" type="line"/>
      <point x="463" y="75"/>
      <point x="437" y="121"/>
      <point x="437" y="238" type="curve"/>
      <point x="437" y="1004" type="line"/>
      <point x="334" y="1004" type="line"/>
      <point x="24" y="863" type="line"/>
      <point x="52" y="790" type="line"/>
      <point x="108" y="807"/>
      <point x="153" y="819"/>
      <point x="165" y="819" type="curve"/>
      <point x="186" y="819"/>
      <point x="186" y="778"/>
      <point x="186" y="683" type="curve"/>
    </contour>
    <contour>
      <point x="170" y="1331" type="curve" smooth="yes"/>
      <point x="170" y="1254"/>
      <point x="233" y="1191"/>
      <point x="310" y="1191" type="curve" smooth="yes"/>
      <point x="387" y="1191"/>
      <point x="450" y="1254"/>
      <point x="450" y="1331" type="curve" smooth="yes"/>
      <point x="450" y="1408"/>
      <point x="387" y="1471"/>
      <point x="310" y="1471" type="curve" smooth="yes"/>
      <point x="233" y="1471"/>
      <point x="170" y="1408"/>
    </contour>
    <contour>
      <point x="161" y="-235" type="curve" smooth="yes"/>
      <point x="161" y="-305"/>
      <point x="216" y="-364"/>
      <point x="311" y="-364" type="curve"/>
      <point x="406" y="-364"/>
      <point x="461" y="-305"/>
      <point x="461" y="-235" type="curve"/>
      <point x="461" y="-165"/>
      <point x="406" y="-107"/>
      <point x="311" y="-107" type="curve"/>
      <point x="216" y="-107"/>
      <point x="161" y="-165"/>
    </contour>
  </outline>
</glyph>
<glyph name="uni2011" format="2">
  <advance width="1100"/>
  <unicode hex="2011"/>
  <outline>
    <contour>
      <point x="150" y="520" type="line"/>
      <point x="150" y="720" type="line"/>
      <point x="940" y="720" type="line"/>
      <point x="940" y="520" type="line"/>
    </contour>
  </outline>
</glyph>
<glyph name="uni2012" format="2">
  <advance width="1500"/>
  <unicode hex="2012"/>
  <outline>
    <contour>
      <point x="150" y="520" type="line"/>
      <point x="150" y="720" type="line"/>
      <point x="1350" y="720" type="line"/>
      <point x="1350" y="520" type="line"/>
    </contour>
  </outline>
</glyph>
<glyph name="KrungSpecial" format="2">
  <advance width="409"/>
  <outline>
    <contour>
      <point x="221" y="1222" type="curve" smooth="yes"/>
      <point x="221" y="1151"/>
      <point x="281" y="1020"/>
      <point x="390" y="911" type="curve"/>
      <point x="386" y="911" type="line"/>
      <point x="394" y="900"/>
      <point x="435" y="892"/>
      <point x="476" y="892" type="curve"/>
      <point x="540" y="892"/>
      <point x="585" y="907"/>
      <point x="585" y="926" type="curve"/>
      <point x="577" y="949"/>
      <point x="577" y="949"/>
      <point x="566" y="967" type="curve"/>
      <point x="547" y="997"/>
      <point x="510" y="1065"/>
      <point x="510" y="1185" type="curve"/>
      <point x="510" y="1234" type="line"/>
      <point x="487" y="1234" type="line"/>
      <point x="544" y="1245"/>
      <point x="615" y="1279"/>
      <point x="615" y="1331" type="curve"/>
      <point x="615" y="1395"/>
      <point x="562" y="1436"/>
      <point x="450" y="1436" type="curve"/>
      <point x="296" y="1436"/>
      <point x="221" y="1376"/>
    </contour>
    <contour>
      <point x="-2843" y="635" type="line"/>
      <point x="-2863" y="635" type="line"/>
      <point x="-2863" y="615" type="line"/>
      <point x="-2843" y="615" type="line"/>
    </contour>
    <contour>
      <point x="683" y="3217" type="line"/>
      <point x="663" y="3217" type="line"/>
      <point x="663" y="3197" type="line"/>
      <point x="683" y="3197" type="line"/>
    </contour>
  </outline>
</glyph>
<glyph name=".notdef" format="2">
  <advance width="1575"/>
  <outline>
    <contour>
      <point x="776" y="386" type="curve" smooth="yes"/>
      <point x="776" y="367"/>
      <point x="795" y="345"/>
      <point x="817" y="345" type="curve" smooth="yes"/>
      <point x="836" y="345"/>
      <point x="855" y="367"/>
      <point x="855" y="386" type="curve" smooth="yes"/>
      <point x="855" y="409"/>
      <point x="836" y="427"/>
      <point x="817" y="427" type="curve" smooth="yes"/>
      <point x="795" y="427"/>
      <point x="776" y="409"/>
    </contour>
    <contour>
      <point x="712" y="911" type="curve" smooth="yes"/>
      <point x="712" y="937"/>
      <point x="731" y="971"/>
      <point x="817" y="971" type="curve" smooth="yes"/>
      <point x="904" y="971"/>
      <point x="937" y="915"/>
      <point x="937" y="877" type="curve" smooth="yes"/>
      <point x="937" y="806"/>
      <point x="761" y="645"/>
      <point x="761" y="536" type="curve" smooth="yes"/>
      <point x="761" y="506"/>
      <point x="765" y="487"/>
      <point x="776" y="472" type="curve"/>
      <point x="847" y="472" type="line"/>
      <point x="836" y="487"/>
      <point x="836" y="510"/>
      <point x="836" y="536" type="curve" smooth="yes"/>
      <point x="836" y="626"/>
      <point x="1012" y="761"/>
      <point x="1012" y="881" type="curve" smooth="yes"/>
      <point x="1012" y="945"/>
      <point x="956" y="1042"/>
      <point x="817" y="1042" type="curve" smooth="yes"/>
      <point x="679" y="1042"/>
      <point x="637" y="952"/>
      <point x="637" y="896" type="curve" smooth="yes"/>
      <point x="637" y="851"/>
      <point x="649" y="821"/>
      <point x="671" y="799" type="curve" smooth="yes"/>
      <point x="686" y="784"/>
      <point x="712" y="776"/>
      <point x="739" y="776" type="curve" smooth="yes"/>
      <point x="769" y="776"/>
      <point x="806" y="795"/>
      <point x="806" y="832" type="curve" smooth="yes"/>
      <point x="806" y="859"/>
      <point x="787" y="881"/>
      <point x="761" y="881" type="curve" smooth="yes"/>
      <point x="746" y="881"/>
      <point x="731" y="877"/>
      <point x="724" y="866" type="curve"/>
      <point x="712" y="870"/>
      <point x="712" y="892"/>
    </contour>
    <contour>
      <point x="262" y="1440" type="line"/>
      <point x="262" y="0" type="line"/>
      <point x="1387" y="0" type="line"/>
      <point x="1387" y="1440" type="line"/>
    </contour>
    <contour>
      <point x="562" y="1271" type="line"/>
      <point x="1087" y="1271" type="line"/>
      <point x="1087" y="169" type="line"/>
      <point x="562" y="169" type="line"/>
    </contour>
  </outline>
</glyph>
<glyph name="uni178017C5.space.right" format="2">
  <advance width="2250"/>
  <anchor x="1312" y="0" name="L"/>
  <anchor x="2062" y="0" name="L2"/>
  <anchor x="1312" y="1440" name="U"/>
  <anchor x="2062" y="1922" name="U2"/>
  <anchor x="787" y="0" name="lm"/>
  <anchor x="787" y="1440" name="um"/>
  <anchor x="1555" y="1922" name="um2"/>
  <outline>
    <contour>
      <point x="1252" y="1178" type="line"/>
      <point x="1324" y="1247"/>
      <point x="1410" y="1290"/>
      <point x="1545" y="1290" type="curve" smooth="yes"/>
      <point x="1664" y="1290"/>
      <point x="1762" y="1197"/>
      <point x="1762" y="1128" type="curve" smooth="yes"/>
      <point x="1762" y="0" type="line"/>
      <point x="2062" y="0" type="line"/>
      <point x="2062" y="1166" type="line" smooth="yes"/>
      <point x="2062" y="1193"/>
      <point x="2042" y="1227"/>
      <point x="2009" y="1261" type="curve"/>
      <point x="2069" y="1368"/>
      <point x="2100" y="1501"/>
      <point x="2100" y="1609" type="curve" smooth="yes"/>
      <point x="2100" y="1695"/>
      <point x="2077" y="1800"/>
      <point x="1939" y="1897" type="curve"/>
      <point x="1894" y="1924"/>
      <point x="1845" y="1935"/>
      <point x="1804" y="1935" type="curve" smooth="yes"/>
      <point x="1702" y="1935"/>
      <point x="1657" y="1909"/>
      <point x="1657" y="1841" type="curve" smooth="yes"/>
      <point x="1657" y="1815"/>
      <point x="1672" y="1770"/>
      <point x="1722" y="1730" type="curve" smooth="yes"/>
      <point x="1774" y="1687"/>
      <point x="1800" y="1635"/>
      <point x="1800" y="1556" type="curve" smooth="yes"/>
      <point x="1800" y="1514"/>
      <point x="1787" y="1448"/>
      <point x="1773" y="1402" type="curve"/>
      <point x="1706" y="1425"/>
      <point x="1631" y="1440"/>
      <point x="1555" y="1440" type="curve" smooth="yes"/>
      <point x="1375" y="1440"/>
      <point x="1237" y="1328"/>
      <point x="1174" y="1260" type="curve"/>
    </contour>
  </outline>
</glyph>
<glyph name="uni1781.pronounlig" format="2">
  <advance width="1425"/>
  <anchor x="1275" y="2083" name="U"/>
  <anchor x="752" y="2083" name="um"/>
  <outline>
    <contour>
      <point x="862" y="-1144" type="line"/>
      <point x="862" y="-1178"/>
      <point x="859" y="-1223"/>
      <point x="825" y="-1238" type="curve"/>
      <point x="1061" y="-1238"/>
      <point x="1162" y="-1226"/>
      <point x="1162" y="-1136" type="curve"/>
      <point x="1162" y="-836" type="line"/>
      <point x="1151" y="-769"/>
      <point x="1020" y="-750"/>
      <point x="922" y="-750" type="curve"/>
      <point x="825" y="-761"/>
      <point x="772" y="-788"/>
      <point x="772" y="-859" type="curve"/>
      <point x="772" y="-900"/>
      <point x="814" y="-934"/>
      <point x="862" y="-953" type="curve"/>
    </contour>
    <contour>
      <point x="1275" y="1027" type="curve" smooth="yes"/>
      <point x="1275" y="1301"/>
      <point x="1085" y="1440"/>
      <point x="740" y="1440" type="curve" smooth="yes"/>
      <point x="507" y="1440"/>
      <point x="225" y="1339"/>
      <point x="225" y="1121" type="curve" smooth="yes"/>
      <point x="225" y="1042"/>
      <point x="244" y="956"/>
      <point x="340" y="888" type="curve" smooth="yes"/>
      <point x="397" y="847"/>
      <point x="465" y="844"/>
      <point x="517" y="844" type="curve" smooth="yes"/>
      <point x="626" y="844"/>
      <point x="735" y="900"/>
      <point x="735" y="986" type="curve" smooth="yes"/>
      <point x="735" y="1046"/>
      <point x="664" y="1091"/>
      <point x="562" y="1091" type="curve" smooth="yes"/>
      <point x="540" y="1091"/>
      <point x="521" y="1087"/>
      <point x="510" y="1087" type="curve"/>
      <point x="506" y="1099"/>
      <point x="506" y="1114"/>
      <point x="506" y="1129" type="curve"/>
      <point x="506" y="1222"/>
      <point x="605" y="1290"/>
      <point x="740" y="1290" type="curve" smooth="yes"/>
      <point x="886" y="1290"/>
      <point x="975" y="1226"/>
      <point x="975" y="1050" type="curve" smooth="yes"/>
      <point x="975" y="765"/>
      <point x="341" y="427"/>
      <point x="225" y="397" type="curve"/>
      <point x="225" y="137"/>
      <point x="475" y="0"/>
      <point x="750" y="0" type="curve" smooth="yes"/>
      <point x="1041" y="0"/>
      <point x="1275" y="116"/>
      <point x="1275" y="345" type="curve" smooth="yes"/>
      <point x="1275" y="466"/>
      <point x="1151" y="520"/>
      <point x="1012" y="550" type="curve"/>
      <point x="1038" y="510"/>
      <point x="1050" y="474"/>
      <point x="1050" y="401" type="curve"/>
      <point x="1050" y="257"/>
      <point x="925" y="150"/>
      <point x="750" y="150" type="curve" smooth="yes"/>
      <point x="630" y="150"/>
      <point x="547" y="232"/>
      <point x="525" y="311" type="curve"/>
      <point x="825" y="439"/>
      <point x="1275" y="667"/>
    </contour>
    <contour>
      <point x="696" y="1815" type="curve" smooth="yes"/>
      <point x="696" y="1860"/>
      <point x="722" y="1890"/>
      <point x="752" y="1890" type="curve" smooth="yes"/>
      <point x="782" y="1890"/>
      <point x="809" y="1860"/>
      <point x="809" y="1815" type="curve" smooth="yes"/>
      <point x="809" y="1770"/>
      <point x="782" y="1740"/>
      <point x="752" y="1740" type="curve" smooth="yes"/>
      <point x="722" y="1740"/>
      <point x="696" y="1770"/>
    </contour>
    <contour>
      <point x="452" y="1815" type="curve" smooth="yes"/>
      <point x="452" y="1684"/>
      <point x="569" y="1590"/>
      <point x="752" y="1590" type="curve" smooth="yes"/>
      <point x="936" y="1590"/>
      <point x="1052" y="1684"/>
      <point x="1052" y="1815" type="curve" smooth="yes"/>
      <point x="1052" y="1946"/>
      <point x="936" y="2040"/>
      <point x="752" y="2040" type="curve" smooth="yes"/>
      <point x="569" y="2040"/>
      <point x="452" y="1946"/>
    </contour>
    <contour>
      <point x="895" y="-246" type="curve" smooth="yes"/>
      <point x="895" y="-310"/>
      <point x="962" y="-355"/>
      <point x="1022" y="-370" type="curve"/>
      <point x="1022" y="-438"/>
      <point x="977" y="-445"/>
      <point x="955" y="-445" type="curve"/>
      <point x="910" y="-445"/>
      <point x="820" y="-366"/>
      <point x="745" y="-291" type="curve"/>
      <point x="625" y="-171"/>
      <point x="527" y="-149"/>
      <point x="396" y="-149" type="curve" smooth="yes"/>
      <point x="242" y="-149"/>
      <point x="145" y="-265"/>
      <point x="134" y="-393" type="curve"/>
      <point x="194" y="-314"/>
      <point x="254" y="-284"/>
      <point x="355" y="-284" type="curve"/>
      <point x="419" y="-284"/>
      <point x="516" y="-366"/>
      <point x="584" y="-438" type="curve" smooth="yes"/>
      <point x="659" y="-516"/>
      <point x="790" y="-618"/>
      <point x="955" y="-618" type="curve" smooth="yes"/>
      <point x="1210" y="-618"/>
      <point x="1322" y="-453"/>
      <point x="1322" y="-288" type="curve"/>
      <point x="1322" y="-183"/>
      <point x="1202" y="-130"/>
      <point x="1090" y="-130" type="curve"/>
      <point x="970" y="-130"/>
      <point x="895" y="-175"/>
    </contour>
  </outline>
</glyph>
<glyph name="uni178117B6" format="2">
  <advance width="2175"/>
  <anchor x="1275" y="0" name="L"/>
  <anchor x="1987" y="0" name="L2"/>
  <anchor x="1275" y="1440" name="U"/>
  <anchor x="1987" y="1440" name="U2"/>
  <anchor x="750" y="0" name="lm"/>
  <anchor x="740" y="1440" name="um"/>
  <anchor x="1481" y="1440" name="um2"/>
  <outline>
    <contour>
      <point x="1275" y="1027" type="curve" smooth="yes"/>
      <point x="1275" y="1301"/>
      <point x="1085" y="1440"/>
      <point x="740" y="1440" type="curve" smooth="yes"/>
      <point x="507" y="1440"/>
      <point x="225" y="1339"/>
      <point x="225" y="1121" type="curve" smooth="yes"/>
      <point x="225" y="1042"/>
      <point x="244" y="956"/>
      <point x="340" y="888" type="curve" smooth="yes"/>
      <point x="397" y="847"/>
      <point x="465" y="844"/>
      <point x="517" y="844" type="curve" smooth="yes"/>
      <point x="626" y="844"/>
      <point x="735" y="900"/>
      <point x="735" y="986" type="curve" smooth="yes"/>
      <point x="735" y="1046"/>
      <point x="664" y="1091"/>
      <point x="562" y="1091" type="curve" smooth="yes"/>
      <point x="540" y="1091"/>
      <point x="521" y="1087"/>
      <point x="510" y="1087" type="curve"/>
      <point x="506" y="1099"/>
      <point x="506" y="1114"/>
      <point x="506" y="1129" type="curve"/>
      <point x="506" y="1222"/>
      <point x="605" y="1290"/>
      <point x="740" y="1290" type="curve" smooth="yes"/>
      <point x="886" y="1290"/>
      <point x="975" y="1226"/>
      <point x="975" y="1050" type="curve" smooth="yes"/>
      <point x="975" y="765"/>
      <point x="341" y="427"/>
      <point x="225" y="397" type="curve"/>
      <point x="225" y="137"/>
      <point x="475" y="0"/>
      <point x="750" y="0" type="curve" smooth="yes"/>
      <point x="1041" y="0"/>
      <point x="1275" y="116"/>
      <point x="1275" y="345" type="curve" smooth="yes"/>
      <point x="1275" y="466"/>
      <point x="1151" y="520"/>
      <point x="1012" y="550" type="curve"/>
      <point x="1038" y="510"/>
      <point x="1050" y="474"/>
      <point x="1050" y="401" type="curve"/>
      <point x="1050" y="257"/>
      <point x="885" y="150"/>
      <point x="750" y="150" type="curve" smooth="yes"/>
      <point x="630" y="150"/>
      <point x="547" y="232"/>
      <point x="525" y="311" type="curve"/>
      <point x="825" y="439"/>
      <point x="1275" y="667"/>
    </contour>
    <contour>
      <point x="1177" y="1178" type="line"/>
      <point x="1249" y="1247"/>
      <point x="1335" y="1309"/>
      <point x="1470" y="1309" type="curve"/>
      <point x="1569" y="1309"/>
      <point x="1687" y="1196"/>
      <point x="1687" y="1147" type="curve"/>
      <point x="1687" y="0" type="line"/>
      <point x="1987" y="0" type="line"/>
      <point x="1987" y="1166" type="line"/>
      <point x="1987" y="1254"/>
      <point x="1702" y="1440"/>
      <point x="1480" y="1440" type="curve"/>
      <point x="1300" y="1440"/>
      <point x="1162" y="1328"/>
      <point x="1099" y="1260" type="curve"/>
    </contour>
  </outline>
</glyph>
<glyph name="uni1789.alt" format="2">
  <advance width="2138"/>
  <anchor x="1950" y="0" name="L"/>
  <anchor x="1950" y="1440" name="U"/>
  <anchor x="1083" y="0" name="lm"/>
  <anchor x="1481" y="1440" name="um"/>
  <outline>
    <contour>
      <point x="262" y="1170" type="curve" smooth="yes"/>
      <point x="262" y="106" type="line"/>
      <point x="292" y="19"/>
      <point x="416" y="-3"/>
      <point x="502" y="-3" type="curve"/>
      <point x="701" y="34"/>
      <point x="787" y="199"/>
      <point x="787" y="289" type="curve" smooth="yes"/>
      <point x="787" y="399"/>
      <point x="671" y="452"/>
      <point x="562" y="467" type="curve"/>
      <point x="562" y="1125" type="line" smooth="yes"/>
      <point x="562" y="1159"/>
      <point x="570" y="1230"/>
      <point x="589" y="1230" type="curve" smooth="yes"/>
      <point x="622" y="1230"/>
      <point x="776" y="1072"/>
      <point x="787" y="1072" type="curve" smooth="yes"/>
      <point x="799" y="1072"/>
      <point x="952" y="1234"/>
      <point x="986" y="1234" type="curve" smooth="yes"/>
      <point x="1005" y="1234"/>
      <point x="1012" y="1159"/>
      <point x="1012" y="1125" type="curve" smooth="yes"/>
      <point x="1012" y="0" type="line"/>
      <point x="1312" y="0" type="line"/>
      <point x="1312" y="1215" type="line"/>
      <point x="1339" y="1264"/>
      <point x="1395" y="1305"/>
      <point x="1481" y="1305" type="curve" smooth="yes"/>
      <point x="1567" y="1305"/>
      <point x="1650" y="1241"/>
      <point x="1650" y="1159" type="curve" smooth="yes"/>
      <point x="1650" y="0" type="line"/>
      <point x="1950" y="0" type="line"/>
      <point x="1950" y="1185" type="line" smooth="yes"/>
      <point x="1950" y="1327"/>
      <point x="1702" y="1440"/>
      <point x="1481" y="1440" type="curve" smooth="yes"/>
      <point x="1365" y="1440"/>
      <point x="1264" y="1387"/>
      <point x="1192" y="1331" type="curve"/>
      <point x="1147" y="1372"/>
      <point x="1087" y="1440"/>
      <point x="1031" y="1440" type="curve" smooth="yes"/>
      <point x="954" y="1440"/>
      <point x="842" y="1341"/>
      <point x="787" y="1286" type="curve"/>
      <point x="735" y="1340"/>
      <point x="617" y="1440"/>
      <point x="544" y="1440" type="curve" smooth="yes"/>
      <point x="420" y="1440"/>
      <point x="262" y="1267"/>
    </contour>
    <contour>
      <point x="682" y="289" type="curve" smooth="yes"/>
      <point x="682" y="238"/>
      <point x="615" y="162"/>
      <point x="562" y="147" type="curve"/>
      <point x="562" y="381" type="line"/>
      <point x="610" y="379"/>
      <point x="682" y="344"/>
    </contour>
  </outline>
</glyph>
<glyph name="uni178D17B6" format="2">
  <advance width="3000"/>
  <anchor x="2062" y="0" name="L"/>
  <anchor x="2812" y="0" name="L2"/>
  <anchor x="2062" y="1440" name="U"/>
  <anchor x="2812" y="1440" name="U2"/>
  <anchor x="1162" y="0" name="lm"/>
  <anchor x="1537" y="1440" name="um"/>
  <anchor x="2287" y="1440" name="um2"/>
  <outline>
    <contour>
      <point x="262" y="1170" type="curve" smooth="yes"/>
      <point x="262" y="106" type="line"/>
      <point x="292" y="19"/>
      <point x="416" y="-3"/>
      <point x="502" y="-3" type="curve"/>
      <point x="701" y="34"/>
      <point x="787" y="199"/>
      <point x="787" y="289" type="curve" smooth="yes"/>
      <point x="787" y="399"/>
      <point x="671" y="452"/>
      <point x="562" y="467" type="curve"/>
      <point x="562" y="1125" type="line" smooth="yes"/>
      <point x="562" y="1159"/>
      <point x="570" y="1230"/>
      <point x="589" y="1230" type="curve" smooth="yes"/>
      <point x="622" y="1230"/>
      <point x="776" y="1072"/>
      <point x="787" y="1072" type="curve" smooth="yes"/>
      <point x="799" y="1072"/>
      <point x="952" y="1234"/>
      <point x="986" y="1234" type="curve" smooth="yes"/>
      <point x="1005" y="1234"/>
      <point x="1012" y="1159"/>
      <point x="1012" y="1125" type="curve" smooth="yes"/>
      <point x="1012" y="469" type="line"/>
      <point x="904" y="454"/>
      <point x="825" y="356"/>
      <point x="825" y="236" type="curve" smooth="yes"/>
      <point x="825" y="146"/>
      <point x="889" y="37"/>
      <point x="1072" y="0" type="curve"/>
      <point x="1159" y="0"/>
      <point x="1282" y="22"/>
      <point x="1312" y="109" type="curve"/>
      <point x="1312" y="300" type="line"/>
      <point x="1429" y="281"/>
      <point x="1541" y="0"/>
      <point x="1755" y="0" type="curve" smooth="yes"/>
      <point x="1969" y="0"/>
      <point x="2062" y="116"/>
      <point x="2062" y="217" type="curve" smooth="yes"/>
      <point x="2062" y="870" type="line" smooth="yes"/>
      <point x="2062" y="937"/>
      <point x="1991" y="997"/>
      <point x="1875" y="1057" type="curve" smooth="yes"/>
      <point x="1822" y="1084"/>
      <point x="1721" y="1144"/>
      <point x="1721" y="1174" type="curve" smooth="yes"/>
      <point x="1721" y="1226"/>
      <point x="1852" y="1309"/>
      <point x="2111" y="1309" type="curve" smooth="yes"/>
      <point x="2332" y="1309"/>
      <point x="2512" y="1196"/>
      <point x="2512" y="1147" type="curve" smooth="yes"/>
      <point x="2512" y="0" type="line"/>
      <point x="2812" y="0" type="line"/>
      <point x="2812" y="1166" type="line" smooth="yes"/>
      <point x="2812" y="1264"/>
      <point x="2411" y="1440"/>
      <point x="2111" y="1440" type="curve" smooth="yes"/>
      <point x="1792" y="1440"/>
      <point x="1594" y="1320"/>
      <point x="1594" y="1181" type="curve" smooth="yes"/>
      <point x="1594" y="1121"/>
      <point x="1620" y="1072"/>
      <point x="1714" y="1009" type="curve" smooth="yes"/>
      <point x="1736" y="994"/>
      <point x="1762" y="964"/>
      <point x="1762" y="907" type="curve" smooth="yes"/>
      <point x="1762" y="251" type="line" smooth="yes"/>
      <point x="1762" y="202"/>
      <point x="1755" y="169"/>
      <point x="1729" y="169" type="curve" smooth="yes"/>
      <point x="1624" y="169"/>
      <point x="1481" y="446"/>
      <point x="1312" y="469" type="curve"/>
      <point x="1312" y="1170" type="line" smooth="yes"/>
      <point x="1312" y="1267"/>
      <point x="1155" y="1440"/>
      <point x="1031" y="1440" type="curve" smooth="yes"/>
      <point x="954" y="1440"/>
      <point x="842" y="1341"/>
      <point x="787" y="1286" type="curve"/>
      <point x="735" y="1340"/>
      <point x="617" y="1440"/>
      <point x="544" y="1440" type="curve" smooth="yes"/>
      <point x="420" y="1440"/>
      <point x="262" y="1267"/>
    </contour>
    <contour>
      <point x="682" y="289" type="curve" smooth="yes"/>
      <point x="682" y="238"/>
      <point x="615" y="162"/>
      <point x="562" y="147" type="curve"/>
      <point x="562" y="381" type="line"/>
      <point x="610" y="379"/>
      <point x="682" y="344"/>
    </contour>
    <contour>
      <point x="956" y="244" type="curve" smooth="yes"/>
      <point x="956" y="270"/>
      <point x="982" y="300"/>
      <point x="1012" y="300" type="curve"/>
      <point x="1012" y="169" type="line"/>
      <point x="971" y="180"/>
      <point x="956" y="214"/>
    </contour>
  </outline>
</glyph>
<glyph name="uni179417B6" format="2">
  <advance width="2250"/>
  <anchor x="1312" y="-150" name="L"/>
  <anchor x="2062" y="0" name="L2"/>
  <anchor x="1312" y="1440" name="U"/>
  <anchor x="2062" y="1440" name="U2"/>
  <anchor x="787" y="-150" name="lm"/>
  <anchor x="787" y="1440" name="um"/>
  <anchor x="1537" y="1440" name="um2"/>
  <outline>
    <contour>
      <point x="1012" y="206" type="line"/>
      <point x="1012" y="161"/>
      <point x="866" y="131"/>
      <point x="787" y="131" type="curve"/>
      <point x="708" y="131"/>
      <point x="562" y="161"/>
      <point x="562" y="206" type="curve"/>
      <point x="562" y="1020" type="line"/>
      <point x="525" y="1020"/>
      <point x="379" y="1057"/>
      <point x="379" y="1132" type="curve"/>
      <point x="379" y="1204"/>
      <point x="469" y="1241"/>
      <point x="544" y="1241" type="curve"/>
      <point x="772" y="1241"/>
      <point x="967" y="1129"/>
      <point x="1012" y="1091" type="curve"/>
      <point x="1072" y="1162"/>
      <point x="1184" y="1252"/>
      <point x="1372" y="1252" type="curve"/>
      <point x="1556" y="1252"/>
      <point x="1762" y="1140"/>
      <point x="1762" y="1091" type="curve"/>
      <point x="1762" y="0" type="line"/>
      <point x="2062" y="0" type="line"/>
      <point x="2062" y="1166" type="line"/>
      <point x="2062" y="1264"/>
      <point x="1710" y="1440"/>
      <point x="1372" y="1440" type="curve"/>
      <point x="1214" y="1440"/>
      <point x="1095" y="1391"/>
      <point x="1001" y="1301" type="curve"/>
      <point x="892" y="1363"/>
      <point x="765" y="1440"/>
      <point x="510" y="1440" type="curve"/>
      <point x="334" y="1440"/>
      <point x="135" y="1324"/>
      <point x="135" y="1155" type="curve"/>
      <point x="135" y="1084"/>
      <point x="206" y="1020"/>
      <point x="262" y="982" type="curve"/>
      <point x="262" y="187" type="line"/>
      <point x="262" y="94"/>
      <point x="581" y="0"/>
      <point x="787" y="0" type="curve"/>
      <point x="843" y="0"/>
      <point x="949" y="7"/>
      <point x="1012" y="19" type="curve"/>
      <point x="1012" y="-150" type="line"/>
      <point x="1312" y="-150" type="line"/>
      <point x="1312" y="844" type="line"/>
      <point x="1012" y="844" type="line"/>
    </contour>
  </outline>
</glyph>
<glyph name="uni17B7.narrow" format="2">
  <anchor x="-188" y="2043" name="U"/>
  <anchor x="-188" y="1440" name="_U"/>
  <anchor x="-369" y="2003" name="um"/>
  <outline>
    <contour>
      <point x="-465" y="1672" type="curve" smooth="yes"/>
      <point x="-311" y="1672"/>
      <point x="-248" y="1590"/>
      <point x="-98" y="1590" type="curve"/>
      <point x="-41" y="1590"/>
      <point x="0" y="1639"/>
      <point x="0" y="1676" type="curve"/>
      <point x="0" y="1687"/>
      <point x="0" y="1702"/>
      <point x="-11" y="1725" type="curve"/>
      <point x="-124" y="1924"/>
      <point x="-300" y="2077"/>
      <point x="-473" y="2077" type="curve"/>
      <point x="-649" y="2077"/>
      <point x="-788" y="1950"/>
      <point x="-788" y="1811" type="curve"/>
      <point x="-788" y="1721"/>
      <point x="-709" y="1661"/>
      <point x="-608" y="1661" type="curve"/>
      <point x="-544" y="1661"/>
      <point x="-525" y="1672"/>
    </contour>
    <contour>
      <point x="-435" y="1837" type="curve" smooth="yes"/>
      <point x="-461" y="1837"/>
      <point x="-476" y="1830"/>
      <point x="-495" y="1830" type="curve"/>
      <point x="-510" y="1830"/>
      <point x="-525" y="1841"/>
      <point x="-525" y="1864" type="curve" smooth="yes"/>
      <point x="-525" y="1894"/>
      <point x="-499" y="1916"/>
      <point x="-461" y="1916" type="curve"/>
      <point x="-386" y="1916"/>
      <point x="-326" y="1849"/>
      <point x="-304" y="1807" type="curve"/>
      <point x="-338" y="1830"/>
      <point x="-379" y="1837"/>
    </contour>
  </outline>
</glyph>
<glyph name="uni17B8.ms.high" format="2">
  <outline>
    <contour>
      <point x="-841" y="1962" type="curve" smooth="yes"/>
      <point x="-706" y="1962"/>
      <point x="-586" y="1936"/>
      <point x="-484" y="1912" type="curve" smooth="yes"/>
      <point x="-413" y="1895"/>
      <point x="-349" y="1880"/>
      <point x="-286" y="1880" type="curve" smooth="yes"/>
      <point x="-254" y="1880"/>
      <point x="-229" y="1896"/>
      <point x="-210" y="1914" type="curve"/>
      <point x="-124" y="2000"/>
      <point x="-98" y="2183"/>
      <point x="-98" y="2264" type="curve" smooth="yes"/>
      <point x="-98" y="2312"/>
      <point x="-103" y="2419"/>
      <point x="-169" y="2481" type="curve" smooth="yes"/>
      <point x="-210" y="2520"/>
      <point x="-259" y="2524"/>
      <point x="-289" y="2524" type="curve" smooth="yes"/>
      <point x="-331" y="2524"/>
      <point x="-391" y="2495"/>
      <point x="-391" y="2439" type="curve" smooth="yes"/>
      <point x="-391" y="2412"/>
      <point x="-386" y="2392"/>
      <point x="-372" y="2375" type="curve"/>
      <point x="-337" y="2335"/>
      <point x="-317" y="2277"/>
      <point x="-317" y="2218" type="curve" smooth="yes"/>
      <point x="-317" y="2200"/>
      <point x="-319" y="2181"/>
      <point x="-323" y="2163" type="curve"/>
      <point x="-462" y="2285"/>
      <point x="-657" y="2367"/>
      <point x="-811" y="2367" type="curve" smooth="yes"/>
      <point x="-1024" y="2367"/>
      <point x="-1238" y="2240"/>
      <point x="-1238" y="2101" type="curve" smooth="yes"/>
      <point x="-1238" y="2011"/>
      <point x="-1159" y="1951"/>
      <point x="-1058" y="1951" type="curve" smooth="yes"/>
      <point x="-1017" y="1951"/>
      <point x="-972" y="1955"/>
      <point x="-927" y="1959" type="curve" smooth="yes"/>
      <point x="-893" y="1962"/>
      <point x="-859" y="1962"/>
    </contour>
    <contour>
      <point x="-822" y="2131" type="curve" smooth="yes"/>
      <point x="-882" y="2131"/>
      <point x="-904" y="2120"/>
      <point x="-946" y="2120" type="curve" smooth="yes"/>
      <point x="-961" y="2120"/>
      <point x="-976" y="2131"/>
      <point x="-976" y="2146" type="curve" smooth="yes"/>
      <point x="-976" y="2184"/>
      <point x="-893" y="2206"/>
      <point x="-799" y="2206" type="curve" smooth="yes"/>
      <point x="-687" y="2206"/>
      <point x="-589" y="2161"/>
      <point x="-507" y="2090" type="curve"/>
      <point x="-589" y="2112"/>
      <point x="-691" y="2131"/>
    </contour>
  </outline>
</glyph>
<glyph name="uni17B8.ms.narrowhigh" format="2">
  <outline>
    <contour>
      <point x="-465" y="1963" type="curve" smooth="yes"/>
      <point x="-311" y="1963"/>
      <point x="-248" y="1880"/>
      <point x="-98" y="1880" type="curve" smooth="yes"/>
      <point x="-58" y="1880"/>
      <point x="-27" y="1903"/>
      <point x="-11" y="1930" type="curve"/>
      <point x="57" y="2031"/>
      <point x="90" y="2166"/>
      <point x="90" y="2272" type="curve" smooth="yes"/>
      <point x="90" y="2384"/>
      <point x="42" y="2500"/>
      <point x="-85" y="2500" type="curve" smooth="yes"/>
      <point x="-119" y="2500"/>
      <point x="-170" y="2477"/>
      <point x="-170" y="2436" type="curve" smooth="yes"/>
      <point x="-170" y="2406"/>
      <point x="-163" y="2387"/>
      <point x="-144" y="2365" type="curve" smooth="yes"/>
      <point x="-102" y="2315"/>
      <point x="-89" y="2274"/>
      <point x="-89" y="2173" type="curve" smooth="yes"/>
      <point x="-89" y="2159"/>
      <point x="-93" y="2133"/>
      <point x="-100" y="2120" type="curve"/>
      <point x="-209" y="2266"/>
      <point x="-332" y="2368"/>
      <point x="-473" y="2368" type="curve" smooth="yes"/>
      <point x="-649" y="2368"/>
      <point x="-788" y="2240"/>
      <point x="-788" y="2102" type="curve" smooth="yes"/>
      <point x="-788" y="2012"/>
      <point x="-709" y="1952"/>
      <point x="-608" y="1952" type="curve" smooth="yes"/>
      <point x="-544" y="1952"/>
      <point x="-525" y="1963"/>
    </contour>
    <contour>
      <point x="-435" y="2128" type="curve" smooth="yes"/>
      <point x="-461" y="2128"/>
      <point x="-476" y="2120"/>
      <point x="-495" y="2120" type="curve" smooth="yes"/>
      <point x="-510" y="2120"/>
      <point x="-525" y="2132"/>
      <point x="-525" y="2154" type="curve" smooth="yes"/>
      <point x="-525" y="2184"/>
      <point x="-499" y="2207"/>
      <point x="-461" y="2207" type="curve" smooth="yes"/>
      <point x="-386" y="2207"/>
      <point x="-326" y="2139"/>
      <point x="-304" y="2098" type="curve"/>
      <point x="-338" y="2120"/>
      <point x="-379" y="2128"/>
    </contour>
  </outline>
</glyph>
<glyph name="uni17B8.narrow" format="2">
  <anchor x="-188" y="2191" name="U"/>
  <anchor x="-188" y="1440" name="_U"/>
  <anchor x="-384" y="2016" name="um"/>
  <outline>
    <contour>
      <point x="-465" y="1673" type="curve" smooth="yes"/>
      <point x="-311" y="1673"/>
      <point x="-248" y="1590"/>
      <point x="-98" y="1590" type="curve" smooth="yes"/>
      <point x="-58" y="1590"/>
      <point x="-27" y="1613"/>
      <point x="-11" y="1640" type="curve"/>
      <point x="57" y="1741"/>
      <point x="90" y="1876"/>
      <point x="90" y="1982" type="curve" smooth="yes"/>
      <point x="90" y="2059"/>
      <point x="66" y="2123"/>
      <point x="30" y="2164" type="curve" smooth="yes"/>
      <point x="4" y="2194"/>
      <point x="-36" y="2210"/>
      <point x="-85" y="2210" type="curve" smooth="yes"/>
      <point x="-119" y="2210"/>
      <point x="-170" y="2187"/>
      <point x="-170" y="2146" type="curve" smooth="yes"/>
      <point x="-170" y="2116"/>
      <point x="-163" y="2097"/>
      <point x="-144" y="2075" type="curve" smooth="yes"/>
      <point x="-102" y="2025"/>
      <point x="-89" y="1984"/>
      <point x="-89" y="1883" type="curve" smooth="yes"/>
      <point x="-89" y="1869"/>
      <point x="-93" y="1843"/>
      <point x="-100" y="1830" type="curve"/>
      <point x="-209" y="1976"/>
      <point x="-332" y="2078"/>
      <point x="-473" y="2078" type="curve" smooth="yes"/>
      <point x="-649" y="2078"/>
      <point x="-788" y="1950"/>
      <point x="-788" y="1812" type="curve" smooth="yes"/>
      <point x="-788" y="1722"/>
      <point x="-709" y="1662"/>
      <point x="-608" y="1662" type="curve" smooth="yes"/>
      <point x="-544" y="1662"/>
      <point x="-525" y="1673"/>
    </contour>
    <contour>
      <point x="-435" y="1838" type="curve" smooth="yes"/>
      <point x="-461" y="1838"/>
      <point x="-476" y="1830"/>
      <point x="-495" y="1830" type="curve" smooth="yes"/>
      <point x="-510" y="1830"/>
      <point x="-525" y="1842"/>
      <point x="-525" y="1864" type="curve" smooth="yes"/>
      <point x="-525" y="1894"/>
      <point x="-499" y="1917"/>
      <point x="-461" y="1917" type="curve" smooth="yes"/>
      <point x="-386" y="1917"/>
      <point x="-326" y="1849"/>
      <point x="-304" y="1808" type="curve"/>
      <point x="-338" y="1830"/>
      <point x="-379" y="1838"/>
    </contour>
  </outline>
</glyph>
<glyph name="uni17BC.narrow" format="2">
  <anchor x="-396" y="0" name="_lm"/>
  <outline>
    <contour>
      <point x="-761" y="-266" type="curve" smooth="yes"/>
      <point x="-761" y="-296"/>
      <point x="-728" y="-338"/>
      <point x="-668" y="-353" type="curve"/>
      <point x="-668" y="-454"/>
      <point x="-818" y="-566"/>
      <point x="-818" y="-649" type="curve" smooth="yes"/>
      <point x="-818" y="-698"/>
      <point x="-750" y="-825"/>
      <point x="-503" y="-825" type="curve" smooth="yes"/>
      <point x="-379" y="-825"/>
      <point x="-308" y="-799"/>
      <point x="-259" y="-750" type="curve" smooth="yes"/>
      <point x="-173" y="-664"/>
      <point x="-124" y="-551"/>
      <point x="-106" y="-431" type="curve" smooth="yes"/>
      <point x="-83" y="-281"/>
      <point x="-79" y="-203"/>
      <point x="-38" y="-131" type="curve"/>
      <point x="-188" y="-188"/>
      <point x="-326" y="-308"/>
      <point x="-338" y="-428" type="curve"/>
      <point x="-356" y="-536"/>
      <point x="-424" y="-664"/>
      <point x="-484" y="-664" type="curve" smooth="yes"/>
      <point x="-518" y="-664"/>
      <point x="-549" y="-647"/>
      <point x="-549" y="-618" type="curve" smooth="yes"/>
      <point x="-549" y="-588"/>
      <point x="-497" y="-541"/>
      <point x="-468" y="-496" type="curve" smooth="yes"/>
      <point x="-439" y="-450"/>
      <point x="-390" y="-360"/>
      <point x="-390" y="-259" type="curve" smooth="yes"/>
      <point x="-390" y="-195"/>
      <point x="-491" y="-150"/>
      <point x="-608" y="-150" type="curve" smooth="yes"/>
      <point x="-683" y="-150"/>
      <point x="-761" y="-195"/>
    </contour>
  </outline>
</glyph>
<glyph name="uni17BD.low" format="2">
  <anchor x="-188" y="-713" name="_L"/>
  <outline>
    <contour>
      <point x="-960" y="-904" type="curve" smooth="yes"/>
      <point x="-960" y="-934"/>
      <point x="-926" y="-975"/>
      <point x="-866" y="-990" type="curve"/>
      <point x="-866" y="-1061"/>
      <point x="-971" y="-1058"/>
      <point x="-971" y="-1121" type="curve" smooth="yes"/>
      <point x="-971" y="-1178"/>
      <point x="-934" y="-1230"/>
      <point x="-848" y="-1230" type="curve" smooth="yes"/>
      <point x="-791" y="-1230"/>
      <point x="-698" y="-1200"/>
      <point x="-641" y="-1159" type="curve"/>
      <point x="-615" y="-1193"/>
      <point x="-559" y="-1230"/>
      <point x="-503" y="-1230" type="curve" smooth="yes"/>
      <point x="-338" y="-1230"/>
      <point x="-302" y="-1127"/>
      <point x="-281" y="-981" type="curve" smooth="yes"/>
      <point x="-272" y="-917"/>
      <point x="-233" y="-818"/>
      <point x="-188" y="-769" type="curve"/>
      <point x="-334" y="-795"/>
      <point x="-491" y="-842"/>
      <point x="-503" y="-971" type="curve"/>
      <point x="-514" y="-1046"/>
      <point x="-521" y="-1080"/>
      <point x="-555" y="-1080" type="curve" smooth="yes"/>
      <point x="-574" y="-1080"/>
      <point x="-600" y="-1050"/>
      <point x="-600" y="-1009" type="curve"/>
      <point x="-634" y="-1050"/>
      <point x="-668" y="-1069"/>
      <point x="-701" y="-1069" type="curve" smooth="yes"/>
      <point x="-716" y="-1069"/>
      <point x="-724" y="-1063"/>
      <point x="-724" y="-1056" type="curve" smooth="yes"/>
      <point x="-724" y="-1018"/>
      <point x="-608" y="-984"/>
      <point x="-608" y="-911" type="curve" smooth="yes"/>
      <point x="-608" y="-848"/>
      <point x="-690" y="-788"/>
      <point x="-806" y="-788" type="curve" smooth="yes"/>
      <point x="-881" y="-788"/>
      <point x="-960" y="-833"/>
    </contour>
  </outline>
</glyph>
<glyph name="uni17C6.x" format="2">
  <outline>
    <contour>
      <point x="-1519" y="2245" type="curve" smooth="yes"/>
      <point x="-1519" y="2290"/>
      <point x="-1493" y="2320"/>
      <point x="-1463" y="2320" type="curve" smooth="yes"/>
      <point x="-1433" y="2320"/>
      <point x="-1406" y="2290"/>
      <point x="-1406" y="2245" type="curve" smooth="yes"/>
      <point x="-1406" y="2200"/>
      <point x="-1433" y="2170"/>
      <point x="-1463" y="2170" type="curve" smooth="yes"/>
      <point x="-1493" y="2170"/>
      <point x="-1519" y="2200"/>
    </contour>
    <contour>
      <point x="-1763" y="2245" type="curve" smooth="yes"/>
      <point x="-1763" y="2114"/>
      <point x="-1646" y="2020"/>
      <point x="-1463" y="2020" type="curve" smooth="yes"/>
      <point x="-1279" y="2020"/>
      <point x="-1163" y="2114"/>
      <point x="-1163" y="2245" type="curve" smooth="yes"/>
      <point x="-1163" y="2377"/>
      <point x="-1279" y="2470"/>
      <point x="-1463" y="2470" type="curve" smooth="yes"/>
      <point x="-1646" y="2470"/>
      <point x="-1763" y="2377"/>
    </contour>
  </outline>
</glyph>
<glyph name="uni17C9.a" format="2">
  <guideline x="-938"/>
  <guideline x="-488"/>
  <outline>
    <contour>
      <point x="-708" y="1860" type="curve" smooth="yes"/>
      <point x="-708" y="1789"/>
      <point x="-621" y="1755"/>
      <point x="-591" y="1751" type="curve"/>
      <point x="-573" y="1751"/>
      <point x="-573" y="1732"/>
      <point x="-573" y="1717" type="curve" smooth="yes"/>
      <point x="-573" y="1646"/>
      <point x="-625" y="1620"/>
      <point x="-625" y="1601" type="curve" smooth="yes"/>
      <point x="-625" y="1594"/>
      <point x="-614" y="1590"/>
      <point x="-595" y="1590" type="curve" smooth="yes"/>
      <point x="-494" y="1590"/>
      <point x="-370" y="1695"/>
      <point x="-370" y="1856" type="curve" smooth="yes"/>
      <point x="-370" y="1927"/>
      <point x="-423" y="1984"/>
      <point x="-543" y="1984" type="curve" smooth="yes"/>
      <point x="-663" y="1984"/>
      <point x="-708" y="1931"/>
    </contour>
    <contour>
      <point x="-1083" y="1860" type="curve" smooth="yes"/>
      <point x="-1083" y="1789"/>
      <point x="-996" y="1755"/>
      <point x="-966" y="1751" type="curve"/>
      <point x="-948" y="1751"/>
      <point x="-948" y="1732"/>
      <point x="-948" y="1717" type="curve" smooth="yes"/>
      <point x="-948" y="1646"/>
      <point x="-1000" y="1620"/>
      <point x="-1000" y="1601" type="curve" smooth="yes"/>
      <point x="-1000" y="1594"/>
      <point x="-989" y="1590"/>
      <point x="-970" y="1590" type="curve" smooth="yes"/>
      <point x="-869" y="1590"/>
      <point x="-745" y="1695"/>
      <point x="-745" y="1856" type="curve" smooth="yes"/>
      <point x="-745" y="1927"/>
      <point x="-798" y="1984"/>
      <point x="-918" y="1984" type="curve" smooth="yes"/>
      <point x="-1038" y="1984"/>
      <point x="-1083" y="1931"/>
    </contour>
  </outline>
</glyph>
<glyph name="uni17CD.ms.high" format="2">
  <outline>
    <contour>
      <point x="-713" y="1880" type="curve" smooth="yes"/>
      <point x="-507" y="1880"/>
      <point x="-391" y="1985"/>
      <point x="-391" y="2064" type="curve" smooth="yes"/>
      <point x="-391" y="2094"/>
      <point x="-432" y="2147"/>
      <point x="-507" y="2147" type="curve" smooth="yes"/>
      <point x="-563" y="2147"/>
      <point x="-593" y="2128"/>
      <point x="-620" y="2094" type="curve"/>
      <point x="-631" y="2075"/>
      <point x="-653" y="2057"/>
      <point x="-702" y="2057" type="curve" smooth="yes"/>
      <point x="-743" y="2057"/>
      <point x="-770" y="2094"/>
      <point x="-770" y="2139" type="curve" smooth="yes"/>
      <point x="-770" y="2188"/>
      <point x="-721" y="2237"/>
      <point x="-642" y="2248" type="curve"/>
      <point x="-447" y="2263"/>
      <point x="-286" y="2334"/>
      <point x="-286" y="2510" type="curve" smooth="yes"/>
      <point x="-286" y="2589"/>
      <point x="-387" y="2694"/>
      <point x="-605" y="2705" type="curve"/>
      <point x="-556" y="2664"/>
      <point x="-522" y="2612"/>
      <point x="-522" y="2540" type="curve" smooth="yes"/>
      <point x="-522" y="2462"/>
      <point x="-590" y="2417"/>
      <point x="-721" y="2405" type="curve" smooth="yes"/>
      <point x="-920" y="2387"/>
      <point x="-1010" y="2255"/>
      <point x="-1010" y="2117" type="curve" smooth="yes"/>
      <point x="-1010" y="1985"/>
      <point x="-897" y="1880"/>
    </contour>
  </outline>
</glyph>
<glyph name="uni17CD.ms.high2" format="2">
  <outline>
    <contour>
      <point x="-713" y="2110" type="curve" smooth="yes"/>
      <point x="-507" y="2110"/>
      <point x="-390" y="2215"/>
      <point x="-390" y="2294" type="curve" smooth="yes"/>
      <point x="-390" y="2324"/>
      <point x="-432" y="2376"/>
      <point x="-507" y="2376" type="curve" smooth="yes"/>
      <point x="-563" y="2376"/>
      <point x="-593" y="2358"/>
      <point x="-619" y="2324" type="curve"/>
      <point x="-630" y="2305"/>
      <point x="-653" y="2286"/>
      <point x="-702" y="2286" type="curve" smooth="yes"/>
      <point x="-743" y="2286"/>
      <point x="-769" y="2324"/>
      <point x="-769" y="2369" type="curve" smooth="yes"/>
      <point x="-769" y="2418"/>
      <point x="-720" y="2466"/>
      <point x="-642" y="2478" type="curve"/>
      <point x="-447" y="2493"/>
      <point x="-285" y="2564"/>
      <point x="-285" y="2740" type="curve" smooth="yes"/>
      <point x="-285" y="2819"/>
      <point x="-387" y="2924"/>
      <point x="-604" y="2935" type="curve"/>
      <point x="-555" y="2894"/>
      <point x="-522" y="2841"/>
      <point x="-522" y="2770" type="curve" smooth="yes"/>
      <point x="-522" y="2691"/>
      <point x="-589" y="2646"/>
      <point x="-720" y="2634" type="curve" smooth="yes"/>
      <point x="-919" y="2616"/>
      <point x="-1009" y="2485"/>
      <point x="-1009" y="2346" type="curve" smooth="yes"/>
      <point x="-1009" y="2215"/>
      <point x="-897" y="2110"/>
    </contour>
  </outline>
</glyph>
<glyph name="uni17CF.ms.high" format="2">
  <outline>
    <contour>
      <point x="-1168" y="2101" type="curve" smooth="yes"/>
      <point x="-1168" y="1966"/>
      <point x="-1014" y="1880"/>
      <point x="-898" y="1880" type="curve"/>
      <point x="-804" y="1880"/>
      <point x="-755" y="1936"/>
      <point x="-714" y="1936" type="curve" smooth="yes"/>
      <point x="-688" y="1936"/>
      <point x="-643" y="1880"/>
      <point x="-541" y="1880" type="curve" smooth="yes"/>
      <point x="-350" y="1880"/>
      <point x="-268" y="1992"/>
      <point x="-268" y="2094" type="curve" smooth="yes"/>
      <point x="-268" y="2135"/>
      <point x="-301" y="2202"/>
      <point x="-406" y="2202" type="curve" smooth="yes"/>
      <point x="-474" y="2202"/>
      <point x="-526" y="2180"/>
      <point x="-526" y="2139" type="curve" smooth="yes"/>
      <point x="-526" y="2127"/>
      <point x="-511" y="2112"/>
      <point x="-511" y="2101" type="curve" smooth="yes"/>
      <point x="-511" y="2071"/>
      <point x="-530" y="2056"/>
      <point x="-571" y="2056" type="curve" smooth="yes"/>
      <point x="-620" y="2056"/>
      <point x="-658" y="2124"/>
      <point x="-714" y="2124" type="curve" smooth="yes"/>
      <point x="-763" y="2124"/>
      <point x="-793" y="2064"/>
      <point x="-856" y="2064" type="curve" smooth="yes"/>
      <point x="-898" y="2064"/>
      <point x="-924" y="2097"/>
      <point x="-924" y="2139" type="curve" smooth="yes"/>
      <point x="-924" y="2202"/>
      <point x="-856" y="2229"/>
      <point x="-815" y="2229" type="curve" smooth="yes"/>
      <point x="-729" y="2229"/>
      <point x="-695" y="2191"/>
      <point x="-631" y="2191" type="curve" smooth="yes"/>
      <point x="-485" y="2191"/>
      <point x="-324" y="2277"/>
      <point x="-324" y="2394" type="curve" smooth="yes"/>
      <point x="-324" y="2446"/>
      <point x="-294" y="2487"/>
      <point x="-268" y="2517" type="curve"/>
      <point x="-286" y="2529"/>
      <point x="-343" y="2536"/>
      <point x="-388" y="2536" type="curve"/>
      <point x="-508" y="2536"/>
      <point x="-568" y="2502"/>
      <point x="-568" y="2446" type="curve" smooth="yes"/>
      <point x="-568" y="2390"/>
      <point x="-590" y="2367"/>
      <point x="-669" y="2367" type="curve" smooth="yes"/>
      <point x="-725" y="2367"/>
      <point x="-766" y="2397"/>
      <point x="-853" y="2397" type="curve" smooth="yes"/>
      <point x="-1014" y="2397"/>
      <point x="-1168" y="2285"/>
    </contour>
  </outline>
</glyph>
<glyph name="uni17D0.ms.high" format="2">
  <outline>
    <contour>
      <point x="-225" y="2244" type="curve" smooth="yes"/>
      <point x="-225" y="2323"/>
      <point x="-323" y="2349"/>
      <point x="-413" y="2349" type="curve"/>
      <point x="-566" y="2349"/>
      <point x="-638" y="2278"/>
      <point x="-638" y="2192" type="curve"/>
      <point x="-638" y="2053"/>
      <point x="-510" y="1880"/>
      <point x="-263" y="1880" type="curve"/>
      <point x="-4" y="1880"/>
      <point x="225" y="2023"/>
      <point x="225" y="2304" type="curve"/>
      <point x="225" y="2357"/>
      <point x="210" y="2432"/>
      <point x="157" y="2492" type="curve"/>
      <point x="109" y="2548"/>
      <point x="34" y="2574"/>
      <point x="-68" y="2574" type="curve" smooth="yes"/>
      <point x="-143" y="2574"/>
      <point x="-191" y="2552"/>
      <point x="-191" y="2495" type="curve"/>
      <point x="-191" y="2443"/>
      <point x="-161" y="2424"/>
      <point x="-90" y="2379" type="curve"/>
      <point x="-56" y="2357"/>
      <point x="-38" y="2319"/>
      <point x="-38" y="2270" type="curve" smooth="yes"/>
      <point x="-38" y="2203"/>
      <point x="-56" y="2147"/>
      <point x="-93" y="2108" type="curve"/>
      <point x="-146" y="2053"/>
      <point x="-199" y="2030"/>
      <point x="-255" y="2030" type="curve" smooth="yes"/>
      <point x="-308" y="2030"/>
      <point x="-341" y="2075"/>
      <point x="-341" y="2124" type="curve"/>
      <point x="-293" y="2139"/>
      <point x="-225" y="2188"/>
    </contour>
  </outline>
</glyph>
<glyph name="uni17D1.ms.narrowhigh" format="2">
  <outline>
    <contour>
      <point x="-675" y="1880" type="line"/>
      <point x="0" y="1880" type="line"/>
      <point x="0" y="2067" type="line"/>
      <point x="-675" y="2067" type="line"/>
    </contour>
  </outline>
</glyph>
<glyph name="uni17D1.narrow" format="2">
  <anchor x="-188" y="1800" name="U"/>
  <anchor x="-338" y="1440" name="_um"/>
  <anchor x="-338" y="1750" name="um"/>
  <outline>
    <contour>
      <point x="-675" y="1590" type="line"/>
      <point x="0" y="1590" type="line"/>
      <point x="0" y="1778" type="line"/>
      <point x="-675" y="1778" type="line"/>
    </contour>
  </outline>
</glyph>
<glyph name="uni17D21781.low" format="2">
  <anchor x="-188" y="-1238" name="L"/>
  <anchor x="-188" y="-713" name="_L"/>
  <anchor x="-639" y="-713" name="_lm"/>
  <anchor x="-639" y="-1238" name="lm"/>
  <outline>
    <contour>
      <point x="-1085" y="-923" type="curve" smooth="yes"/>
      <point x="-1085" y="-968"/>
      <point x="-1033" y="-998"/>
      <point x="-1006" y="-1005" type="curve"/>
      <point x="-965" y="-1028"/>
      <point x="-860" y="-1031"/>
      <point x="-830" y="-1031" type="curve" smooth="yes"/>
      <point x="-759" y="-1031"/>
      <point x="-676" y="-1005"/>
      <point x="-676" y="-971" type="curve" smooth="yes"/>
      <point x="-676" y="-945"/>
      <point x="-725" y="-915"/>
      <point x="-796" y="-915" type="curve" smooth="yes"/>
      <point x="-815" y="-915"/>
      <point x="-834" y="-919"/>
      <point x="-860" y="-923" type="curve"/>
      <point x="-860" y="-900"/>
      <point x="-770" y="-878"/>
      <point x="-639" y="-878" type="curve" smooth="yes"/>
      <point x="-493" y="-878"/>
      <point x="-414" y="-900"/>
      <point x="-414" y="-919" type="curve" smooth="yes"/>
      <point x="-414" y="-934"/>
      <point x="-478" y="-960"/>
      <point x="-605" y="-998" type="curve" smooth="yes"/>
      <point x="-680" y="-1020"/>
      <point x="-781" y="-1044"/>
      <point x="-868" y="-1056" type="curve" smooth="yes"/>
      <point x="-969" y="-1070"/>
      <point x="-1085" y="-1088"/>
      <point x="-1085" y="-1095" type="curve" smooth="yes"/>
      <point x="-1085" y="-1211"/>
      <point x="-856" y="-1238"/>
      <point x="-590" y="-1238" type="curve" smooth="yes"/>
      <point x="-279" y="-1238"/>
      <point x="-189" y="-1208"/>
      <point x="-189" y="-1114" type="curve" smooth="yes"/>
      <point x="-189" y="-1070"/>
      <point x="-244" y="-1044"/>
      <point x="-335" y="-1031" type="curve"/>
      <point x="-309" y="-1050"/>
      <point x="-297" y="-1065"/>
      <point x="-297" y="-1088" type="curve" smooth="yes"/>
      <point x="-297" y="-1136"/>
      <point x="-433" y="-1148"/>
      <point x="-534" y="-1148" type="curve" smooth="yes"/>
      <point x="-646" y="-1148"/>
      <point x="-729" y="-1140"/>
      <point x="-751" y="-1136" type="curve"/>
      <point x="-601" y="-1114"/>
      <point x="-391" y="-1050"/>
      <point x="-342" y="-1028" type="curve"/>
      <point x="-279" y="-994"/>
      <point x="-189" y="-960"/>
      <point x="-189" y="-911" type="curve" smooth="yes"/>
      <point x="-189" y="-840"/>
      <point x="-346" y="-788"/>
      <point x="-639" y="-788" type="curve" smooth="yes"/>
      <point x="-931" y="-788"/>
      <point x="-1085" y="-851"/>
    </contour>
  </outline>
</glyph>
<glyph name="uni17D21782" format="2">
  <anchor x="-188" y="-713" name="L"/>
  <anchor x="-188" y="0" name="_L"/>
  <anchor x="-639" y="0" name="_lm"/>
  <anchor x="-639" y="-713" name="lm"/>
  <outline>
    <contour>
      <point x="-811" y="-713" type="line"/>
      <point x="-789" y="-649"/>
      <point x="-725" y="-596"/>
      <point x="-676" y="-574" type="curve" smooth="yes"/>
      <point x="-612" y="-544"/>
      <point x="-594" y="-510"/>
      <point x="-594" y="-484" type="curve" smooth="yes"/>
      <point x="-594" y="-450"/>
      <point x="-620" y="-405"/>
      <point x="-672" y="-405" type="curve" smooth="yes"/>
      <point x="-732" y="-405"/>
      <point x="-796" y="-499"/>
      <point x="-807" y="-521" type="curve"/>
      <point x="-807" y="-356" type="line" smooth="yes"/>
      <point x="-807" y="-308"/>
      <point x="-699" y="-281"/>
      <point x="-639" y="-281" type="curve" smooth="yes"/>
      <point x="-579" y="-281"/>
      <point x="-470" y="-308"/>
      <point x="-470" y="-356" type="curve" smooth="yes"/>
      <point x="-470" y="-713" type="line"/>
      <point x="-188" y="-713" type="line"/>
      <point x="-188" y="-345" type="line" smooth="yes"/>
      <point x="-188" y="-240"/>
      <point x="-414" y="-150"/>
      <point x="-639" y="-150" type="curve" smooth="yes"/>
      <point x="-860" y="-150"/>
      <point x="-1089" y="-240"/>
      <point x="-1089" y="-345" type="curve" smooth="yes"/>
      <point x="-1089" y="-713" type="line"/>
    </contour>
  </outline>
</glyph>
<glyph name="uni17D2178317B6.low.alt" format="2">
  <advance width="1500"/>
  <anchor x="562" y="-1238" name="L"/>
  <anchor x="1312" y="0" name="L2"/>
  <anchor x="1312" y="1440" name="U"/>
  <anchor x="753" y="1440" name="um"/>
  <anchor x="753" y="1440" name="um2"/>
  <outline>
    <contour>
      <point x="262" y="907" type="curve" smooth="yes"/>
      <point x="262" y="-1031" type="line" smooth="yes"/>
      <point x="262" y="-1076"/>
      <point x="191" y="-1107"/>
      <point x="131" y="-1107" type="curve" smooth="yes"/>
      <point x="71" y="-1107"/>
      <point x="0" y="-1076"/>
      <point x="0" y="-1031" type="curve" smooth="yes"/>
      <point x="0" y="-788" type="line"/>
      <point x="-262" y="-788" type="line"/>
      <point x="-262" y="-1031" type="line" smooth="yes"/>
      <point x="-262" y="-1076"/>
      <point x="-353" y="-1107"/>
      <point x="-413" y="-1107" type="curve" smooth="yes"/>
      <point x="-473" y="-1107"/>
      <point x="-544" y="-1076"/>
      <point x="-544" y="-1031" type="curve" smooth="yes"/>
      <point x="-544" y="-870" type="line"/>
      <point x="-555" y="-806"/>
      <point x="-675" y="-788"/>
      <point x="-765" y="-788" type="curve"/>
      <point x="-878" y="-810"/>
      <point x="-954" y="-840"/>
      <point x="-954" y="-911" type="curve" smooth="yes"/>
      <point x="-954" y="-953"/>
      <point x="-909" y="-1009"/>
      <point x="-826" y="-1028" type="curve"/>
      <point x="-826" y="-1058" type="line" smooth="yes"/>
      <point x="-826" y="-1163"/>
      <point x="-623" y="-1238"/>
      <point x="-413" y="-1238" type="curve" smooth="yes"/>
      <point x="-304" y="-1238"/>
      <point x="-214" y="-1211"/>
      <point x="-150" y="-1178" type="curve"/>
      <point x="-60" y="-1211"/>
      <point x="22" y="-1238"/>
      <point x="131" y="-1238" type="curve" smooth="yes"/>
      <point x="337" y="-1238"/>
      <point x="562" y="-1151"/>
      <point x="562" y="-1058" type="curve" smooth="yes"/>
      <point x="562" y="870" type="line" smooth="yes"/>
      <point x="562" y="937"/>
      <point x="491" y="997"/>
      <point x="375" y="1057" type="curve" smooth="yes"/>
      <point x="322" y="1084"/>
      <point x="221" y="1144"/>
      <point x="221" y="1174" type="curve" smooth="yes"/>
      <point x="221" y="1226"/>
      <point x="352" y="1309"/>
      <point x="611" y="1309" type="curve" smooth="yes"/>
      <point x="832" y="1309"/>
      <point x="1012" y="1196"/>
      <point x="1012" y="1147" type="curve" smooth="yes"/>
      <point x="1012" y="0" type="line"/>
      <point x="1312" y="0" type="line"/>
      <point x="1312" y="1166" type="line" smooth="yes"/>
      <point x="1312" y="1264"/>
      <point x="911" y="1440"/>
      <point x="611" y="1440" type="curve" smooth="yes"/>
      <point x="292" y="1440"/>
      <point x="94" y="1320"/>
      <point x="94" y="1181" type="curve" smooth="yes"/>
      <point x="94" y="1121"/>
      <point x="120" y="1072"/>
      <point x="214" y="1009" type="curve" smooth="yes"/>
      <point x="236" y="994"/>
      <point x="262" y="964"/>
    </contour>
  </outline>
</glyph>
<glyph name="uni17D2178817C5.right.alt" format="2">
  <advance width="1500"/>
  <anchor x="562" y="-713" name="L"/>
  <anchor x="1312" y="0" name="L2"/>
  <anchor x="1312" y="1922" name="U"/>
  <anchor x="753" y="1922" name="um"/>
  <anchor x="753" y="1922" name="um2"/>
  <outline>
    <contour>
      <point x="562" y="870" type="line" smooth="yes"/>
      <point x="562" y="937"/>
      <point x="491" y="997"/>
      <point x="375" y="1057" type="curve" smooth="yes"/>
      <point x="322" y="1084"/>
      <point x="221" y="1144"/>
      <point x="221" y="1174" type="curve" smooth="yes"/>
      <point x="221" y="1226"/>
      <point x="352" y="1309"/>
      <point x="611" y="1309" type="curve" smooth="yes"/>
      <point x="832" y="1309"/>
      <point x="1012" y="1196"/>
      <point x="1012" y="1147" type="curve" smooth="yes"/>
      <point x="1012" y="0" type="line"/>
      <point x="1312" y="0" type="line"/>
      <point x="1312" y="1166" type="line" smooth="yes"/>
      <point x="1312" y="1189"/>
      <point x="1289" y="1217"/>
      <point x="1250" y="1246" type="curve"/>
      <point x="1316" y="1355"/>
      <point x="1350" y="1496"/>
      <point x="1350" y="1609" type="curve" smooth="yes"/>
      <point x="1350" y="1695"/>
      <point x="1327" y="1800"/>
      <point x="1189" y="1897" type="curve"/>
      <point x="1144" y="1924"/>
      <point x="1095" y="1935"/>
      <point x="1054" y="1935" type="curve" smooth="yes"/>
      <point x="952" y="1935"/>
      <point x="907" y="1909"/>
      <point x="907" y="1841" type="curve" smooth="yes"/>
      <point x="907" y="1815"/>
      <point x="922" y="1770"/>
      <point x="972" y="1730" type="curve" smooth="yes"/>
      <point x="1024" y="1687"/>
      <point x="1050" y="1635"/>
      <point x="1050" y="1556" type="curve" smooth="yes"/>
      <point x="1050" y="1501"/>
      <point x="1028" y="1403"/>
      <point x="1010" y="1363" type="curve"/>
      <point x="885" y="1408"/>
      <point x="739" y="1440"/>
      <point x="611" y="1440" type="curve" smooth="yes"/>
      <point x="292" y="1440"/>
      <point x="94" y="1320"/>
      <point x="94" y="1181" type="curve" smooth="yes"/>
      <point x="94" y="1121"/>
      <point x="120" y="1072"/>
      <point x="214" y="1009" type="curve" smooth="yes"/>
      <point x="236" y="994"/>
      <point x="262" y="964"/>
      <point x="262" y="907" type="curve" smooth="yes"/>
      <point x="262" y="-506" type="line" smooth="yes"/>
      <point x="262" y="-551"/>
      <point x="207" y="-581"/>
      <point x="147" y="-581" type="curve" smooth="yes"/>
      <point x="87" y="-581"/>
      <point x="32" y="-551"/>
      <point x="32" y="-506" type="curve" smooth="yes"/>
      <point x="32" y="-150" type="line"/>
      <point x="-250" y="-150" type="line"/>
      <point x="-250" y="-525" type="line" smooth="yes"/>
      <point x="-250" y="-570"/>
      <point x="-326" y="-581"/>
      <point x="-356" y="-581" type="curve" smooth="yes"/>
      <point x="-386" y="-581"/>
      <point x="-462" y="-570"/>
      <point x="-462" y="-525" type="curve" smooth="yes"/>
      <point x="-462" y="-353" type="line" smooth="yes"/>
      <point x="-462" y="-248"/>
      <point x="-640" y="-150"/>
      <point x="-850" y="-150" type="curve" smooth="yes"/>
      <point x="-1060" y="-150"/>
      <point x="-1238" y="-248"/>
      <point x="-1238" y="-353" type="curve" smooth="yes"/>
      <point x="-1238" y="-630" type="line"/>
      <point x="-1227" y="-694"/>
      <point x="-1106" y="-713"/>
      <point x="-1016" y="-713" type="curve"/>
      <point x="-903" y="-690"/>
      <point x="-828" y="-660"/>
      <point x="-828" y="-589" type="curve" smooth="yes"/>
      <point x="-828" y="-548"/>
      <point x="-873" y="-491"/>
      <point x="-956" y="-473" type="curve"/>
      <point x="-956" y="-338" type="line" smooth="yes"/>
      <point x="-956" y="-293"/>
      <point x="-880" y="-282"/>
      <point x="-850" y="-282" type="curve" smooth="yes"/>
      <point x="-820" y="-282"/>
      <point x="-744" y="-293"/>
      <point x="-744" y="-338" type="curve" smooth="yes"/>
      <point x="-744" y="-510" type="line" smooth="yes"/>
      <point x="-744" y="-615"/>
      <point x="-566" y="-713"/>
      <point x="-356" y="-713" type="curve" smooth="yes"/>
      <point x="-259" y="-713"/>
      <point x="-164" y="-683"/>
      <point x="-107" y="-653" type="curve"/>
      <point x="-51" y="-686"/>
      <point x="53" y="-713"/>
      <point x="147" y="-713" type="curve" smooth="yes"/>
      <point x="353" y="-713"/>
      <point x="562" y="-626"/>
      <point x="562" y="-533" type="curve" smooth="yes"/>
    </contour>
  </outline>
</glyph>
<glyph name="uni17D2178A" format="2">
  <anchor x="-188" y="-713" name="L"/>
  <anchor x="-188" y="0" name="_L"/>
  <anchor x="-639" y="0" name="_lm"/>
  <anchor x="-639" y="-713" name="lm"/>
  <outline>
    <contour>
      <point x="-807" y="-356" type="curve"/>
      <point x="-807" y="-311"/>
      <point x="-699" y="-281"/>
      <point x="-639" y="-281" type="curve" smooth="yes"/>
      <point x="-579" y="-281"/>
      <point x="-470" y="-311"/>
      <point x="-470" y="-356" type="curve" smooth="yes"/>
      <point x="-470" y="-713" type="line"/>
      <point x="-188" y="-713" type="line"/>
      <point x="-188" y="-345" type="line"/>
      <point x="-188" y="-240"/>
      <point x="-414" y="-150"/>
      <point x="-639" y="-150" type="curve" smooth="yes"/>
      <point x="-864" y="-150"/>
      <point x="-1089" y="-240"/>
      <point x="-1089" y="-345" type="curve" smooth="yes"/>
      <point x="-1089" y="-634" type="line"/>
      <point x="-1059" y="-698"/>
      <point x="-942" y="-713"/>
      <point x="-864" y="-713" type="curve"/>
      <point x="-676" y="-686"/>
      <point x="-594" y="-548"/>
      <point x="-594" y="-495" type="curve"/>
      <point x="-594" y="-405"/>
      <point x="-702" y="-368"/>
    </contour>
    <contour>
      <point x="-702" y="-495" type="curve" smooth="yes"/>
      <point x="-702" y="-525"/>
      <point x="-759" y="-572"/>
      <point x="-807" y="-589" type="curve"/>
      <point x="-807" y="-428" type="line"/>
      <point x="-760" y="-428"/>
      <point x="-702" y="-458"/>
    </contour>
  </outline>
</glyph>
<glyph name="uni17D2178B.low" format="2">
  <anchor x="-188" y="-1238" name="L"/>
  <anchor x="-188" y="-713" name="_L"/>
  <anchor x="-699" y="-713" name="_lm"/>
  <anchor x="-699" y="-1238" name="lm"/>
  <outline>
    <contour>
      <point x="-488" y="-845" type="line"/>
      <point x="-1100" y="-845" type="line" smooth="yes"/>
      <point x="-1140" y="-845"/>
      <point x="-1149" y="-869"/>
      <point x="-1149" y="-907" type="curve" smooth="yes"/>
      <point x="-1149" y="-1034"/>
      <point x="-1010" y="-1240"/>
      <point x="-875" y="-1240" type="curve" smooth="yes"/>
      <point x="-776" y="-1240"/>
      <point x="-719" y="-1185"/>
      <point x="-699" y="-1185" type="curve" smooth="yes"/>
      <point x="-678" y="-1185"/>
      <point x="-622" y="-1240"/>
      <point x="-522" y="-1240" type="curve" smooth="yes"/>
      <point x="-384" y="-1240"/>
      <point x="-248" y="-1151"/>
      <point x="-248" y="-1030" type="curve" smooth="yes"/>
      <point x="-248" y="-975" type="line"/>
      <point x="-158" y="-975" type="line"/>
      <point x="-158" y="-845" type="line"/>
      <point x="-248" y="-845" type="line"/>
      <point x="-248" y="-788" type="line"/>
      <point x="-488" y="-788" type="line"/>
    </contour>
    <contour>
      <point x="-488" y="-975" type="line"/>
      <point x="-488" y="-1017" type="line" smooth="yes"/>
      <point x="-488" y="-1057"/>
      <point x="-505" y="-1103"/>
      <point x="-552" y="-1103" type="curve" smooth="yes"/>
      <point x="-619" y="-1103"/>
      <point x="-652" y="-1048"/>
      <point x="-699" y="-1048" type="curve" smooth="yes"/>
      <point x="-746" y="-1048"/>
      <point x="-778" y="-1103"/>
      <point x="-845" y="-1103" type="curve" smooth="yes"/>
      <point x="-886" y="-1103"/>
      <point x="-944" y="-1043"/>
      <point x="-944" y="-998" type="curve" smooth="yes"/>
      <point x="-944" y="-981"/>
      <point x="-937" y="-975"/>
      <point x="-927" y="-975" type="curve" smooth="yes"/>
    </contour>
  </outline>
</glyph>
<glyph name="uni17D2178E" format="2">
  <anchor x="-188" y="-713" name="L"/>
  <anchor x="-188" y="0" name="_L"/>
  <anchor x="-938" y="0" name="_lm"/>
  <anchor x="-938" y="-713" name="lm"/>
  <outline>
    <contour>
      <point x="-1528" y="-473" type="curve"/>
      <point x="-1528" y="-360" type="line" smooth="yes"/>
      <point x="-1528" y="-315"/>
      <point x="-1472" y="-281"/>
      <point x="-1416" y="-281" type="curve" smooth="yes"/>
      <point x="-1359" y="-281"/>
      <point x="-1304" y="-311"/>
      <point x="-1304" y="-356" type="curve" smooth="yes"/>
      <point x="-1304" y="-671" type="line" smooth="yes"/>
      <point x="-1304" y="-698"/>
      <point x="-1274" y="-713"/>
      <point x="-1214" y="-713" type="curve" smooth="yes"/>
      <point x="-1075" y="-713" type="line" smooth="yes"/>
      <point x="-997" y="-713"/>
      <point x="-965" y="-668"/>
      <point x="-938" y="-626" type="curve"/>
      <point x="-912" y="-668"/>
      <point x="-880" y="-713"/>
      <point x="-802" y="-713" type="curve" smooth="yes"/>
      <point x="-651" y="-713" type="line" smooth="yes"/>
      <point x="-598" y="-713"/>
      <point x="-572" y="-698"/>
      <point x="-572" y="-671" type="curve" smooth="yes"/>
      <point x="-572" y="-360" type="line" smooth="yes"/>
      <point x="-572" y="-315"/>
      <point x="-517" y="-281"/>
      <point x="-460" y="-281" type="curve" smooth="yes"/>
      <point x="-404" y="-281"/>
      <point x="-348" y="-311"/>
      <point x="-348" y="-356" type="curve" smooth="yes"/>
      <point x="-348" y="-713" type="line"/>
      <point x="-66" y="-713" type="line"/>
      <point x="-66" y="-341" type="line" smooth="yes"/>
      <point x="-66" y="-236"/>
      <point x="-269" y="-150"/>
      <point x="-460" y="-150" type="curve" smooth="yes"/>
      <point x="-652" y="-150"/>
      <point x="-854" y="-236"/>
      <point x="-854" y="-341" type="curve" smooth="yes"/>
      <point x="-854" y="-555" type="line"/>
      <point x="-895" y="-536"/>
      <point x="-927" y="-476"/>
      <point x="-938" y="-476" type="curve" smooth="yes"/>
      <point x="-950" y="-476"/>
      <point x="-981" y="-536"/>
      <point x="-1022" y="-555" type="curve"/>
      <point x="-1022" y="-341" type="line" smooth="yes"/>
      <point x="-1022" y="-236"/>
      <point x="-1225" y="-150"/>
      <point x="-1417" y="-150" type="curve" smooth="yes"/>
      <point x="-1608" y="-150"/>
      <point x="-1810" y="-236"/>
      <point x="-1810" y="-341" type="curve" smooth="yes"/>
      <point x="-1810" y="-630" type="line"/>
      <point x="-1799" y="-694"/>
      <point x="-1678" y="-713"/>
      <point x="-1588" y="-713" type="curve"/>
      <point x="-1476" y="-690"/>
      <point x="-1401" y="-660"/>
      <point x="-1401" y="-589" type="curve" smooth="yes"/>
      <point x="-1401" y="-548"/>
      <point x="-1446" y="-491"/>
    </contour>
  </outline>
</glyph>
<glyph name="uni17D217A0.alt" format="2">
  <anchor x="-188" y="-713" name="L"/>
  <anchor x="-188" y="0" name="_L"/>
  <anchor x="-715" y="0" name="_lm"/>
  <anchor x="-715" y="-713" name="lm"/>
  <outline>
    <contour>
      <point x="-1238" y="-510" type="line"/>
      <point x="-1238" y="-615"/>
      <point x="-1118" y="-713"/>
      <point x="-908" y="-713" type="curve" smooth="yes"/>
      <point x="-698" y="-713"/>
      <point x="-578" y="-615"/>
      <point x="-578" y="-510" type="curve" smooth="yes"/>
      <point x="-578" y="-338" type="line" smooth="yes"/>
      <point x="-578" y="-293"/>
      <point x="-548" y="-281"/>
      <point x="-518" y="-281" type="curve" smooth="yes"/>
      <point x="-488" y="-281"/>
      <point x="-458" y="-293"/>
      <point x="-458" y="-338" type="curve" smooth="yes"/>
      <point x="-458" y="-713" type="line"/>
      <point x="-188" y="-713" type="line"/>
      <point x="-188" y="-341" type="line"/>
      <point x="-188" y="-236"/>
      <point x="-308" y="-150"/>
      <point x="-518" y="-150" type="curve" smooth="yes"/>
      <point x="-728" y="-150"/>
      <point x="-848" y="-236"/>
      <point x="-848" y="-341" type="curve" smooth="yes"/>
      <point x="-848" y="-525" type="line" smooth="yes"/>
      <point x="-848" y="-570"/>
      <point x="-878" y="-581"/>
      <point x="-908" y="-581" type="curve" smooth="yes"/>
      <point x="-938" y="-581"/>
      <point x="-968" y="-570"/>
      <point x="-968" y="-525" type="curve" smooth="yes"/>
      <point x="-968" y="-150" type="line"/>
      <point x="-1238" y="-150" type="line"/>
    </contour>
  </outline>
</glyph>
<glyph name="uni17D217A0" format="2">
  <anchor x="-188" y="-713" name="L"/>
  <anchor x="-188" y="0" name="_L"/>
  <anchor x="-715" y="0" name="_lm"/>
  <anchor x="-715" y="-713" name="lm"/>
  <outline>
    <contour>
      <point x="-1294" y="-510" type="line" smooth="yes"/>
      <point x="-1294" y="-615"/>
      <point x="-1157" y="-713"/>
      <point x="-947" y="-713" type="curve" smooth="yes"/>
      <point x="-737" y="-713"/>
      <point x="-600" y="-615"/>
      <point x="-600" y="-510" type="curve" smooth="yes"/>
      <point x="-600" y="-338" type="line" smooth="yes"/>
      <point x="-600" y="-293"/>
      <point x="-565" y="-281"/>
      <point x="-535" y="-281" type="curve" smooth="yes"/>
      <point x="-505" y="-281"/>
      <point x="-470" y="-293"/>
      <point x="-470" y="-338" type="curve" smooth="yes"/>
      <point x="-470" y="-713" type="line"/>
      <point x="-188" y="-713" type="line"/>
      <point x="-188" y="-341" type="line" smooth="yes"/>
      <point x="-188" y="-236"/>
      <point x="-325" y="-150"/>
      <point x="-535" y="-150" type="curve" smooth="yes"/>
      <point x="-745" y="-150"/>
      <point x="-882" y="-236"/>
      <point x="-882" y="-341" type="curve" smooth="yes"/>
      <point x="-882" y="-525" type="line" smooth="yes"/>
      <point x="-882" y="-570"/>
      <point x="-917" y="-581"/>
      <point x="-947" y="-581" type="curve" smooth="yes"/>
      <point x="-977" y="-581"/>
      <point x="-1012" y="-570"/>
      <point x="-1012" y="-525" type="curve" smooth="yes"/>
      <point x="-1012" y="-465" type="line" smooth="yes"/>
      <point x="-1012" y="-394"/>
      <point x="-1241" y="-375"/>
      <point x="-1241" y="-319" type="curve" smooth="yes"/>
      <point x="-1241" y="-296"/>
      <point x="-1230" y="-289"/>
      <point x="-1200" y="-289" type="curve" smooth="yes"/>
      <point x="-1159" y="-289"/>
      <point x="-1136" y="-360"/>
      <point x="-1084" y="-360" type="curve" smooth="yes"/>
      <point x="-998" y="-360"/>
      <point x="-949" y="-315"/>
      <point x="-941" y="-180" type="curve"/>
      <point x="-964" y="-206"/>
      <point x="-1016" y="-214"/>
      <point x="-1050" y="-214" type="curve" smooth="yes"/>
      <point x="-1106" y="-214"/>
      <point x="-1129" y="-150"/>
      <point x="-1208" y="-150" type="curve" smooth="yes"/>
      <point x="-1301" y="-150"/>
      <point x="-1365" y="-225"/>
      <point x="-1365" y="-311" type="curve" smooth="yes"/>
      <point x="-1365" y="-386"/>
      <point x="-1294" y="-390"/>
      <point x="-1294" y="-439" type="curve" smooth="yes"/>
    </contour>
  </outline>
</glyph>
<glyph name="uni17D217A117B6.low" format="2">
  <advance width="1500"/>
  <anchor x="439" y="-1210" name="L"/>
  <anchor x="1230" y="-60" name="L2"/>
  <anchor x="439" y="1407" name="U"/>
  <anchor x="684" y="1506" name="um"/>
  <outline>
    <contour>
      <point x="262" y="907" type="curve" smooth="yes"/>
      <point x="262" y="-1047" type="line"/>
      <point x="229" y="-1036"/>
      <point x="75" y="-927"/>
      <point x="37" y="-927" type="curve" smooth="yes"/>
      <point x="0" y="-927"/>
      <point x="-150" y="-1047"/>
      <point x="-188" y="-1047" type="curve"/>
      <point x="-188" y="-893" type="line"/>
      <point x="-218" y="-810"/>
      <point x="-308" y="-788"/>
      <point x="-428" y="-788" type="curve"/>
      <point x="-540" y="-810"/>
      <point x="-600" y="-863"/>
      <point x="-600" y="-919" type="curve" smooth="yes"/>
      <point x="-600" y="-971"/>
      <point x="-544" y="-1016"/>
      <point x="-488" y="-1028" type="curve"/>
      <point x="-488" y="-1155" type="line" smooth="yes"/>
      <point x="-488" y="-1193"/>
      <point x="-416" y="-1238"/>
      <point x="-345" y="-1238" type="curve" smooth="yes"/>
      <point x="-263" y="-1238" type="line" smooth="yes"/>
      <point x="-135" y="-1238"/>
      <point x="-4" y="-1118"/>
      <point x="37" y="-1118" type="curve" smooth="yes"/>
      <point x="82" y="-1118"/>
      <point x="206" y="-1238"/>
      <point x="337" y="-1238" type="curve" smooth="yes"/>
      <point x="420" y="-1238" type="line" smooth="yes"/>
      <point x="491" y="-1238"/>
      <point x="562" y="-1193"/>
      <point x="562" y="-1155" type="curve" smooth="yes"/>
      <point x="562" y="870" type="line" smooth="yes"/>
      <point x="562" y="937"/>
      <point x="491" y="997"/>
      <point x="375" y="1057" type="curve" smooth="yes"/>
      <point x="322" y="1084"/>
      <point x="221" y="1144"/>
      <point x="221" y="1174" type="curve" smooth="yes"/>
      <point x="221" y="1226"/>
      <point x="352" y="1309"/>
      <point x="611" y="1309" type="curve" smooth="yes"/>
      <point x="832" y="1309"/>
      <point x="1012" y="1196"/>
      <point x="1012" y="1147" type="curve" smooth="yes"/>
      <point x="1012" y="0" type="line"/>
      <point x="1312" y="0" type="line"/>
      <point x="1312" y="1166" type="line" smooth="yes"/>
      <point x="1312" y="1264"/>
      <point x="911" y="1440"/>
      <point x="611" y="1440" type="curve" smooth="yes"/>
      <point x="292" y="1440"/>
      <point x="94" y="1320"/>
      <point x="94" y="1181" type="curve" smooth="yes"/>
      <point x="94" y="1121"/>
      <point x="120" y="1072"/>
      <point x="214" y="1009" type="curve" smooth="yes"/>
      <point x="236" y="994"/>
      <point x="262" y="964"/>
    </contour>
  </outline>
</glyph>
<glyph name="uni17D217A4" format="2">
  <anchor x="-188" y="-713" name="L"/>
  <anchor x="-188" y="0" name="_L"/>
  <anchor x="-797" y="0" name="_lm"/>
  <anchor x="-797" y="-713" name="lm"/>
  <outline>
    <contour>
      <point x="-1052" y="-439" type="curve"/>
      <point x="-1258" y="-439" type="line"/>
      <point x="-1304" y="-388"/>
      <point x="-1476" y="-367"/>
      <point x="-1476" y="-319" type="curve" smooth="yes"/>
      <point x="-1476" y="-296"/>
      <point x="-1465" y="-289"/>
      <point x="-1435" y="-289" type="curve" smooth="yes"/>
      <point x="-1393" y="-289"/>
      <point x="-1371" y="-360"/>
      <point x="-1318" y="-360" type="curve" smooth="yes"/>
      <point x="-1232" y="-360"/>
      <point x="-1183" y="-315"/>
      <point x="-1176" y="-180" type="curve"/>
      <point x="-1198" y="-206"/>
      <point x="-1251" y="-214"/>
      <point x="-1285" y="-214" type="curve" smooth="yes"/>
      <point x="-1341" y="-214"/>
      <point x="-1363" y="-150"/>
      <point x="-1442" y="-150" type="curve" smooth="yes"/>
      <point x="-1536" y="-150"/>
      <point x="-1600" y="-225"/>
      <point x="-1600" y="-311" type="curve" smooth="yes"/>
      <point x="-1600" y="-386"/>
      <point x="-1528" y="-390"/>
      <point x="-1528" y="-439" type="curve" smooth="yes"/>
      <point x="-1528" y="-473" type="line"/>
      <point x="-1611" y="-491"/>
      <point x="-1656" y="-548"/>
      <point x="-1656" y="-589" type="curve" smooth="yes"/>
      <point x="-1656" y="-660"/>
      <point x="-1581" y="-690"/>
      <point x="-1468" y="-713" type="curve"/>
      <point x="-1378" y="-713"/>
      <point x="-1258" y="-694"/>
      <point x="-1247" y="-630" type="curve"/>
      <point x="-1247" y="-540" type="line"/>
      <point x="-1162" y="-540" type="line"/>
      <point x="-1174" y="-556"/>
      <point x="-1180" y="-574"/>
      <point x="-1180" y="-589" type="curve" smooth="yes"/>
      <point x="-1180" y="-660"/>
      <point x="-1105" y="-690"/>
      <point x="-992" y="-713" type="curve"/>
      <point x="-902" y="-713"/>
      <point x="-781" y="-694"/>
      <point x="-770" y="-630" type="curve"/>
      <point x="-770" y="-439" type="line"/>
      <point x="-774" y="-413"/>
      <point x="-792" y="-394"/>
      <point x="-856" y="-371" type="curve"/>
      <point x="-894" y="-360"/>
      <point x="-931" y="-338"/>
      <point x="-931" y="-315" type="curve" smooth="yes"/>
      <point x="-931" y="-281"/>
      <point x="-875" y="-225"/>
      <point x="-657" y="-225" type="curve" smooth="yes"/>
      <point x="-537" y="-225"/>
      <point x="-470" y="-263"/>
      <point x="-470" y="-300" type="curve" smooth="yes"/>
      <point x="-470" y="-713" type="line"/>
      <point x="-188" y="-713" type="line"/>
      <point x="-188" y="-278" type="line" smooth="yes"/>
      <point x="-188" y="-218"/>
      <point x="-432" y="-150"/>
      <point x="-657" y="-150" type="curve" smooth="yes"/>
      <point x="-912" y="-150"/>
      <point x="-1123" y="-229"/>
      <point x="-1123" y="-311" type="curve" smooth="yes"/>
      <point x="-1123" y="-386"/>
      <point x="-1052" y="-390"/>
    </contour>
  </outline>
</glyph>
<glyph name="uni17D217A8" format="2">
  <guideline y="-330"/>
  <guideline x="-188"/>
  <guideline x="-1080"/>
  <anchor x="-188" y="-940" name="L"/>
  <anchor x="-188" y="0" name="_L"/>
  <anchor x="-639" y="0" name="_lm"/>
  <anchor x="-639" y="-940" name="lm"/>
  <outline>
    <contour>
      <point x="-814" y="-113" type="curve" smooth="yes"/>
      <point x="-870" y="-113"/>
      <point x="-908" y="-128"/>
      <point x="-941" y="-150" type="curve"/>
      <point x="-975" y="-161"/>
      <point x="-1005" y="-199"/>
      <point x="-1054" y="-199" type="curve" smooth="yes"/>
      <point x="-1058" y="-199"/>
      <point x="-1069" y="-195"/>
      <point x="-1080" y="-191" type="curve"/>
      <point x="-1080" y="-285"/>
      <point x="-1058" y="-311"/>
      <point x="-979" y="-311" type="curve" smooth="yes"/>
      <point x="-908" y="-311"/>
      <point x="-881" y="-244"/>
      <point x="-825" y="-244" type="curve" smooth="yes"/>
      <point x="-701" y="-244"/>
      <point x="-709" y="-296"/>
      <point x="-630" y="-330" type="curve"/>
      <point x="-559" y="-296"/>
      <point x="-566" y="-244"/>
      <point x="-443" y="-244" type="curve" smooth="yes"/>
      <point x="-386" y="-244"/>
      <point x="-364" y="-311"/>
      <point x="-289" y="-311" type="curve" smooth="yes"/>
      <point x="-210" y="-311"/>
      <point x="-191" y="-285"/>
      <point x="-188" y="-191" type="curve"/>
      <point x="-199" y="-195"/>
      <point x="-210" y="-199"/>
      <point x="-214" y="-199" type="curve" smooth="yes"/>
      <point x="-263" y="-199"/>
      <point x="-315" y="-158"/>
      <point x="-338" y="-143" type="curve"/>
      <point x="-364" y="-120"/>
      <point x="-405" y="-113"/>
      <point x="-454" y="-113" type="curve" smooth="yes"/>
      <point x="-525" y="-113"/>
      <point x="-559" y="-158"/>
      <point x="-630" y="-214" type="curve"/>
      <point x="-709" y="-158"/>
      <point x="-743" y="-113"/>
    </contour>
    <contour>
      <point x="-1084" y="-539" type="curve" smooth="yes"/>
      <point x="-1084" y="-595"/>
      <point x="-1032" y="-633"/>
      <point x="-1005" y="-644" type="curve"/>
      <point x="-964" y="-670"/>
      <point x="-859" y="-674"/>
      <point x="-829" y="-674" type="curve" smooth="yes"/>
      <point x="-758" y="-674"/>
      <point x="-675" y="-640"/>
      <point x="-675" y="-599" type="curve" smooth="yes"/>
      <point x="-675" y="-569"/>
      <point x="-724" y="-531"/>
      <point x="-795" y="-531" type="curve" smooth="yes"/>
      <point x="-814" y="-531"/>
      <point x="-833" y="-535"/>
      <point x="-859" y="-539" type="curve"/>
      <point x="-859" y="-513"/>
      <point x="-769" y="-482"/>
      <point x="-638" y="-482" type="curve" smooth="yes"/>
      <point x="-492" y="-482"/>
      <point x="-413" y="-509"/>
      <point x="-413" y="-535" type="curve" smooth="yes"/>
      <point x="-413" y="-554"/>
      <point x="-477" y="-584"/>
      <point x="-604" y="-633" type="curve" smooth="yes"/>
      <point x="-679" y="-663"/>
      <point x="-780" y="-685"/>
      <point x="-867" y="-706" type="curve" smooth="yes"/>
      <point x="-968" y="-730"/>
      <point x="-1084" y="-745"/>
      <point x="-1084" y="-756" type="curve" smooth="yes"/>
      <point x="-1084" y="-899"/>
      <point x="-941" y="-933"/>
      <point x="-675" y="-933" type="curve" smooth="yes"/>
      <point x="-578" y="-933"/>
      <point x="-495" y="-910"/>
      <point x="-431" y="-884" type="curve"/>
      <point x="-428" y="-903"/>
      <point x="-409" y="-933"/>
      <point x="-401" y="-933" type="curve" smooth="yes"/>
      <point x="-158" y="-933" type="line"/>
      <point x="-173" y="-925"/>
      <point x="-188" y="-888"/>
      <point x="-188" y="-873" type="curve" smooth="yes"/>
      <point x="-188" y="-715" type="line"/>
      <point x="-431" y="-715" type="line"/>
      <point x="-431" y="-783" type="line"/>
      <point x="-480" y="-809"/>
      <point x="-551" y="-821"/>
      <point x="-604" y="-821" type="curve" smooth="yes"/>
      <point x="-679" y="-821"/>
      <point x="-724" y="-813"/>
      <point x="-746" y="-805" type="curve"/>
      <point x="-596" y="-779"/>
      <point x="-390" y="-700"/>
      <point x="-341" y="-669" type="curve" smooth="yes"/>
      <point x="-278" y="-629"/>
      <point x="-188" y="-588"/>
      <point x="-188" y="-524" type="curve" smooth="yes"/>
      <point x="-188" y="-434"/>
      <point x="-345" y="-370"/>
      <point x="-638" y="-370" type="curve" smooth="yes"/>
      <point x="-930" y="-370"/>
      <point x="-1084" y="-449"/>
    </contour>
  </outline>
</glyph>
<glyph name="uni17D5.alt1" format="2">
  <advance width="2306"/>
  <outline>
    <contour>
      <point x="981" y="0" type="line"/>
      <point x="1319" y="0" type="line"/>
      <point x="1319" y="1440" type="line"/>
      <point x="981" y="1440" type="line"/>
      <point x="974" y="1354"/>
      <point x="891" y="1125"/>
      <point x="790" y="1125" type="curve"/>
      <point x="745" y="1125"/>
      <point x="730" y="1174"/>
      <point x="730" y="1215" type="curve"/>
      <point x="779" y="1234"/>
      <point x="865" y="1279"/>
      <point x="865" y="1357" type="curve"/>
      <point x="865" y="1421"/>
      <point x="797" y="1477"/>
      <point x="651" y="1477" type="curve"/>
      <point x="520" y="1477"/>
      <point x="400" y="1414"/>
      <point x="400" y="1241" type="curve"/>
      <point x="400" y="1091"/>
      <point x="524" y="971"/>
      <point x="749" y="971" type="curve"/>
      <point x="827" y="971"/>
      <point x="917" y="1009"/>
      <point x="981" y="1072" type="curve"/>
    </contour>
    <contour>
      <point x="1469" y="0" type="line"/>
      <point x="1806" y="0" type="line"/>
      <point x="1806" y="1440" type="line"/>
      <point x="1469" y="1440" type="line"/>
    </contour>
  </outline>
</glyph>
